<?xml version="1.0" standalone="no"?>
<!DOCTYPE svg PUBLIC "-//W3C//DTD SVG 1.1//EN" "http://www.w3.org/Graphics/SVG/1.1/DTD/svg11.dtd">
<svg xmlns="http://www.w3.org/2000/svg">
<metadata>Generated by Fontastic.me</metadata>
<defs>
<font id="mschool" horiz-adv-x="512">
<font-face font-family="mschool" units-per-em="512" ascent="480" descent="-32"/>
<missing-glyph horiz-adv-x="512" />

<glyph glyph-name="arrow-down" unicode="&#97;" d="M256 201l-156 155c-8 9-21 9-30 0-8-8-8-21 0-30l171-170c8-9 22-9 30 0l171 170c8 9 8 22 0 30-9 9-22 9-30 0z"/>
<glyph glyph-name="loading" unicode="&#98;" d="M128 256c0 6-2 11-6 15-4 4-10 6-15 6l-84 0c-8 1-16-3-20-10-4-7-4-15 0-22 4-7 12-11 20-10l84 0c12 0 21 9 21 21z m279 21c-8 1-16-3-20-10-4-7-4-15 0-22 4-7 12-11 20-10l85 0c11 0 20 10 20 21 0 11-9 21-20 21z m-151-149c-6 0-11-2-15-6-4-4-6-10-6-15l0-84c-1-8 3-16 10-20 7-4 15-4 22 0 7 4 11 12 10 20l0 84c0 5-2 11-6 15-4 4-9 6-15 6z m123 36c-9 9-23 9-31 0-9-8-9-22 0-31l62-63c4-4 10-6 16-6 6 0 11 2 15 6 5 5 7 10 7 16 0 6-2 12-7 16z m0 162c-9-8-23-8-31 0-9 9-9 23 0 32l62 62c4 4 10 7 16 7 6 0 11-3 15-7 5-4 7-10 7-15 0-6-2-12-7-16z m-246-162l-62-62c-5-4-7-10-7-16 0-6 2-11 7-16 4-4 9-6 15-6 6 0 12 2 16 6l62 63c4 4 7 10 7 16 0 5-3 11-7 15-8 9-22 9-31 0z m123 220c6 0 11 2 15 6 4 4 6 10 6 15l0 84c1 8-3 16-10 20-7 4-15 4-22 0-7-4-11-12-10-20l0-84c0-12 9-21 21-21z m-155 36c-8 9-22 9-31 0-8-8-8-22 0-31l63-63c4-4 10-6 16-6 5 0 11 2 15 6 4 5 7 10 7 16 0 6-3 12-7 16z"/>
<glyph glyph-name="member" unicode="&#99;" d="M312 219c40-8 79-25 112-51 46-36 77-86 88-143l0-4 0 0c0-11-10-21-21-21l-470 0c-13 0-23 12-21 25 10 56 42 107 88 143 33 26 72 43 112 51-56 23-96 77-96 141 0 84 68 152 152 152 84 0 152-68 152-152 0-64-40-118-96-141z m-56 32c60 0 109 49 109 109 0 61-49 109-109 109-60 0-109-48-109-109 0-60 49-109 109-109z m142-116c-83 64-201 64-284 0-31-24-53-57-65-92l414 0c-11 35-34 68-65 92z m71-114l21 0 1 0z"/>
<glyph glyph-name="message" unicode="&#100;" d="M21 299c0 107 106 192 235 192 129 0 235-85 235-192 0-92-78-169-184-188l-123-86c-14-10-34 1-33 19l5 81c-81 31-135 98-135 174z m265-150c3 2 6 3 9 3 89 15 153 77 153 147 0 81-85 149-192 149-107 0-192-68-192-149 0-61 48-116 120-139 10-3 16-12 15-22l-3-53z"/>
<glyph glyph-name="more-vert" unicode="&#101;" d="M256 341c-24 0-43 19-43 43 0 24 19 43 43 43 24 0 43-19 43-43 0-24-19-43-43-43z m0-128c-24 0-43 19-43 43 0 24 19 43 43 43 24 0 43-19 43-43 0-24-19-43-43-43z m0-128c-24 0-43 19-43 43 0 24 19 43 43 43 24 0 43-19 43-43 0-24-19-43-43-43z"/>
<glyph glyph-name="ok" unicode="&#102;" d="M256 21c-130 0-235 105-235 235 0 130 105 235 235 235 130 0 235-105 235-235 0-130-105-235-235-235z m0 43c106 0 192 86 192 192 0 106-86 192-192 192-106 0-192-86-192-192 0-106 86-192 192-192z m-103 202l76-66 115 144c8 9 21 11 30 3 10-7 11-21 4-30l-129-161c-8-9-22-11-31-3l-93 81c-9 7-10 21-2 30 7 9 21 10 30 2z"/>
<glyph glyph-name="search" unicode="&#103;" d="M299 164c-31-21-68-34-108-34-106 0-191 86-191 191 0 106 85 191 191 191 105 0 191-85 191-191 0-50-19-95-51-129l174-155c9-8 9-21 2-30-8-9-22-9-31-2z m-108 9c82 0 148 66 148 148 0 82-66 148-148 148-82 0-148-66-148-148 0-82 66-148 148-148z"/>
<glyph glyph-name="url" unicode="&#104;" d="M364 318c21-12 39-29 53-51l32-55c40-66 18-152-49-192-2-1-2-1-3-1-69-39-157-16-197 51l-33 56c-13 21-19 44-19 68-21 12-39 29-53 51l-32 55c-40 66-18 152 49 192 2 1 2 1 3 1 69 39 157 16 197-51l33-56c13-21 19-44 19-68z m-7-47c-11-31-32-58-62-76-1-1-1-1-3-2-31-17-66-22-98-16 2-10 5-20 11-29l33-55c28-48 89-64 138-37 1 1 1 1 2 2 46 27 61 86 34 131l-33 56c-6 10-14 18-22 26z m-39 64c-2 10-5 20-11 29l-33 55c-28 48-89 64-138 37-1-1-1-1-2-2-46-27-61-86-34-131l33-56c6-10 14-18 22-26 11 31 32 58 62 76 1 1 1 1 3 2 31 17 66 22 98 16z m-1-44c-25 6-52 3-76-10-1-1-1-1-2-1-23-14-38-35-44-59 25-6 52-3 76 10 1 1 1 1 2 1 23 14 38 35 44 59z"/>
<glyph glyph-name="wrong" unicode="&#105;" d="M226 256l-70 70c-9 9-9 22 0 30 8 9 21 9 30 0l70-70 70 70c9 9 22 9 30 0 9-8 9-21 0-30l-70-70 70-70c9-9 9-22 0-30-8-9-21-9-30 0l-70 70-70-70c-9-9-22-9-30 0-9 8-9 21 0 30z m30-235c-130 0-235 105-235 235 0 130 105 235 235 235 130 0 235-105 235-235 0-130-105-235-235-235z m0 43c106 0 192 86 192 192 0 106-86 192-192 192-106 0-192-86-192-192 0-106 86-192 192-192z"/>
<glyph glyph-name="arrow-left" unicode="&#106;" d="M201 256l155-156c9-8 9-21 0-30-8-8-21-8-30 0l-170 171c-9 8-9 22 0 30l170 171c9 8 22 8 30 0 9-9 9-22 0-30z"/>
<glyph glyph-name="arrow-right" unicode="&#107;" d="M311 256l-155-156c-9-8-9-21 0-30 8-8 21-8 30 0l170 171c9 8 9 22 0 30l-170 171c-9 8-22 8-30 0-9-9-9-22 0-30z"/>
<glyph glyph-name="arrow-small-left" unicode="&#108;" d="M246 182c6-6 6-16 0-23-6-6-16-6-23 0l-85 86c-6 6-6 16 0 22l85 86c7 6 17 6 23 0 6-7 6-17 0-23l-74-74z m128 0c6-6 6-16 0-23-6-6-16-6-23 0l-85 86c-6 6-6 16 0 22l85 86c7 6 17 6 23 0 6-7 6-17 0-23l-74-74z"/>
<glyph glyph-name="arrow-small-right" unicode="&#109;" d="M266 182l74 74-74 74c-6 6-6 16 0 23 6 6 16 6 23 0l85-86c6-6 6-16 0-22l-85-86c-7-6-17-6-23 0-6 7-6 17 0 23z m-128 0l74 74-74 74c-6 6-6 16 0 23 6 6 16 6 23 0l85-86c6-6 6-16 0-22l-85-86c-7-6-17-6-23 0-6 7-6 17 0 23z"/>
<glyph glyph-name="arrow-up" unicode="&#110;" d="M256 311l-156-155c-8-9-21-9-30 0-8 8-8 21 0 30l171 170c8 9 22 9 30 0l171-170c8-9 8-22 0-30-9-9-22-9-30 0z"/>
<glyph glyph-name="bookmark" unicode="&#111;" d="M259 139l154-134c13-12 35-2 35 16l0 470c0 11-10 21-21 21l-342 0c-11 0-21-10-21-21l0-470c0-18 21-28 35-16z m-152 330l298 0 0-401-131 115c-8 7-20 7-28 0l-139-116z"/>
<glyph glyph-name="bookmark-active" unicode="&#112;" d="M259 153l147-127c14-12 34-3 34 15l0 451c0 11-9 20-20 20l-328 0c-11 0-20-9-20-20l0-451c0-17 20-27 33-16z"/>
<glyph glyph-name="burger" unicode="&#113;" d="M21 373c-11 0-21 10-21 22 0 11 10 21 21 21l470 0c11 0 21-10 21-21 0-12-10-22-21-22z m0-149c-11 0-21 10-21 21 0 12 10 22 21 22l470 0c11 0 21-10 21-22 0-11-10-21-21-21z m0-149c-11 0-21 9-21 21 0 12 10 21 21 21l470 0c11 0 21-9 21-21 0-12-10-21-21-21z"/>
<glyph glyph-name="burger2" unicode="&#114;" d="M32 427l448 0c18 0 32-15 32-32 0-18-14-32-32-32l-448 0c-18 0-32 14-32 32 0 17 14 32 32 32z m64-150l320 0c18 0 32-14 32-32 0-17-14-32-32-32l-320 0c-18 0-32 15-32 32 0 18 14 32 32 32z m64-149l192 0c18 0 32-14 32-32 0-18-14-32-32-32l-192 0c-18 0-32 14-32 32 0 18 14 32 32 32z"/>
<glyph glyph-name="clock" unicode="&#115;" d="M277 277l51 0c12 0 22-9 22-21 0-12-10-21-22-21l-72 0c-12 0-21 9-21 21l0 117c0 12 9 22 21 22 12 0 21-10 21-22z m-21-256c-130 0-235 105-235 235 0 130 105 235 235 235 130 0 235-105 235-235 0-130-105-235-235-235z m0 43c106 0 192 86 192 192 0 106-86 192-192 192-106 0-192-86-192-192 0-106 86-192 192-192z"/>
<glyph glyph-name="close" unicode="&#116;" d="M256 276l151 150c8 9 22 9 30 0 8-8 8-21 0-30l-151-151 151-151c8-8 8-21 0-30-8-8-22-8-30 0l-151 151-151-151c-8-8-22-8-30 0-8 9-8 22 0 30l151 151-151 151c-8 9-8 22 0 30 8 9 22 9 30 0z"/>
<glyph glyph-name="detele" unicode="&#117;" d="M427 285l0-200c0-47-39-85-86-85l-170 0c-47 0-86 38-86 85l0 200c-25 12-42 37-42 67 0 41 33 75 74 75l33 0c0 3-1 7-1 10 0 42 34 75 75 75l64 0c41 0 75-33 75-75 0-3-1-7-1-10l33 0c41 0 74-34 74-75 0-30-17-55-42-67z m-299-8l0-192c0-23 19-42 43-42l170 0c24 0 43 19 43 42l0 192z m190 150c1 3 2 7 2 10 0 18-14 32-32 32l-64 0c-18 0-32-14-32-32 0-3 1-7 2-10z m-201-43c-17 0-32-14-32-32 0-18 15-32 32-32l278 0c17 0 32 14 32 32 0 18-15 32-32 32z m64-178c0 11 10 21 22 21 11 0 21-10 21-21l0-88c0-12-10-22-21-22-12 0-22 10-22 22z m107 0c0 11 10 21 21 21 12 0 22-10 22-21l0-88c0-12-10-22-22-22-11 0-21 10-21 22z"/>
</font>
</defs>
</svg>
