<?xml version="1.0" encoding="utf-8"?>
<!-- Generator: Adobe Illustrator 25.2.1, SVG Export Plug-In . SVG Version: 6.00 Build 0)  -->
<svg version="1.1" id="圖層_1" xmlns="http://www.w3.org/2000/svg" xmlns:xlink="http://www.w3.org/1999/xlink" x="0px" y="0px"
	 viewBox="0 0 300 260" style="enable-background:new 0 0 300 260;" xml:space="preserve">
<style type="text/css">
	.st0{clip-path:url(#SVGID_2_);fill:#29467D;}
</style>
<g>
	<defs>
		<rect id="SVGID_1_" width="300" height="260"/>
	</defs>
	<clipPath id="SVGID_2_">
		<use xlink:href="#SVGID_1_"  style="overflow:visible;"/>
	</clipPath>
	<path id="Shape" class="st0" d="M111.8,521.6c20.1,8.5,43.4-0.9,52-21L282,221.9c8.5-20.1-0.9-43.4-21-52l-135.6-57.6
		c-5.4-2.3-11.6,0.2-13.8,5.6l-26.6,62.7c-2.9,6.9,0.3,14.9,7.2,17.9l6.4,2.7c2,0.9,4.4,0.6,6.2-0.6c1.9-1.3,4.3-1.7,6.6-1
		c2.2,0.7,4,2.3,4.9,4.5c2.9,7.4-0.7,15.9-8.1,19c-2.2,0.9-4.6,0.8-6.6-0.4c-2-1.1-3.5-3.1-3.9-5.4c-0.4-2.2-1.8-4-3.9-4.9l-6.4-2.7
		c-6.9-2.9-14.9,0.3-17.9,7.2l-25.9,60.9L111.8,521.6z M82.2,221.9l3.5,1.5c1.7,4.6,5,8.5,9.5,10.9c5.5,3,12.1,3.4,17.9,1
		c13.9-5.8,20.7-21.8,15.2-35.8c-2.3-5.9-7.1-10.3-13.1-12.2c-4.8-1.5-9.9-1.2-14.4,0.8l-3.5-1.5c-0.3-0.1-0.4-0.5-0.3-0.8
		l25.7-60.4L255.9,182c13.5,5.7,19.8,21.4,14.1,34.8l-56.6,133.3L153,324.5c-6.9-2.9-14.9,0.3-17.9,7.2l-2.7,6.4
		c-0.9,2-0.6,4.4,0.6,6.2c1.3,1.9,1.7,4.3,1,6.6c-0.7,2.2-2.3,4-4.5,4.9c-7.4,2.9-15.9-0.7-19-8.1c-0.9-2.2-0.8-4.6,0.4-6.6
		c1.1-2,3.1-3.5,5.4-3.9c2.2-0.4,4-1.8,4.9-3.9l2.7-6.4c2.9-6.9-0.3-14.9-7.2-17.9l-23-9.8c-3.3-1.4-7.2,0.1-8.6,3.5
		c-1.4,3.3,0.1,7.2,3.5,8.6l23,9.8c0.3,0.1,0.4,0.5,0.3,0.7l-1.5,3.5c-4.6,1.7-8.5,5-10.9,9.5c-3,5.5-3.4,12.1-1,17.9
		c5.8,13.9,21.8,20.7,35.8,15.2c5.9-2.3,10.3-7.1,12.2-13.1c1.5-4.8,1.2-9.9-0.8-14.4l1.5-3.5c0.1-0.3,0.5-0.4,0.7-0.3l60.4,25.7
		l-56.6,133.3c-5.7,13.5-21.4,19.8-34.8,14.1L-16.5,453l27.3-64.2c2.3-5.5-0.2-11.9-5.7-14.2l-9-3.8c-2-0.9-4.4-0.6-6.2,0.6
		c-1.9,1.3-4.3,1.7-6.6,1c-2.2-0.7-4-2.3-4.9-4.5c-2.9-7.4,0.7-15.9,8.1-19c2.2-0.9,4.6-0.8,6.6,0.4c2,1.1,3.5,3.1,3.9,5.4
		c0.4,2.2,1.8,4,3.9,4.9l9,3.8c5.5,2.3,11.9-0.2,14.2-5.7l26.5-62.3l12.4,5.2c3.3,1.4,7.2-0.1,8.6-3.5c1.4-3.3-0.1-7.2-3.5-8.6
		l-12.4-5.2l25.9-60.9C81.6,222,81.9,221.8,82.2,221.9L82.2,221.9z"/>
</g>
</svg>
