<?xml version="1.0" encoding="utf-8"?>
<!-- Generator: Adobe Illustrator 25.2.1, SVG Export Plug-In . SVG Version: 6.00 Build 0)  -->
<svg version="1.1" id="圖層_1" xmlns="http://www.w3.org/2000/svg" xmlns:xlink="http://www.w3.org/1999/xlink" x="0px" y="0px"
	 viewBox="0 0 300 260" style="enable-background:new 0 0 300 260;" xml:space="preserve">
<style type="text/css">
	.st0{clip-path:url(#SVGID_2_);fill:#29467D;}
</style>
<g>
	<defs>
		<rect id="SVGID_1_" width="300" height="260"/>
	</defs>
	<clipPath id="SVGID_2_">
		<use xlink:href="#SVGID_1_"  style="overflow:visible;"/>
	</clipPath>
	<path class="st0" d="M76.6,381.7l60.1-47c4.7-3.7,5.5-10.6,1.7-15.5l-6.2-7.9c-1.4-1.8-3.6-2.8-5.8-2.6c-2.4,0.2-4.7-0.7-6.3-2.4
		s-2.4-4.1-2.2-6.4c1-8,8.3-13.8,16.3-12.8c2.4,0.3,4.4,1.6,5.7,3.7c1.3,2,1.6,4.5,0.8,6.7c-0.7,2.1-0.3,4.5,1.1,6.3l6.2,7.9
		c3.8,4.8,10.7,5.8,15.4,2.1l58.5-45.7c3-2.4,3.5-6.8,1.1-10l-13.7-17.6c-2.3-2.9-6.4-3.5-9.3-1.2c-2.9,2.2-3.3,6.4-1,9.3l9.9,12.6
		l-51.9,40.5l-2.8-3.5c0.7-5-0.4-10.1-3.2-14.5c-3.5-5.5-9.1-9.1-15.5-9.9c-15.2-1.9-29,8.9-30.8,24.1c-0.8,6.4,1.3,12.7,5.8,17.4
		c3.6,3.8,8.3,6,13.3,6.6l2.8,3.5l-53.5,41.8L-18.4,250c-9.3-11.9-7.4-28.9,4.2-38l114.8-89.7l41.5,53.2c4.8,6.1,13.5,7.3,19.4,2.6
		l5.5-4.3c1.8-1.4,2.7-3.6,2.5-5.8c-0.2-2.4,0.6-4.7,2.3-6.3c1.7-1.6,4-2.4,6.4-2c8,1.2,13.9,8.6,13,16.7c-0.2,2.4-1.5,4.4-3.5,5.7
		c-2,1.3-4.4,1.5-6.7,0.7c-2.1-0.8-4.5-0.4-6.2,1l-5.5,4.3c-6,4.7-6.9,13.4-2.2,19.5l14.4,18.4c2.3,2.9,6.4,3.5,9.3,1.2
		c2.9-2.2,3.3-6.4,1-9.3l-14.4-18.4c-0.2-0.3-0.2-0.6,0.1-0.8l3-2.4c5,0.8,10-0.2,14.3-2.9c5.4-3.4,8.9-9,9.5-15.4
		c1.5-15.2-9.5-29.3-24.6-31.5c-6.4-0.9-12.6,1.1-17.2,5.5c-3.7,3.5-5.8,8.2-6.3,13.2l-3,2.4c-0.2,0.2-0.6,0.1-0.8-0.1l-42.7-54.6
		c-3.9-5-11.1-6-16.1-2.2l-116.2,90.8c-17.3,13.5-20.2,38.9-6.3,56.6l95.5,122.2C69.1,383.4,73.6,384,76.6,381.7L76.6,381.7z"/>
</g>
</svg>
