<?xml version="1.0" encoding="utf-8"?>
<!-- Generator: Adobe Illustrator 25.2.1, SVG Export Plug-In . SVG Version: 6.00 Build 0)  -->
<svg version="1.1" id="圖層_1" xmlns="http://www.w3.org/2000/svg" xmlns:xlink="http://www.w3.org/1999/xlink" x="0px" y="0px"
	 viewBox="0 0 300 260" style="enable-background:new 0 0 300 260;" xml:space="preserve">
<style type="text/css">
	.st0{clip-path:url(#SVGID_2_);fill:#29467D;}
</style>
<g>
	<defs>
		<rect id="SVGID_1_" width="300" height="260"/>
	</defs>
	<clipPath id="SVGID_2_">
		<use xlink:href="#SVGID_1_"  style="overflow:visible;"/>
	</clipPath>
	<path class="st0" d="M311.8,320l-16.3-74.5c-1.3-5.9-7.2-9.6-13.2-8.3l-9.8,2.1c-2.2,0.5-4.1,2-4.9,4.1c-0.9,2.2-2.7,3.9-4.9,4.6
		c-2.3,0.7-4.7,0.4-6.7-0.9c-6.8-4.4-8.8-13.5-4.4-20.3c1.3-2,3.4-3.3,5.8-3.6c2.4-0.3,4.7,0.5,6.4,2.2c1.6,1.6,3.9,2.2,6.1,1.7
		l9.8-2.1c6-1.3,9.8-7.1,8.5-13l-15.8-72.5c-0.8-3.8-4.6-6.2-8.5-5.3l-21.8,4.8c-3.6,0.8-5.9,4.3-5.2,7.8c0.8,3.5,4.3,5.8,8,5
		l15.7-3.4l14,64.3l-4.4,1c-4.2-2.8-9.2-4-14.4-3.4c-6.5,0.8-12.2,4.3-15.6,9.7c-8.3,12.8-4.5,30,8.3,38.2
		c5.4,3.5,12.1,4.3,18.2,2.3c4.9-1.6,9-4.8,11.7-9.1l4.4-1l14.5,66.4l-145.4,31.7c-14.7,3.2-29.2-5.9-32.4-20.3L88.5,186l65.9-14.4
		c7.5-1.6,12.4-9,10.8-16.4l-1.5-6.8c-0.5-2.2-2-4-4.2-4.7c-2.2-0.8-3.9-2.6-4.7-4.8c-0.7-2.2-0.4-4.6,0.9-6.6
		c4.5-6.7,13.8-8.7,20.7-4.5c2,1.2,3.3,3.3,3.6,5.6c0.3,2.3-0.6,4.6-2.3,6.3c-1.6,1.6-2.3,3.9-1.8,6l1.5,6.8
		c1.6,7.4,9.1,12.1,16.6,10.4l22.9-5c3.6-0.8,5.9-4.3,5.2-7.8c-0.8-3.5-4.3-5.8-8-5l-22.9,5c-0.3,0.1-0.6-0.1-0.7-0.4l-0.8-3.7
		c2.9-4.1,4.2-9.1,3.6-14.1c-0.7-6.3-4.3-11.9-9.8-15.2c-13-8-30.5-4.2-39.1,8.5c-3.6,5.3-4.5,11.9-2.5,17.9
		c1.6,4.8,4.8,8.8,9.2,11.4l0.8,3.7c0.1,0.3-0.1,0.6-0.5,0.7l-67.7,14.8c-6.2,1.4-10.2,7.4-8.9,13.6l31.4,144.1
		c4.7,21.5,26.3,35,48.3,30.3l151.5-33.1C310.1,327.5,312.6,323.7,311.8,320L311.8,320z"/>
</g>
</svg>
