<?xml version="1.0" encoding="utf-8"?>
<!-- Generator: Adobe Illustrator 25.2.1, SVG Export Plug-In . SVG Version: 6.00 Build 0)  -->
<svg version="1.1" id="圖層_1" xmlns="http://www.w3.org/2000/svg" xmlns:xlink="http://www.w3.org/1999/xlink" x="0px" y="0px"
	 viewBox="0 0 300 260" style="enable-background:new 0 0 300 260;" xml:space="preserve">
<style type="text/css">
	.st0{clip-path:url(#SVGID_2_);}
	.st1{fill:#FC5A5A;}
</style>
<g>
	<defs>
		<rect id="SVGID_1_" width="300" height="260"/>
	</defs>
	<clipPath id="SVGID_2_">
		<use xlink:href="#SVGID_1_"  style="overflow:visible;"/>
	</clipPath>
	<g class="st0">
		<path class="st1" d="M1152.9,67.9h-261c-17.8,0-32.5,13.1-35.1,30.2c-1.3-0.1-2.6-0.2-3.9-0.2h-261c-18.4,0-33.6,14.1-35.3,32.1
			c-0.9-0.1-1.8-0.1-2.7-0.1h-261c-18.4,0-33.6,14.1-35.3,32h-3.7h-13h-0.5v0c-2.8,0.3-5,2.6-5,5.5s2.2,5.2,5,5.5v0h0.5h13
			c13.5,0,24.5,11,24.5,24.5V260h11v-62.6c0-14.4-8.6-26.8-21-32.4c0.2-13.3,11.1-24.1,24.5-24.1h261c13.5,0,24.5,11,24.5,24.5v26
			v19v0.5h0c0.3,2.8,2.6,5,5.5,5s5.2-2.2,5.5-5h0v-0.5v-19v-26c0-14.8-9.1-27.5-22-32.8c0.4-13.1,11.2-23.7,24.5-23.7h261
			c13.5,0,24.5,11,24.5,24.5V260h11V133.4c0-14.4-8.6-26.8-20.9-32.3c1.2-12.4,11.7-22.2,24.4-22.2h261c13.5,0,24.5,11,24.5,24.5
			V260h11V103.4C1188.4,83.8,1172.5,67.9,1152.9,67.9z"/>
		<path class="st1" d="M583.9,235.9c-2.9,0-5.2,2.2-5.5,5h0v0.5V260h11v-18.6v-0.5h0C589.1,238.1,586.8,235.9,583.9,235.9z"/>
		<path class="st1" d="M210.4,161.9L210.4,161.9l-0.5,0h-19h-198c-18.4,0-33.6,14.1-35.3,32h-0.7h-19h-0.5v0c-2.8,0.3-5,2.6-5,5.5
			s2.2,5.2,5,5.5v0h0.5h19h67c13.5,0,24.5,11,24.5,24.5V260h11v-30.6c0-19.6-15.9-35.5-35.5-35.5h-55.2c1.7-11.9,11.9-21,24.2-21
			h198h19h0.5v0c2.8-0.3,5-2.6,5-5.5S213.2,162.2,210.4,161.9z"/>
		<path class="st1" d="M-92.6,193.9L-92.6,193.9l-0.5,0h-19h-38.1l9.4-25.5c1.5-4,0.9-8.6-1.7-12.1c-2.5-3.5-6.7-5.6-11.1-5.6h-6.4
			l6.7-7.4h35.3c8.1,0,14.7-6.4,14.7-14.3c0-7.9-6.6-14.3-14.7-14.3h-15c0.2-1,0.3-2,0.3-3.1c0-9.1-7.6-16.6-17-16.6
			c-7.7,0-14.2,5-16.3,11.9h-1.9c-5.3,0-10.5,2.2-14.1,5.9l-17.6,18.1c-6.9,7.1-10.7,16.4-10.7,26.2v14l-10,22.9h-16.9
			c-19.6,0-35.5,15.9-35.5,35.5V260h11v-30.6c0-13.5,11-24.5,24.5-24.5h125h19h0.5v0c2.8-0.3,5-2.6,5-5.5S-89.8,194.2-92.6,193.9z
			 M-149.6,104.4c4,0,7.3,3.2,7.3,7.1s-3.3,7.1-7.3,7.1c-4,0-7.3-3.2-7.3-7.1S-153.6,104.4-149.6,104.4z M-200.9,173.9
			c0.3-0.6,0.4-1.2,0.4-1.9v-15c0-7.4,2.9-14.4,8.1-19.7l17.6-18.1c1.8-1.9,4.4-3,7.1-3h1.9c2.1,6.9,8.6,11.9,16.3,11.9
			c4.2,0,8.1-1.5,11.1-4h20.6c2.8,0,5,2.2,5,4.9c0,2.7-2.2,4.9-5,4.9h-35.6c-2.6,0-5.1,1.1-6.8,3l-10.1,11.2
			c-1.9,2.1-2.4,5.2-1.2,7.8c1.2,2.6,3.9,4.3,6.8,4.3h11.3c1.3,0,2.4,0.6,3.2,1.6c0.7,1,0.9,2.3,0.5,3.4l-10.6,28.7h-7l4.7-14.6
			c0.8-2.5,0.3-5.2-1.3-7.3c-1.6-2.1-4.1-3.4-6.8-3.4h-9.7c-3.2,0-6.1,1.8-7.6,4.6l-10.5,20.7h-11L-200.9,173.9z M-177.6,193.9
			h-10.3l8-15.8h7.3L-177.6,193.9z"/>
		<path class="st1" d="M-57.5,143.4c13.3-4.9,24.7-13.3,32.9-24.2l6-9.4c0.5-1,1-2,1.5-3c8-17.1,8.7-36.2,2-53.9
			c-6.7-17.6-20-31.6-37.5-39.5c-17.5-7.8-37-8.5-55.1-2c-14.7,5.3-26.9,14.9-35.4,27.7c-8.2,12.4-12.3,27.3-11.5,41.9
			c0.1,2.5,2.3,4.5,4.8,4.5c0.1,0,0.2,0,0.3,0c2.6-0.1,4.7-2.1,4.7-4.7c0-0.5-0.1-1-0.2-1.4c-0.4-12.3,3.1-24.7,10-35.1
			c7.3-11.1,17.9-19.4,30.6-24c15.6-5.7,32.5-5.1,47.7,1.7c15.1,6.8,26.7,18.9,32.5,34.2c5.8,15.3,5.2,31.8-1.7,46.6
			c-6.9,14.8-19.3,26.1-35,31.8c-9.8,3.6-20.3,4.7-30.6,3.2c-2.6-0.4-5.1,1.4-5.5,4c-0.4,2.6,1.4,5,4.1,5.4
			c3.4,0.5,6.8,0.7,10.2,0.7c4.8,0,9.5-0.5,14.2-1.4l9.7-2.6C-58.4,143.6-58,143.5-57.5,143.4z"/>
	</g>
</g>
</svg>
