<?xml version="1.0" encoding="utf-8"?>
<!-- Generator: Adobe Illustrator 23.0.4, SVG Export Plug-In . SVG Version: 6.00 Build 0)  -->
<svg version="1.1" id="圖層_1" xmlns="http://www.w3.org/2000/svg" xmlns:xlink="http://www.w3.org/1999/xlink" x="0px" y="0px"
	 viewBox="0 0 1481 741.2" style="enable-background:new 0 0 1481 741.2;" xml:space="preserve">
<style type="text/css">
	.st0{opacity:0.35;fill:none;}
	.st1{opacity:0.35;fill:#FFFFFF;}
</style>
<circle class="st0" cx="370" cy="370" r="370"/>
<path class="st1" d="M370,740c-49.9,0-98.4-9.8-144-29.1c-44.1-18.6-83.6-45.3-117.6-79.3S47.7,558.1,29.1,514
	C9.8,468.4,0,419.9,0,370s9.8-98.4,29.1-144c18.6-44.1,45.3-83.6,79.3-117.6S181.9,47.7,226,29.1C271.6,9.8,320.1,0,370,0
	s98.4,9.8,144,29.1c44.1,18.6,83.6,45.3,117.6,79.3s60.7,73.5,79.3,117.6c19.3,45.6,29.1,94.1,29.1,144s-9.8,98.4-29.1,144
	c-18.6,44.1-45.3,83.6-79.3,117.6s-73.5,60.7-117.6,79.3C468.4,730.2,419.9,740,370,740z M370,1c-49.8,0-98.1,9.8-143.6,29
	c-43.9,18.6-83.4,45.2-117.3,79.1S48.6,182.4,30,226.4C10.8,271.9,1,320.2,1,370s9.8,98.1,29,143.6c18.6,43.9,45.2,83.4,79.1,117.3
	c33.9,33.9,73.4,60.5,117.3,79.1c45.5,19.2,93.8,29,143.6,29s98.1-9.8,143.6-29c43.9-18.6,83.4-45.2,117.3-79.1
	c33.9-33.9,60.5-73.4,79.1-117.3c19.2-45.5,29-93.8,29-143.6s-9.8-98.1-29-143.6c-18.6-43.9-45.2-83.4-79.1-117.3
	C597,75.2,557.6,48.6,513.6,30C468.1,10.8,419.8,1,370,1z"/>
<rect x="848.5" y="108.6" transform="matrix(0.7071 -0.7071 0.7071 0.7071 63.1753 893.7803)" class="st0" width="524" height="524"/>
<path class="st1" d="M1110.5,741.2L740,370.6L1110.5,0.1L1481,370.6L1110.5,741.2z M741.4,370.6l369.1,369.1l369.1-369.1L1110.5,1.5
	L741.4,370.6z"/>
</svg>
