<?xml version="1.0" encoding="UTF-8"?>
<svg width="24px" height="24px" viewBox="0 0 24 24" version="1.1" xmlns="http://www.w3.org/2000/svg" xmlns:xlink="http://www.w3.org/1999/xlink">
    <!-- Generator: Sketch 54.1 (76490) - https://sketchapp.com -->
    <title>checkbox-active</title>
    <desc>Created with Sketch.</desc>
    <g id="checkbox-active" stroke="none" stroke-width="1" fill="none" fill-rule="evenodd">
        <g id="Controls-/checkbox-active" fill="#FC5A5A">
            <path d="M4.19615385,12.15 C4.06538462,12.02 4,11.825 4,11.695 C4,11.565 4.06538462,11.37 4.19615385,11.24 L5.11153846,10.33 C5.37307692,10.07 5.76538462,10.07 6.02692308,10.33 L6.09230769,10.395 L9.68846154,14.23 C9.81923077,14.36 10.0153846,14.36 10.1461538,14.23 L18.9076923,5.195 L18.9730769,5.195 L18.9730769,5.195 C19.2346154,4.935 19.6269231,4.935 19.8884615,5.195 L20.8038462,6.105 C21.0653846,6.365 21.0653846,6.755 20.8038462,7.015 L20.8038462,7.015 L10.3423077,17.805 C10.2115385,17.935 10.0807692,18 9.88461538,18 C9.68846154,18 9.55769231,17.935 9.42692308,17.805 L4.32692308,12.345 L4.19615385,12.15 Z" id="Path"></path>
        </g>
    </g>
</svg>