<?xml version="1.0" encoding="utf-8"?>
<!-- Generator: Adobe Illustrator 23.0.4, SVG Export Plug-In . SVG Version: 6.00 Build 0)  -->
<svg version="1.1" id="圖層_1" xmlns="http://www.w3.org/2000/svg" xmlns:xlink="http://www.w3.org/1999/xlink" x="0px" y="0px"
	 viewBox="0 0 19.7 25.2" style="enable-background:new 0 0 19.7 25.2;" xml:space="preserve">
<style type="text/css">
	.st0{fill:#FC5A5A;}
</style>
<path class="st0" d="M1.5,25.2c-0.8,0-1.5-0.7-1.5-1.5V1.5c0-0.6,0.3-1.1,0.8-1.3c0.5-0.3,1.1-0.2,1.6,0.1L19,11.9
	c0.4,0.3,0.7,0.8,0.6,1.3c0,0.5-0.3,1-0.7,1.2L6.7,22.2c-0.7,0.4-1.6,0.2-2.1-0.5c-0.4-0.7-0.2-1.6,0.5-2.1l10.3-6.6L3,4.4v19.3
	C3,24.6,2.3,25.2,1.5,25.2z"/>
</svg>
