<?xml version="1.0" encoding="utf-8"?>
<!-- Generator: Adobe Illustrator 23.0.6, SVG Export Plug-In . SVG Version: 6.00 Build 0)  -->
<svg version="1.1" id="圖層_1" xmlns="http://www.w3.org/2000/svg" xmlns:xlink="http://www.w3.org/1999/xlink" x="0px" y="0px"
	 viewBox="0 0 30 22" style="enable-background:new 0 0 30 22;" xml:space="preserve">
<style type="text/css">
	.st0{display:none;}
	.st1{display:inline;fill:#E5E5E5;}
	.st2{fill:#E5E5E5;}
</style>
<g class="st0">
	<path class="st1" d="M16.2,1c-0.5-0.3-1.1-0.3-1.6,0c0,0-0.1,0-0.1,0.1L8.7,6H4.1C3.7,6,3.4,6.3,3.4,6.7V15c0,0.2,0.1,0.4,0.2,0.5
		c0.1,0.1,0.3,0.2,0.5,0.2h4.5l5.8,5.3l0.1,0.1c0.2,0.2,0.5,0.2,0.8,0.2s0.5-0.1,0.8-0.2c0.5-0.3,0.8-0.8,0.8-1.4V2.4
		C17,1.8,16.7,1.2,16.2,1z M8.9,12.1c-0.4,0-0.7,0.3-0.7,0.7v1.5H4.8v-7h3.4v1.5c0,0.4,0.3,0.7,0.7,0.7s0.7-0.3,0.7-0.7V7l5.7-4.8
		c0.1,0,0.1,0,0.2,0c0.1,0,0.1,0.1,0.1,0.2v17.3c0,0.1,0,0.2-0.1,0.2c0,0-0.1,0-0.2,0l-5.7-5.3v-1.9C9.6,12.4,9.3,12.1,8.9,12.1z"/>
	<path class="st1" d="M20.6,2.5c-0.4-0.1-0.7,0.1-0.9,0.4c-0.1,0.2,0,0.4,0,0.5c0.1,0.2,0.2,0.3,0.4,0.3c3,1,5,3.8,5,7
		c0,3.1-2,5.9-5,7c-0.4,0.1-0.5,0.5-0.4,0.9c0.1,0.3,0.4,0.5,0.6,0.5c0.1,0,0.2,0,0.2,0c3.5-1.2,5.9-4.5,5.9-8.3
		C26.6,7,24.2,3.7,20.6,2.5z"/>
	<path class="st1" d="M22.6,10.8c0-2.7-1.8-5.1-4.4-5.9c-0.4-0.1-0.7,0.1-0.8,0.5c-0.1,0.2,0,0.4,0.1,0.5c0.1,0.2,0.2,0.3,0.4,0.3
		c2,0.6,3.4,2.5,3.4,4.6s-1.4,4-3.4,4.6c-0.2,0.1-0.3,0.2-0.4,0.3s-0.1,0.3-0.1,0.5c0.1,0.3,0.4,0.5,0.7,0.5c0.1,0,0.1,0,0.2,0
		C20.8,15.9,22.6,13.5,22.6,10.8z"/>
</g>
<g>
	<path class="st2" d="M17,1.1c-0.6-0.3-1.2-0.3-1.8,0.1L7.9,6.1H5.2c-0.7,0-1.3,0.5-1.4,1.2H3.4C2.1,7.3,1,8.4,1,9.7v2.6
		c0,1.3,1.1,2.4,2.4,2.4h0.4c0.1,0.7,0.7,1.2,1.4,1.2h2.8l7.3,4.9c0.8,0.5,1.8,0.3,2.4-0.5c0.2-0.3,0.3-0.6,0.3-0.9V2.6
		C17.9,2,17.6,1.4,17,1.1z M3.8,13.3H3.4c-0.6,0-1-0.5-1-1V9.7c0-0.6,0.5-1,1-1h0.4V13.3z M7.5,14.6H5.2c0,0,0,0,0,0V7.4
		c0,0,0,0,0,0h2.3V14.6z M16.4,19.7c-0.1,0.1-0.3,0.1-0.4,0l-7.2-4.8V7.1L16,2.3c0.1-0.1,0.2-0.1,0.4,0c0.1,0.1,0.2,0.2,0.2,0.3
		l0,16.8C16.6,19.5,16.5,19.6,16.4,19.7z"/>
	<path class="st2" d="M20.7,7.8c-0.3,0.2-0.3,0.6,0,0.9c1.3,1.4,1.3,3.4,0,4.8c-0.1,0.1-0.2,0.3-0.2,0.4c0,0.3,0.3,0.6,0.6,0.6
		c0.2,0,0.4-0.1,0.5-0.2c1.6-1.9,1.6-4.7-0.1-6.5C21.3,7.5,20.9,7.5,20.7,7.8z"/>
	<path class="st2" d="M24,6.2c-0.2-0.3-0.6-0.3-0.9,0c-0.3,0.2-0.3,0.6,0,0.9c2.1,2.2,2.1,5.6,0.1,7.9C23,15.1,23,15.2,23,15.4
		c0,0.3,0.3,0.6,0.6,0.6c0.2,0,0.3-0.1,0.5-0.2C26.5,13.1,26.5,8.9,24,6.2z"/>
	<path class="st2" d="M26.4,4.4c-0.2-0.3-0.6-0.3-0.9,0c-0.3,0.2-0.3,0.6,0,0.9c3,3.2,3,8.2,0.1,11.5c-0.1,0.1-0.2,0.3-0.2,0.4
		c0,0.3,0.3,0.6,0.6,0.6c0.2,0,0.3-0.1,0.5-0.2C29.9,13.8,29.8,8.1,26.4,4.4z"/>
</g>
</svg>
