<?xml version="1.0" encoding="utf-8"?>
<!-- Generator: Adobe Illustrator 24.3.0, SVG Export Plug-In . SVG Version: 6.00 Build 0)  -->
<svg version="1.1" id="圖層_1" xmlns="http://www.w3.org/2000/svg" xmlns:xlink="http://www.w3.org/1999/xlink" x="0px" y="0px"
	 viewBox="0 0 60 60" style="enable-background:new 0 0 60 60;" xml:space="preserve">
<style type="text/css">
	.st0{fill-rule:evenodd;clip-rule:evenodd;fill:#FD5A5A;}
	.st1{enable-background:new    ;}
	.st2{fill:#FFFFFF;}
</style>
<g id="_x32_02008_x5F_新書快讀-優化2_1_">
	<g id="_x34_-1_x5F_搜尋結果_x3001_試閱icon_1_" transform="translate(-220.000000, -682.000000)">
		<g id="item-copy_1_" transform="translate(220.000000, 682.000000)">
			<polygon id="Rectangle_1_" class="st0" points="0,34.1 33.6,0 58.7,0 0,60 			"/>
			<g class="st1">
				<path class="st2" d="M8,35.6l-2.8,2.8l-0.6-0.6L6,36.4c-0.4-0.2-1.2-0.4-1.7-0.5l0.3-0.9c0.6,0.1,1.3,0.3,1.7,0.5l-0.3,1L7.4,35
					L8,35.6z M9,36.8l-2.3,2.3l-0.6-0.6l2.3-2.3L9,36.8z M7.2,39.6l2.3-2.3l0.6,0.6l-2.3,2.3L7.2,39.6z M11.7,32.5
					c2.7,2.6,5.1,4.3,5.5,3.9c0.1-0.1-0.2-0.6-1.1-1.5c0.3,0,0.8-0.1,1-0.2c1.2,1.4,1.4,2,0.8,2.6c-1,1-3.8-1.1-6.9-4l-2.5,2.5
					l-0.7-0.7l2.4-2.4c-0.5-0.5-1.1-1-1.6-1.6l0.8-0.8c0.5,0.6,1.1,1.1,1.6,1.6l1.6-1.6l0.7,0.7L11.7,32.5z M13.1,40.9l-1.6,1.6
					l0.4,0.4l-0.7,0.7l-2.9-2.9l2.3-2.3L13.1,40.9z M14.5,36.6l0.8,0.6c-0.6,1.2-1.3,2.4-1.9,3.3l-1-0.6c0.2-0.3,0.5-0.7,0.7-1.2
					L11,36.7l-0.8,0.8l-0.7-0.7l2.3-2.3l0.7,0.7L11.8,36l1.9,1.9L14.5,36.6z M9.7,40.7l1.2,1.2l1-0.9l-1.2-1.2L9.7,40.7z M11.7,30.9
					c-0.4-0.2-1.2-0.3-1.8-0.4l0.2-0.8c0.6,0,1.3,0.1,1.8,0.3L11.7,30.9z"/>
				<path class="st2" d="M15.5,29.5l5,5l-0.7,0.7l-7.5-7.5l3.1-3.1l2.5,2.5L15.5,29.5z M13.6,27.6L14,28l1.7-1.7l-0.4-0.4L13.6,27.6
					z M16.6,27.3l-0.5-0.5l-1.7,1.7L15,29L16.6,27.3z M25.9,27.3c0.4,0.4,0.5,0.7,0.4,1c-0.1,0.4-0.5,0.7-1,1.2
					c-0.2-0.1-0.4-0.3-0.7-0.4c0,0.2-0.1,0.4-0.3,0.6l-0.6,0.6c-0.6,0.6-0.9,0.5-1.5,0l-0.9-0.9l-0.6,0.6c0.7,1,0.9,1.9,0.2,3.3
					c-0.2-0.1-0.7-0.2-0.9-0.2c0.7-1.1,0.6-1.8,0.1-2.5l-0.5,0.5l-1.4-1.4c-0.1,0.2-0.1,0.5-0.2,0.7c-0.2,0-0.6,0-0.9,0.1
					c0.3-0.9,0.5-2.1,0.4-2.8l0.8-0.4c0.1,0.6,0.1,1.3-0.1,2l2.8-2.8c-0.7,0.1-1.4,0.2-2.1,0.4l0.1-0.8c1-0.2,2.3-0.4,3-0.5L22,26.7
					c-0.2,0-0.5,0-0.8,0l1.5,1.5L22,28.9l0.8,0.8c0.2,0.2,0.2,0.2,0.4,0l0.4-0.4c0.1-0.1,0.1-0.2-0.4-0.8c0.2,0,0.6-0.2,0.8-0.3
					c0.2,0.3,0.4,0.5,0.5,0.7c0.3-0.3,0.5-0.5,0.6-0.6c0.1-0.1,0.1-0.2,0-0.3L21,24l-2.5,2.5L16.1,24l3.2-3.2L25.9,27.3z M17.4,23.8
					l0.5,0.5l1.7-1.7l-0.5-0.5L17.4,23.8z M20.5,23.5L20,23l-1.7,1.7l0.5,0.5L20.5,23.5z M19.7,30.3l1.9-1.9L21,27.7l-1.9,1.9
					L19.7,30.3z"/>
				<path class="st2" d="M31.2,15l0.9,0.9l-7.7,7.7l-0.9-0.9L31.2,15z"/>
				<path class="st2" d="M32,12.1c0,0.4,0,0.8-0.1,1.2c-0.3,0-0.8,0-1.1,0c0.2-1.6,0-3.2-0.3-4.3l1-0.7c0.1,0.4,0.2,0.8,0.3,1.2
					l1.6-1.6c-0.3-0.1-0.7-0.3-1-0.4l0.5-0.9c0.4,0.1,1,0.3,1.3,0.5l2.5-2.5l0.6,0.6l-2.7,2.7l0.5,0.5l2.3-2.3l0.5,0.5l-2.3,2.3
					l0.5,0.5L38.4,7l0.5,0.5l-2.3,2.3l0.5,0.5L40,7.5l0.6,0.6l-5.5,5.5l0.2,0.2l-0.8,0.8L32,12.1z M33.8,8.6L32,10.5l0.5,0.5
					l1.9-1.9L33.8,8.6z M34.9,9.6L33,11.5l0.5,0.5l1.9-1.9L34.9,9.6z M41.4,8.5l0.6,0.6l-3.4,3.4l1.9,1.9l-0.8,0.8l-1.9-1.9
					l-3.4,3.4L33.9,16l3.4-3.4l-0.5-0.5l0.8-0.8l0.5,0.5L41.4,8.5z M35.9,10.6L34,12.5l0.5,0.5l1.9-1.9L35.9,10.6z M38,14.3
					c-0.1,1.1-0.7,2.6-1.4,3.6c-0.3-0.1-0.8-0.1-1.1-0.1c0.7-1,1.4-2.3,1.6-3.2L38,14.3z M39.8,11.9c1-0.5,2.5-1.3,3.4-1.6l0.1,1
					c-0.8,0.3-2.3,1-3.4,1.5L39.8,11.9z"/>
			</g>
		</g>
	</g>
</g>
</svg>
