<?xml version="1.0" encoding="UTF-8"?>
<svg width="100px" height="100px" viewBox="0 0 100 100" version="1.1" xmlns="http://www.w3.org/2000/svg" xmlns:xlink="http://www.w3.org/1999/xlink">
    <!-- Generator: Sketch 54.1 (76490) - https://sketchapp.com -->
    <title>Group</title>
    <desc>Created with Sketch.</desc>
    <g id="Desktop" stroke="none" stroke-width="1" fill="none" fill-rule="evenodd">
        <g id="4.0.1-搜尋結果/{空資料}" transform="translate(-670.000000, -435.000000)">
            <g id="作者" transform="translate(187.000000, 354.000000)">
                <g id="info" transform="translate(0.000000, 81.000000)">
                    <g id="Group" transform="translate(483.000000, 0.000000)">
                        <g id="icon/system/search">
                            <rect id="Rectangle" fill="#FFFFFF" opacity="0" x="0" y="0" width="100" height="100"></rect>
                            <path d="M58.3506212,68.0052758 C52.3549,72.1255738 45.0933229,74.537037 37.2685185,74.537037 C16.6856841,74.537037 0,57.8513529 0,37.2685185 C0,16.6856841 16.6856841,0 37.2685185,0 C57.8513529,0 74.537037,16.6856841 74.537037,37.2685185 C74.537037,47.0007423 70.8066162,55.8616797 64.6976648,62.4994402 L98.6057633,92.7229084 C100.323604,94.2540792 100.474929,96.8879231 98.9437582,98.6057633 C97.4125875,100.323604 94.7787436,100.474929 93.0609034,98.9437582 L58.3506212,68.0052758 Z M37.2685185,66.2037037 C53.24898,66.2037037 66.2037037,53.24898 66.2037037,37.2685185 C66.2037037,21.288057 53.24898,8.33333333 37.2685185,8.33333333 C21.288057,8.33333333 8.33333333,21.288057 8.33333333,37.2685185 C8.33333333,53.24898 21.288057,66.2037037 37.2685185,66.2037037 Z" id="Combined-Shape" fill="#888888"></path>
                        </g>
                        <path d="M40.5942383,43.8330078 L35.6723633,43.8330078 L34.9750977,23.140625 L41.2915039,23.140625 L40.5942383,43.8330078 Z M38.1333008,47.0732422 C39.1313526,47.0732422 39.9345673,47.3671846 40.5429688,47.9550781 C41.1513702,48.5429717 41.4555664,49.2949173 41.4555664,50.2109375 C41.4555664,51.1132858 41.1513702,51.8583955 40.5429688,52.4462891 C39.9345673,53.0341826 39.1313526,53.328125 38.1333008,53.328125 C37.1489209,53.328125 36.3525421,53.0341826 35.7441406,52.4462891 C35.1357391,51.8583955 34.831543,51.1132858 34.831543,50.2109375 C34.831543,49.3085892 35.1357391,48.5600616 35.7441406,47.965332 C36.3525421,47.3706025 37.1489209,47.0732422 38.1333008,47.0732422 Z" id="!" fill="#888888" fill-rule="nonzero"></path>
                    </g>
                </g>
            </g>
        </g>
    </g>
</svg>