<?xml version="1.0" encoding="UTF-8"?>
<svg width="9px" height="5px" viewBox="0 0 9 5" version="1.1" xmlns="http://www.w3.org/2000/svg" xmlns:xlink="http://www.w3.org/1999/xlink">
    <!-- Generator: Sketch 55 (78076) - https://sketchapp.com -->
    <title>Path</title>
    <desc>Created with Sketch.</desc>
    <g id="Symbols" stroke="none" stroke-width="1" fill="none" fill-rule="evenodd">
        <g id="Controls/select" transform="translate(-205.000000, -23.000000)" fill="#171717">
            <g id="Path">
                <path d="M213.832937,23.1649063 C213.721684,23.0549384 213.589806,23 213.437427,23 L205.562542,23 C205.410101,23 205.278316,23.0549384 205.166971,23.1649063 C205.055626,23.2749959 205,23.4051515 205,23.5556164 C205,23.7060508 205.055626,23.8362064 205.166971,23.9462048 L209.104429,27.8349721 C209.215897,27.94494 209.347682,28 209.5,28 C209.652318,28 209.784226,27.94494 209.895479,27.8349721 L213.832937,23.9461744 C213.944158,23.8362064 214,23.7060508 214,23.555586 C214,23.4051515 213.944158,23.2749959 213.832937,23.1649063 Z"></path>
            </g>
        </g>
    </g>
</svg>