<?xml version="1.0" encoding="UTF-8"?>
<svg width="116px" height="96px" viewBox="0 0 116 96" version="1.1" xmlns="http://www.w3.org/2000/svg" xmlns:xlink="http://www.w3.org/1999/xlink">
    <!-- Generator: Sketch 62 (91390) - https://sketch.com -->
    <title>Combined Shape</title>
    <desc>Created with Sketch.</desc>
    <g id="202001_新書快讀-優化" stroke="none" stroke-width="1" fill="none" fill-rule="evenodd">
        <g id="1A_付款完成" transform="translate(-269.000000, -186.000000)" fill="#DBD3B4">
            <g id="main" transform="translate(187.000000, 140.000000)">
                <g id="content">
                    <g id="Group-3" transform="translate(50.000000, 30.000000)">
                        <g id="002-commerce-and-shopping">
                            <path d="M124.125977,16 C137.290164,16 148,26.7631568 148,39.9928847 C148,52.3765147 138.615781,62.5984512 126.618617,63.8553027 L126.618617,63.8553027 L120.524766,82.2278755 C120.062125,83.6224797 118.763695,84.5632968 117.300781,84.5632968 L117.300781,84.5632968 L74.41975,84.5632968 L76.9774141,91.4509339 L110.475133,91.4509339 C116.112461,91.4509339 120.698766,96.0600723 120.698766,101.725467 C120.698766,107.390862 116.112461,112 110.475133,112 C104.837805,112 100.2515,107.390862 100.2515,101.725467 C100.2515,100.517797 100.461523,99.3588521 100.844187,98.2816484 L100.844187,98.2816484 L85.9803281,98.2816484 C86.3629922,99.3588521 86.5730156,100.517797 86.5730156,101.725467 C86.5730156,107.390862 81.9867109,112 76.3493828,112 C70.7120547,112 66.12575,107.390862 66.12575,101.725467 C66.12575,98.2761838 67.8276875,95.2205775 70.4302109,93.3562479 L70.4302109,93.3562479 L48.2751172,29.6898903 L35.3984375,29.6898903 C33.5215938,29.6898903 32,28.160721 32,26.2745331 C32,24.3883451 33.5215938,22.8591758 35.3984375,22.8591758 L35.3984375,22.8591758 L50.6064453,22.8591758 C52.0113594,22.8591758 53.2712734,23.727815 53.7769609,25.0450044 L53.7769609,25.0450044 L58.2053516,36.5775274 L100.494828,36.5775274 C102.149867,24.9598482 112.115445,16 124.125977,16 Z M76.3496094,98.2816484 C74.4600781,98.2816484 72.9228516,99.8265283 72.9228516,101.725467 C72.9228516,103.624406 74.4600781,105.169286 76.3496094,105.169286 C78.2391406,105.169286 79.7763672,103.624406 79.7763672,101.725467 C79.7763672,99.8265283 78.2391406,98.2816484 76.3496094,98.2816484 Z M110.475586,98.2816484 C108.586055,98.2816484 107.048828,99.8265283 107.048828,101.725467 C107.048828,103.624406 108.586055,105.169286 110.475586,105.169286 C112.365117,105.169286 113.902344,103.624406 113.902344,101.725467 C113.902344,99.8265283 112.365117,98.2816484 110.475586,98.2816484 Z M119.410984,63.9857693 L67.4144375,63.9857693 L71.9740078,77.7325823 L114.851414,77.7325823 L119.410984,63.9857693 Z M124.125977,22.8307145 C114.709586,22.8307145 107.048828,30.5296128 107.048828,39.9928847 C107.048828,49.4561565 114.709586,57.1550548 124.125977,57.1550548 C133.542367,57.1550548 141.203125,49.4563842 141.203125,39.9928847 C141.203125,30.5293851 133.542367,22.8307145 124.125977,22.8307145 Z M100.495055,43.4082419 L60.5892422,43.4082419 L65.1488125,57.1550548 L107.460945,57.1550548 C103.783156,53.5472991 101.257211,48.7601067 100.495055,43.4082419 L100.495055,43.4082419 Z M127.309725,34.7405271 C128.815099,33.2351539 131.143617,33.1228021 132.510408,34.4895924 C133.877198,35.8563826 133.764846,38.1849014 132.259473,39.6902745 L132.259473,39.6902745 L125.690275,46.2594729 C124.184901,47.7648461 121.856383,47.8771979 120.489592,46.5104076 C120.089494,46.110309 119.816143,45.6277998 119.667379,45.1076516 L117,42 C115.760281,40.7602809 115.8633,38.6471331 117.23009,37.2803428 C118.596881,35.9135526 120.710028,35.8105335 121.949747,37.0502525 L121.949747,37.0502525 L123.358,38.691 Z" id="Combined-Shape"></path>
                        </g>
                    </g>
                </g>
            </g>
        </g>
    </g>
</svg>