<?xml version="1.0" encoding="UTF-8"?>
<svg width="17px" height="13px" viewBox="0 0 17 13" version="1.1" xmlns="http://www.w3.org/2000/svg" xmlns:xlink="http://www.w3.org/1999/xlink">
    <!-- Generator: Sketch 62 (91390) - https://sketch.com -->
    <title>Path</title>
    <desc>Created with Sketch.</desc>
    <g id="202001_新書快讀-優化" stroke="none" stroke-width="1" fill="none" fill-rule="evenodd">
        <g id="1B-1_到期提醒Popup" transform="translate(-385.000000, -552.000000)" fill="#FFFFFF">
            <g id="popup" transform="translate(320.000000, 308.000000)">
                <g id="box">
                    <g id="Group-3" transform="translate(60.000000, 74.000000)">
                        <path d="M5.19615385,177.15 C5.06538462,177.02 5,176.825 5,176.695 C5,176.565 5.06538462,176.37 5.19615385,176.24 L6.11153846,175.33 C6.37307692,175.07 6.76538462,175.07 7.02692308,175.33 L7.09230769,175.395 L10.6884615,179.23 C10.8192308,179.36 11.0153846,179.36 11.1461538,179.23 L19.9076923,170.195 L19.9730769,170.195 L19.9730769,170.195 C20.2346154,169.935 20.6269231,169.935 20.8884615,170.195 L21.8038462,171.105 C22.0653846,171.365 22.0653846,171.755 21.8038462,172.015 L21.8038462,172.015 L11.3423077,182.805 C11.2115385,182.935 11.0807692,183 10.8846154,183 C10.6884615,183 10.5576923,182.935 10.4269231,182.805 L5.32692308,177.345 L5.19615385,177.15 Z" id="Path"></path>
                    </g>
                </g>
            </g>
        </g>
    </g>
</svg>