<?xml version="1.0" encoding="utf-8"?>
<!-- Generator: Adobe Illustrator 23.0.6, SVG Export Plug-In . SVG Version: 6.00 Build 0)  -->
<svg version="1.1" id="圖層_1" xmlns="http://www.w3.org/2000/svg" xmlns:xlink="http://www.w3.org/1999/xlink" x="0px" y="0px"
	 viewBox="0 0 24 24" style="enable-background:new 0 0 24 24;" xml:space="preserve">
<style type="text/css">
	.st0{fill:#FF4940;}
</style>
<title>資產 2</title>
<g>
	<path class="st0" d="M9.5,8C9.2,8,9,8.2,9,8.5v7C9,15.8,9.2,16,9.5,16s0.5-0.2,0.5-0.5v-7C10,8.2,9.8,8,9.5,8z"/>
	<path class="st0" d="M14.5,8C14.2,8,14,8.2,14,8.5v7c0,0.3,0.2,0.5,0.5,0.5s0.5-0.2,0.5-0.5v-7C15,8.2,14.8,8,14.5,8z"/>
	<path class="st0" d="M12,0C5.4,0,0,5.4,0,12s5.4,12,12,12s12-5.4,12-12S18.6,0,12,0z M12,23.5C5.7,23.5,0.5,18.3,0.5,12
		S5.7,0.5,12,0.5S23.5,5.7,23.5,12S18.3,23.5,12,23.5z"/>
</g>
</svg>
