<?xml version="1.0" encoding="UTF-8"?>
<svg width="20px" height="20px" viewBox="0 0 20 20" version="1.1" xmlns="http://www.w3.org/2000/svg" xmlns:xlink="http://www.w3.org/1999/xlink">
    <!-- Generator: Sketch 62 (91390) - https://sketch.com -->
    <title>export</title>
    <desc>Created with Sketch.</desc>
    <g id="Desktop" stroke="none" stroke-width="1" fill="none" fill-rule="evenodd">
        <g id="新增-會員-學員搜尋" transform="translate(-1173.000000, -230.000000)" fill="#444444" fill-rule="nonzero">
            <g id="searchbar" transform="translate(1173.000000, 228.000000)">
                <g id="export" transform="translate(0.000000, 2.000000)">
                    <path d="M10.1930859,2 C10.6228517,2 10.9711644,2.34835302 10.9711644,2.77811878 C10.9711644,3.20788455 10.6228517,3.55619724 10.1930859,3.55619724 L10.1930859,3.55619724 L1.55619724,3.55619724 L1.55619724,18.4438028 L16.4438028,18.4438028 L16.4438028,9.8069141 C16.4438028,9.37714834 16.7921558,9.02883564 17.2219215,9.02883564 C17.6516873,9.02883564 18,9.37714834 18,9.8069141 L18,9.8069141 L18,19.2218812 C18,19.6516873 17.6519292,20 17.2219215,20 L17.2219215,20 L0.778118783,20 C0.348312694,20 0,19.6516873 0,19.2219215 L0,19.2219215 L0,2.77811878 C0,2.34831269 0.348312694,2 0.778118783,2 L0.778118783,2 Z M19.2418533,0 C19.6606275,0 20,0.339372509 20,0.758146714 L20,0.758146714 L20,6.24189257 C20,6.66062749 19.6605882,7 19.2418533,7 C18.8231184,7 18.4837459,6.66062749 18.4837459,6.24189257 L18.4837459,6.24189257 L18.483,2.646 L8.36424406,12.7658346 C8.23933426,12.8907118 8.08341237,12.9656513 7.92143649,12.9906321 L7.79920944,13 C7.5946158,13 7.39002216,12.9219311 7.23417482,12.7658346 C6.92194173,12.4538902 6.92194173,11.9477467 7.23417482,11.6358023 L7.23417482,11.6358023 L17.353,1.516 L13.7581074,1.51625414 C13.3742671,1.51625414 13.0571132,1.23108696 13.0069198,0.861026591 L13,0.758146714 C13,0.339372509 13.3393725,0 13.7581074,0 L13.7581074,0 Z" id="Combined-Shape"></path>
                </g>
            </g>
        </g>
    </g>
</svg>