<?xml version="1.0" encoding="UTF-8"?>
<svg width="340px" height="340px" viewBox="0 0 340 340" version="1.1" xmlns="http://www.w3.org/2000/svg" xmlns:xlink="http://www.w3.org/1999/xlink">
    <!-- Generator: Sketch 54.1 (76490) - https://sketchapp.com -->
    <title>Group</title>
    <desc>Created with Sketch.</desc>
    <g id="Desktop" stroke="none" stroke-width="1" fill="none" fill-rule="evenodd">
        <g id="8-404" transform="translate(-550.000000, -273.000000)" fill="#FC5A5A">
            <g id="Group" transform="translate(535.000000, 258.000000)">
                <g id="icon/system/defualt/message">
                    <path d="M15.4166667,154.166667 C15.4166667,76.6859257 92.0032404,15.4166667 185,15.4166667 C277.99676,15.4166667 354.583333,76.6859257 354.583333,154.166667 C354.583333,220.32452 298.284032,275.828172 221.875773,289.6376 L133.091109,351.968764 C122.518634,359.391156 108.0531,351.299196 108.845236,338.405723 L112.454243,279.66252 C54.2863711,257.201337 15.4166667,209.052037 15.4166667,154.166667 Z M206.994074,262.412138 C208.899057,261.074747 211.082138,260.18606 213.379572,259.812735 C277.744143,249.353716 323.75,204.819444 323.75,154.166667 C323.75,95.4171694 262.291038,46.25 185,46.25 C107.708962,46.25 46.25,95.4171694 46.25,154.166667 C46.25,198.000189 80.7088172,237.741868 133.187322,254.267417 C139.941833,256.394422 144.378658,262.849432 143.944411,269.9176 L141.584283,308.333 L206.994074,262.412138 Z" id="system-icons/defualt/message"></path>
                </g>
                <path d="M137.625,168.660156 L146.296875,168.660156 L146.296875,183.894531 L137.625,183.894531 L137.625,202 L117.878906,202 L117.878906,183.894531 L84.890625,183.894531 L83.71875,171.824219 L117.878906,116.863281 L117.878906,116.6875 L137.625,116.6875 L137.625,168.660156 Z M102.527344,168.660156 L117.878906,168.660156 L117.878906,142.410156 L116.648438,144.402344 L102.527344,168.660156 Z M214.207031,167.136719 C214.207031,178.660214 211.619167,187.546844 206.443359,193.796875 C201.267552,200.046906 193.972703,203.171875 184.558594,203.171875 C175.066359,203.171875 167.722682,200.027375 162.527344,193.738281 C157.332005,187.449187 154.734375,178.582088 154.734375,167.136719 L154.734375,151.550781 C154.734375,140.027286 157.32224,131.140656 162.498047,124.890625 C167.673854,118.640594 174.988234,115.515625 184.441406,115.515625 C193.894579,115.515625 201.218724,118.660125 206.414062,124.949219 C211.609401,131.238313 214.207031,140.124943 214.207031,151.609375 L214.207031,167.136719 Z M194.460938,149.03125 C194.460938,142.898407 193.660164,138.318375 192.058594,135.291016 C190.457023,132.263657 187.917986,130.75 184.441406,130.75 C181.042952,130.75 178.572273,132.156236 177.029297,134.96875 C175.48632,137.781264 174.656251,142.039034 174.539062,147.742188 L174.539062,169.539062 C174.539062,175.906282 175.339836,180.564438 176.941406,183.513672 C178.542977,186.462905 181.082014,187.9375 184.558594,187.9375 C187.917986,187.9375 190.398429,186.501967 192,183.630859 C193.601571,180.759751 194.421875,176.257843 194.460938,170.125 L194.460938,149.03125 Z M276.609375,168.660156 L285.28125,168.660156 L285.28125,183.894531 L276.609375,183.894531 L276.609375,202 L256.863281,202 L256.863281,183.894531 L223.875,183.894531 L222.703125,171.824219 L256.863281,116.863281 L256.863281,116.6875 L276.609375,116.6875 L276.609375,168.660156 Z M241.511719,168.660156 L256.863281,168.660156 L256.863281,142.410156 L255.632812,144.402344 L241.511719,168.660156 Z" id="404" fill-rule="nonzero"></path>
            </g>
        </g>
    </g>
</svg>