<?xml version="1.0" encoding="UTF-8"?>
<svg width="24px" height="24px" viewBox="0 0 24 24" version="1.1" xmlns="http://www.w3.org/2000/svg" xmlns:xlink="http://www.w3.org/1999/xlink">
    <!-- Generator: Sketch 62 (91390) - https://sketch.com -->
    <title>share</title>
    <desc>Created with Sketch.</desc>
    <g id="202001_新書快讀-優化" stroke="none" stroke-width="1" fill="none" fill-rule="evenodd">
        <g id="2D_付款方式" transform="translate(-1033.000000, -1184.000000)" fill="#FFFFFF">
            <g id="main" transform="translate(187.000000, 140.000000)">
                <g id="content" transform="translate(243.000000, 0.000000)">
                    <g id="Group-4" transform="translate(50.000000, 464.000000)">
                        <g id="share" transform="translate(553.000000, 580.000000)">
                            <path d="M6,4 C6.55297851,4 6.99993899,4.44696317 6.99993899,4.99994506 C6.99993899,5.55292695 6.55297851,5.99989011 6,5.99989011 L3,5.99989011 C2.44793699,5.99989011 1.99987794,6.44795194 1.99987794,7.00001831 L1.99987794,20.9999817 C1.99987794,21.5520481 2.44793699,22.0001099 3,22.0001099 L21,22.0001099 C21.5518799,22.0001099 21.999939,21.5520481 21.999939,20.9999817 L21.999939,13.0000549 C21.999939,12.4470731 22.4468994,11.9999267 22.999878,11.9999267 C23.5530396,11.9999267 24,12.4470731 24,13.0000549 L24,20.9999817 C24,22.6541666 22.6539917,24 21,24 L3,24 C1.3460083,24 0,22.6541666 0,20.9999817 L0,7.00001831 C0,5.34601653 1.3460083,4 3,4 L6,4 Z M16.4699973,0.0542352982 C16.752896,-0.0597468165 17.077909,0.00933882703 17.2899457,0.229423207 L17.2899457,0.229423207 L23.7900233,6.98478624 C24.0699922,7.27707152 24.0699922,7.73538214 23.7900233,8.02656788 L23.7900233,8.02656788 L17.2899457,14.7819309 C17.077909,15.0021986 16.7510649,15.0722004 16.4699973,14.9571188 C16.186,14.8431368 15.9999644,14.5678938 15.9999644,14.2614982 L15.9999644,14.2614982 L15.9999644,11.0089771 L14.8119731,11.0089771 C11.6669456,11.0089771 8.83997306,12.7573744 7.43390258,15.5726588 C7.30298183,15.8337914 7.03198504,16 6.74890329,16 C6.69397151,16 6.63903973,15.9939527 6.58392486,15.9800257 C6.24499576,15.9008612 6,15.6105917 6,15.2624149 L6,15.2624149 L6,13.7612232 C6,8.38097525 10.3740346,4.00347654 15.7500248,4.00347654 L15.7500248,4.00347654 L15.9999644,4.00347654 L15.9999644,0.750772149 C15.9999644,0.444559799 16.186,0.169316895 16.4699973,0.0542352982 Z" id="Combined-Shape"></path>
                        </g>
                    </g>
                </g>
            </g>
        </g>
    </g>
</svg>