<?xml version="1.0" encoding="utf-8"?>
<!-- Generator: Adobe Illustrator 23.0.6, SVG Export Plug-In . SVG Version: 6.00 Build 0)  -->
<svg version="1.1" id="圖層_1" xmlns="http://www.w3.org/2000/svg" xmlns:xlink="http://www.w3.org/1999/xlink" x="0px" y="0px"
	 viewBox="0 0 24 24" style="enable-background:new 0 0 24 24;" xml:space="preserve">
<style type="text/css">
	.st0{fill:#FF4940;}
</style>
<title>資產 2</title>
<g>
	<g id="圖層_1-2">
		<path class="st0" d="M12,0C5.4,0,0,5.4,0,12s5.4,12,12,12s12-5.4,12-12S18.6,0,12,0z M12,23.5C5.6,23.5,0.5,18.4,0.5,12
			S5.6,0.5,12,0.5S23.5,5.6,23.5,12C23.5,18.3,18.3,23.5,12,23.5z"/>
		<path class="st0" d="M10.4,8C10.2,7.9,10,7.9,9.9,8C9.7,8.1,9.6,8.3,9.6,8.4v8c0,0.3,0.2,0.5,0.5,0.5s0.5-0.2,0.5-0.5v-7l4.6,3.2
			L11.4,15c-0.2,0.2-0.3,0.5-0.1,0.7c0.1,0.2,0.4,0.3,0.7,0.1l4.4-2.8c0.1-0.1,0.2-0.2,0.2-0.4c0-0.2-0.1-0.3-0.2-0.4L10.4,8z"/>
	</g>
</g>
</svg>
