<?xml version="1.0" encoding="UTF-8"?>
<svg width="54px" height="54px" viewBox="0 0 54 54" version="1.1" xmlns="http://www.w3.org/2000/svg" xmlns:xlink="http://www.w3.org/1999/xlink">
    <title>icon-quiz--b</title>
    <g id="202102_優化" stroke="none" stroke-width="1" fill="none" fill-rule="evenodd">
        <g id="5-2-1_專題測驗" transform="translate(-403.000000, -217.000000)" fill="#000000" fill-rule="nonzero">
            <g id="title" transform="translate(403.000000, 210.000000)">
                <g id="icon-quiz--b" transform="translate(0.000000, 7.000000)">
                    <path d="M36.2933673,6.43359375 L31.4821429,6.43359375 L31.4821429,4.74609375 C31.4821429,3.87239062 30.7797041,3.1640625 29.9132653,3.1640625 L24.9378316,3.1640625 C24.2903036,1.32247266 22.545398,0 20.5,0 C18.454602,0 16.7096964,1.32247266 16.0621684,3.1640625 L10.9821429,3.1640625 C10.1157041,3.1640625 9.41326531,3.87239062 9.41326531,4.74609375 L9.41326531,6.43359375 L4.70663265,6.43359375 C2.11139541,6.43359375 0,8.56269141 0,11.1796875 L0,49.2539062 C0,51.8709023 2.11139541,54 4.70663265,54 L36.2933673,54 C38.8886046,54 41,51.8709023 41,49.2539062 L41,11.1796875 C41,8.56269141 38.8886046,6.43359375 36.2933673,6.43359375 Z M12.5510204,6.328125 L17.3622449,6.328125 C18.2286837,6.328125 18.9311224,5.61979688 18.9311224,4.74609375 C18.9311224,3.87376172 19.6349209,3.1640625 20.5,3.1640625 C21.3650791,3.1640625 22.0688776,3.87376172 22.0688776,4.74609375 C22.0688776,5.61979688 22.7713163,6.328125 23.6377551,6.328125 L28.3443878,6.328125 L28.3443878,8.015625 C28.3443878,8.88795703 27.6405893,9.59765625 26.7755102,9.59765625 L14.119898,9.59765625 C13.2548189,9.59765625 12.5510204,8.88795703 12.5510204,8.015625 L12.5510204,6.328125 Z M37.8622449,49.2539062 C37.8622449,50.1262383 37.1584464,50.8359375 36.2933673,50.8359375 L4.70663265,50.8359375 C3.84155357,50.8359375 3.1377551,50.1262383 3.1377551,49.2539062 L3.1377551,11.1796875 C3.1377551,10.3073555 3.84155357,9.59765625 4.70663265,9.59765625 L9.68311224,9.59765625 C10.3307449,11.4390352 12.0746046,12.7617188 14.119898,12.7617188 L26.7755102,12.7617188 C28.8208036,12.7617188 30.5646633,11.4390352 31.2122959,9.59765625 L36.2933673,9.59765625 C37.1584464,9.59765625 37.8622449,10.3073555 37.8622449,11.1796875 L37.8622449,49.2539062 Z" id="Shape"></path>
                    <path d="M18.5373558,27.448154 C17.9133539,26.8575509 16.8929046,26.8496508 16.2583737,27.4306539 L10.8441261,32.3874806 L8.75111982,30.4393701 C8.12185347,29.853567 7.10140413,29.853567 6.47203034,30.4393701 C5.84265655,31.0251733 5.84265655,31.9748784 6.47203034,32.5606815 L9.69528794,35.5606976 C10.00976,35.8533992 10.4222157,36 10.834779,36 C11.2428298,36 11.6512029,35.8565992 11.9648154,35.5693977 L18.5185541,29.5693654 C19.1530849,28.9884623 19.1614651,28.0387572 18.5373558,27.448154 Z" id="Path"></path>
                    <path d="M18.5373558,38.448154 C17.9133539,37.8575509 16.8929046,37.8496508 16.2583737,38.4306539 L10.8441261,43.3874806 L8.75111982,41.4393701 C8.12185347,40.853567 7.10140413,40.853567 6.47203034,41.4393701 C5.84265655,42.0251733 5.84265655,42.9748784 6.47203034,43.5606815 L9.69528794,46.5606976 C10.00976,46.8533992 10.4222157,47 10.834779,47 C11.2428298,47 11.6512029,46.8565992 11.9648154,46.5693977 L18.5185541,40.5693654 C19.1530849,39.9884623 19.1614651,39.0387572 18.5373558,38.448154 Z" id="Path"></path>
                    <path d="M15.5606549,22.4393768 L13.6212764,20.4999687 L15.5605549,18.5606607 C16.1463484,17.9748582 16.1463484,17.0251543 15.5605549,16.4393518 C14.9748614,15.8535494 14.0250719,15.8535494 13.4392785,16.4393518 L11.5,18.3786599 L9.56062155,16.4393518 C8.97492806,15.8535494 8.02513861,15.8535494 7.43934512,16.4393518 C6.85355163,17.0251543 6.85355163,17.9748582 7.43934512,18.5606607 L9.37872357,20.4999687 L7.43944512,22.4392768 C6.85365163,23.0250793 6.85365163,23.9748832 7.43944512,24.5606857 C8.02513861,25.1463881 8.97492806,25.1464881 9.56072155,24.5606857 L11.5,22.6212776 L13.4393785,24.5606857 C14.0250719,25.1463881 14.9748614,25.1464881 15.5606549,24.5606857 C16.1464484,23.9748832 16.1464484,23.0251793 15.5606549,22.4393768 Z" id="Path"></path>
                    <path d="M33.3884298,19 L23.6115702,19 C22.7215537,19 22,19.6716 22,20.5 C22,21.3284 22.7215537,22 23.6115702,22 L33.3884298,22 C34.2784463,22 35,21.3284 35,20.5 C35,19.6716 34.2784463,19 33.3884298,19 Z" id="Path"></path>
                    <path d="M33.3884298,30 L23.6115702,30 C22.7215537,30 22,30.6716 22,31.5 C22,32.3284 22.7215537,33 23.6115702,33 L33.3884298,33 C34.2784463,33 35,32.3284 35,31.5 C35,30.6716 34.2784463,30 33.3884298,30 Z" id="Path"></path>
                    <path d="M33.3884298,41 L23.6115702,41 C22.7215537,41 22,41.6716 22,42.5 C22,43.3284 22.7215537,44 23.6115702,44 L33.3884298,44 C34.2784463,44 35,43.3284 35,42.5 C35,41.6716 34.2784463,41 33.3884298,41 Z" id="Path"></path>
                    <path d="M49.5,10 C47.0187,10 45,12.1167954 45,14.7186701 C45,15.7192379 45,38.8480614 45,39.8849105 C45,40.0541535 45.0289,40.2294783 45.0754,40.3774348 L48.0754,49.9196343 C48.2781,50.5643095 48.8525,51 49.5,51 C50.1475,51 50.7219,50.5643095 50.9246,49.9196343 L53.9246,40.3774348 C53.975,40.2167903 54,40.0385294 54,39.8849105 C54,38.8497391 54,15.7233274 54,14.7186701 C54,12.1167954 51.9813,10 49.5,10 Z M49.5,44.4034041 L48.2612,40.4632097 C48.6404,40.2614604 49.0624,40.1547136 49.5,40.1547136 C49.9376,40.1547136 50.3596,40.2614604 50.7388,40.4632097 L49.5,44.4034041 Z M51,37.2170793 C50.5168,37.080867 50.0138,37.0089335 49.5,37.0089335 C48.9862,37.0089335 48.4832,37.0807621 48,37.2170793 L48,22.5831202 L51,22.5831202 L51,37.2170793 Z M51,19.4373402 L48,19.4373402 L48,14.7186701 C48,13.8513785 48.6729,13.1457801 49.5,13.1457801 C50.3271,13.1457801 51,13.8513785 51,14.7186701 L51,19.4373402 Z" id="Shape"></path>
                </g>
            </g>
        </g>
    </g>
</svg>