<?xml version="1.0" encoding="utf-8"?>
<!-- Generator: Adobe Illustrator 23.0.6, SVG Export Plug-In . SVG Version: 6.00 Build 0)  -->
<svg version="1.1" id="圖層_1" xmlns="http://www.w3.org/2000/svg" xmlns:xlink="http://www.w3.org/1999/xlink" x="0px" y="0px"
	 viewBox="0 0 24 24" style="enable-background:new 0 0 24 24;" xml:space="preserve">
<style type="text/css">
	.st0{fill:#FF4940;}
</style>
<title>資產 2</title>
<g>
	<g>
		<path class="st0" d="M19,11.5c-0.3,0-0.5,0.2-0.5,0.5c0,3.6-2.9,6.5-6.5,6.5S5.5,15.6,5.5,12c0-3.5,2.7-6.3,6.2-6.5v0.8
			c0,0.2,0.1,0.4,0.3,0.4c0.1,0,0.2,0.1,0.2,0.1c0.1,0,0.2,0,0.3-0.1l1.9-1.3c0.1-0.1,0.2-0.3,0.2-0.4c0-0.2-0.1-0.3-0.2-0.4
			l-1.9-1.2c-0.2-0.1-0.3-0.1-0.5,0s-0.3,0.3-0.3,0.4v0.7C7.7,4.7,4.5,8,4.5,12c0,4.1,3.4,7.5,7.5,7.5s7.5-3.4,7.5-7.5
			C19.5,11.7,19.3,11.5,19,11.5z"/>
		<path class="st0" d="M10.7,14.5v-5h-0.4C10.2,9.7,10,10,9.8,10.2s-0.6,0.4-0.9,0.6v0.6c0.2-0.1,0.4-0.2,0.6-0.3
			c0.2-0.1,0.4-0.3,0.6-0.4v3.9h0.6V14.5z"/>
		<path class="st0" d="M15,10.2V9.6h-2.5L12,12.2l0.6,0.1c0.1-0.1,0.2-0.3,0.4-0.4c0.2-0.1,0.3-0.1,0.5-0.1c0.3,0,0.6,0.1,0.8,0.3
			s0.3,0.5,0.3,0.8c0,0.4-0.1,0.7-0.3,0.9s-0.5,0.3-0.8,0.3c-0.2,0-0.5-0.1-0.6-0.2c-0.2-0.2-0.3-0.4-0.3-0.7l-0.6,0
			c0,0.4,0.2,0.8,0.5,1c0.3,0.3,0.7,0.4,1.1,0.4c0.6,0,1-0.2,1.3-0.6c0.3-0.3,0.4-0.7,0.4-1.2s-0.2-0.9-0.5-1.2s-0.7-0.5-1.1-0.5
			c-0.3,0-0.6,0.1-0.9,0.3l0.3-1.3H15V10.2z"/>
	</g>
</g>
</svg>
