<?xml version="1.0" encoding="utf-8"?>
<!-- Generator: Adobe Illustrator 23.0.6, SVG Export Plug-In . SVG Version: 6.00 Build 0)  -->
<svg version="1.1" id="圖層_1" xmlns="http://www.w3.org/2000/svg" xmlns:xlink="http://www.w3.org/1999/xlink" x="0px" y="0px"
	 viewBox="0 0 24 24" style="enable-background:new 0 0 24 24;" xml:space="preserve">
<style type="text/css">
	.st0{fill:#FFFFFF;}
</style>
<title>資產 2</title>
<g>
	<path class="st0" d="M15.7,7.9c-0.2-0.1-0.4-0.1-0.5,0l-6,4.2c0,0-0.1,0.1-0.1,0.1V8.4c0-0.3-0.2-0.5-0.5-0.5S8.1,8.1,8.1,8.4v8
		c0,0.3,0.2,0.5,0.5,0.5s0.5-0.2,0.5-0.5v-3.5c0,0,0.1,0.1,0.1,0.1l4.4,2.8c0.2,0.1,0.5,0.1,0.7-0.2c0.1-0.2,0.1-0.5-0.2-0.7
		l-3.8-2.4l4.6-3.2v7c0,0.3,0.2,0.5,0.5,0.5s0.5-0.2,0.5-0.5v-8C15.9,8.2,15.8,8,15.7,7.9z"/>
</g>
</svg>
