<?xml version="1.0" encoding="UTF-8"?>
<svg width="50px" height="50px" viewBox="0 0 50 50" version="1.1" xmlns="http://www.w3.org/2000/svg" xmlns:xlink="http://www.w3.org/1999/xlink">
    <title>icon_quick-nav--4</title>
    <g id="202008_新書快讀-優化2" stroke="none" stroke-width="1" fill="none" fill-rule="evenodd">
        <g id="1-1-新書快讀_首頁" transform="translate(-1029.000000, -833.000000)" fill="#FFFFFF">
            <g id="Group-16" transform="translate(176.000000, 818.000000)">
                <g id="Group-15" transform="translate(812.000000, 0.000000)">
                    <path d="M76.9375,37 C81.2522461,37 84.75,40.4822083 84.75,44.7777778 C84.7442383,46.4662361 84.180957,48.1060833 83.146875,49.4444444 L83.146875,49.4444444 L83.1875,49.4444444 C87.5000977,49.4495972 90.9948242,52.9287917 91,57.2222222 L91,57.2222222 L91,65 L87.875,65 L87.875,57.2222222 C87.875,54.6448611 85.7763672,52.5555556 83.1875,52.5555556 L83.1875,52.5555556 L56.625,52.5555556 L56.625,55.6666667 L72.25,55.6666667 L72.25,65 L41,65 L41,61.8888889 L69.125,61.8888889 L69.125,58.7777778 L53.5,58.7777778 L53.5,49.4444444 L70.728125,49.4444444 C69.694043,48.1060833 69.1307617,46.4663333 69.125,44.7777778 C69.125,40.4822083 72.6227539,37 76.9375,37 Z M85,59 L85,65 L82,65 L82,59 L85,59 Z M69,15 L69,18.1428571 L44.1111111,18.1428571 L44.1111111,55.8571429 L50.3333333,55.8571429 L50.3333333,59 L41,59 L41,15 L69,15 Z M76.9375,40.1111111 C74.3486328,40.1111111 72.25,42.2004167 72.25,44.7777778 C72.25,47.3551389 74.3486328,49.4444444 76.9375,49.4444444 C79.5263672,49.4444444 81.625,47.3551389 81.625,44.7777778 C81.625,42.2004167 79.5263672,40.1111111 76.9375,40.1111111 Z M91,15 L91,48 L88,48 L88,18.1428571 L85,18.1428571 L85,15 L91,15 Z M66,42 L66,45 L47,45 L47,42 L66,42 Z M69,34 L69,37 L47,37 L47,34 L69,34 Z M85,26 L85,29 L47,29 L47,26 L85,26 Z M81,15 L81,18 L78,18 L78,15 L81,15 Z M75,15 L75,18 L72,18 L72,15 L75,15 Z" id="icon_quick-nav--4"></path>
                </g>
            </g>
        </g>
    </g>
</svg>