<?xml version="1.0" encoding="UTF-8"?>
<svg width="18px" height="19px" viewBox="0 0 18 19" version="1.1" xmlns="http://www.w3.org/2000/svg" xmlns:xlink="http://www.w3.org/1999/xlink">
    <!-- Generator: Sketch 62 (91390) - https://sketch.com -->
    <title>icons_close-W</title>
    <desc>Created with Sketch.</desc>
    <g id="202001_新書快讀-優化" stroke="none" stroke-width="1" fill="none" fill-rule="evenodd">
        <g id="1B-1_到期提醒Popup" transform="translate(-1079.000000, -331.000000)" fill="#FFFFFF">
            <g id="popup" transform="translate(320.000000, 308.000000)">
                <g id="box">
                    <g id="icon/system/close" transform="translate(756.000000, 20.000000)">
                        <path d="M3.51471863,4.01471863 C3.90524292,3.62419433 4.5384079,3.62419433 4.92893219,4.01471863 L4.92893219,4.01471863 L11.9998254,11.0848254 L19.0710678,4.01471863 C19.4615921,3.62419433 20.0947571,3.62419433 20.4852814,4.01471863 C20.8758057,4.40524292 20.8758057,5.0384079 20.4852814,5.42893219 L13.4138254,12.4998254 L20.4852814,19.5710678 C20.8457653,19.9315518 20.8734949,20.4987828 20.56847,20.891074 L20.4852814,20.9852814 C20.0947571,21.3758057 19.4615921,21.3758057 19.0710678,20.9852814 L19.0710678,20.9852814 L11.9998254,13.9138254 L4.92893219,20.9852814 C4.5384079,21.3758057 3.90524292,21.3758057 3.51471863,20.9852814 C3.12419433,20.5947571 3.12419433,19.9615921 3.51471863,19.5710678 L10.5848254,12.4998254 L3.51471863,5.42893219 C3.15423466,5.06844823 3.12650513,4.50121717 3.43153002,4.10892596 Z" id="Combined-Shape"></path>
                    </g>
                </g>
            </g>
        </g>
    </g>
</svg>