<?xml version="1.0" encoding="utf-8"?>
<!-- Generator: Adobe Illustrator 24.3.0, SVG Export Plug-In . SVG Version: 6.00 Build 0)  -->
<svg version="1.1" id="圖層_1" xmlns="http://www.w3.org/2000/svg" xmlns:xlink="http://www.w3.org/1999/xlink" x="0px" y="0px"
	 viewBox="0 0 18 27" style="enable-background:new 0 0 18 27;" xml:space="preserve">
<style type="text/css">
	.st0{enable-background:new    ;}
	.st1{fill:#C9C9C9;}
</style>
<g id="_x32_02008_x5F_新書快讀-優化2">
	<g id="_x32_-1_x5F_單集影音" transform="translate(-1005.000000, -372.000000)">
		<g id="Group-10" transform="translate(972.000000, 210.000000)">
			<g id="Group-Copy" transform="translate(16.000000, 124.000000)">
				<g id="icon_info-menu-done" transform="translate(17.000000, 38.000000)">
					<g class="st0">
						<path class="st1" d="M7.7,23.9c0.3,0,0.4-0.1,0.4-1.1c0.1,0.1,0.4,0.2,0.5,0.2c-0.1,1.1-0.2,1.4-0.9,1.4H6.5
							c-0.7,0-0.9-0.2-0.9-0.8v-2H4.2c-0.1,1.7-0.5,2.5-2.5,2.9c0-0.2-0.2-0.4-0.3-0.5c1.8-0.4,2.1-1,2.2-2.4H1.5v-0.6h7v0.6H6.2v2
							c0,0.2,0.1,0.3,0.4,0.3H7.7z M2.3,20H1.7v-1.8h3.1c-0.1-0.3-0.3-0.6-0.4-0.8L5,17.2c0.2,0.3,0.4,0.7,0.5,1h2.8V20H7.7v-1.2
							H2.3V20z M2.8,20.2v-0.6h4.3v0.6H2.8z"/>
						<path class="st1" d="M16.1,20c-0.3,1-0.8,1.9-1.4,2.7c0.3,0.8,0.7,1.2,1.1,1.2c0.2,0,0.3-0.4,0.4-1.5c0.1,0.1,0.4,0.3,0.5,0.3
							c-0.1,1.4-0.3,1.8-0.9,1.8c-0.6,0-1.1-0.5-1.5-1.3c-0.5,0.5-1,1-1.6,1.3c-0.1-0.1-0.3-0.4-0.4-0.5c0.7-0.4,1.3-0.9,1.8-1.5
							c-0.3-0.9-0.5-2.1-0.6-3.4h-2.8v1h2v0.3c0,1.8-0.1,2.5-0.3,2.7c-0.1,0.2-0.3,0.2-0.5,0.2c-0.2,0-0.6,0-1,0
							c0-0.2-0.1-0.4-0.2-0.6c0.4,0,0.7,0,0.8,0c0.1,0,0.2,0,0.2-0.1c0.1-0.1,0.2-0.6,0.2-2h-1.5v0.1c0,1.1-0.1,2.7-0.8,3.8
							c-0.1-0.1-0.4-0.3-0.5-0.4c0.7-1,0.7-2.3,0.7-3.4v-2.2h3.3c0-0.4,0-0.9,0-1.3H14c0,0.5,0,0.9,0,1.3h2.6v0.6H14
							c0.1,1.1,0.2,2,0.4,2.8c0.4-0.6,0.8-1.4,1-2.2L16.1,20z M14.7,17.3c0.5,0.2,1.1,0.6,1.4,0.9l-0.4,0.4c-0.3-0.3-0.9-0.7-1.4-1
							L14.7,17.3z"/>
					</g>
					<g id="icon_done">
						<path id="Path" class="st1" d="M7.4,13.6L7.4,13.6c-0.5,0-0.8-0.2-0.9-0.5L0.2,4.5c-0.3-0.4-0.2-1,0.3-1.3
							C1,2.9,1.7,3,2.1,3.5l5.3,7.3l8.5-10.4c0.3-0.5,1-0.6,1.6-0.2c0.6,0.3,0.7,0.9,0.2,1.4L8.4,13.1C8.2,13.4,7.9,13.6,7.4,13.6z"
							/>
					</g>
				</g>
			</g>
		</g>
	</g>
</g>
</svg>
