<?xml version="1.0" encoding="UTF-8"?>
<svg width="411px" height="411px" viewBox="0 0 411 411" version="1.1" xmlns="http://www.w3.org/2000/svg" xmlns:xlink="http://www.w3.org/1999/xlink">
    <title>padlock</title>
    <g id="202008_新書快讀-優化2" stroke="none" stroke-width="1" fill="none" fill-rule="evenodd">
        <g id="2-1_單集影音--paywall" transform="translate(-600.000000, -227.000000)" fill="#FC5A5A">
            <g id="Group" transform="translate(136.000000, 156.000000)">
                <g id="padlock" transform="translate(464.000000, 71.000000)">
                    <path d="M205.500595,0 C318.994866,0 411,92.0059486 411,205.500353 C411,318.994758 318.994866,411 205.500595,411 C92.0063243,411 -2.84216661e-13,318.994758 -2.84216661e-13,205.500353 C-0.106375689,174.05088 7.07727343,143.004379 20.9878171,114.797947 L20.9878171,114.797947 L44.1065002,126.126115 C31.9162112,150.805338 25.6115537,177.974639 25.688616,205.500353 C25.688616,304.808058 106.193008,385.312544 205.500595,385.312544 C304.808183,385.312544 385.312574,304.808058 385.312574,205.500353 C385.312574,106.192649 304.808183,25.6881622 205.500595,25.6881622 L205.500595,25.6881622 L205.423533,25.6881622 C178.515152,25.6054807 151.939102,31.6259782 127.693383,43.2969132 L127.693383,43.2969132 L116.570728,20.1782029 C144.281841,6.81912041 174.661235,-0.0803696851 205.423533,0 Z M167.43073,115.580511 C195.862213,94.3283134 236.196854,100.071457 257.520868,128.407186 C278.844882,156.742915 273.082331,196.941715 244.650849,218.193913 L244.650849,218.193913 L244.650849,308.25 L167.43073,308.25 L167.43073,218.193913 C162.552993,214.547931 158.219014,210.228548 154.56071,205.367238 C133.236697,177.031509 138.999248,136.832709 167.43073,115.580511 Z M206.040789,128.676546 C184.71758,128.676546 167.430726,145.904375 167.430726,167.156572 C167.424295,180.849048 174.795599,193.489736 186.73576,200.262221 L186.73576,200.262221 L193.17077,203.96913 L193.17077,282.596649 L218.910809,282.596649 L218.910809,203.96913 L225.345819,200.262221 C237.28598,193.489736 244.657284,180.849048 244.650853,167.156572 C244.650853,145.904375 227.364803,128.676546 206.040789,128.676546 Z M51.2000056,69.2210526 L70.3026316,86.1177794 C65.0458403,92.0542519 60.1902273,98.3331826 55.768493,104.913158 L55.768493,104.913158 L34.6105263,90.7306112 C39.6527709,83.1981244 45.1950927,76.0128742 51.2000056,69.2210526 L51.2000056,69.2210526 Z M93.0544173,33.5289474 L107.076316,54.8395715 C100.451765,59.2205318 94.1164168,64.0241953 88.1085113,69.2210526 L88.1085113,69.2210526 L71.3842105,49.9266432 C78.2421936,43.9928467 85.4809987,38.5152506 93.0544173,33.5289474 L93.0544173,33.5289474 Z" id="Combined-Shape"></path>
                </g>
            </g>
        </g>
    </g>
</svg>