<?xml version="1.0" encoding="UTF-8"?>
<svg width="30px" height="30px" viewBox="0 0 30 30" version="1.1" xmlns="http://www.w3.org/2000/svg" xmlns:xlink="http://www.w3.org/1999/xlink">
    <title>icon-quiz</title>
    <defs>
        <filter id="filter-1">
            <feColorMatrix in="SourceGraphic" type="matrix" values="0 0 0 0 1.000000 0 0 0 0 1.000000 0 0 0 0 1.000000 0 0 0 1.000000 0"></feColorMatrix>
        </filter>
    </defs>
    <g id="202102_å„ªåŒ–" stroke="none" stroke-width="1" fill="none" fill-rule="evenodd">
        <g id="ðŸ±-5-1-1_å°ˆé¡Œå…§é " transform="translate(-916.000000, -212.000000)">
            <g id="icon-quiz" transform="translate(868.000000, 202.000000)" filter="url(#filter-1)">
                <g transform="translate(48.000000, 10.000000)">
                    <path d="M20.3596939,3.57421875 L17.6607143,3.57421875 L17.6607143,2.63671875 C17.6607143,2.15132813 17.2666633,1.7578125 16.7806122,1.7578125 L13.9895153,1.7578125 C13.6262679,0.734707031 12.6474184,0 11.5,0 C10.3525816,0 9.37373214,0.734707031 9.01048469,1.7578125 L6.16071429,1.7578125 C5.67466327,1.7578125 5.28061224,2.15132813 5.28061224,2.63671875 L5.28061224,3.57421875 L2.64030612,3.57421875 C1.18444133,3.57421875 0,4.75705078 0,6.2109375 L0,27.3632812 C0,28.817168 1.18444133,30 2.64030612,30 L20.3596939,30 C21.8155587,30 23,28.817168 23,27.3632812 L23,6.2109375 C23,4.75705078 21.8155587,3.57421875 20.3596939,3.57421875 Z M7.04081633,3.515625 L9.73979592,3.515625 C10.2258469,3.515625 10.619898,3.12210937 10.619898,2.63671875 C10.619898,2.15208984 11.0147117,1.7578125 11.5,1.7578125 C11.9852883,1.7578125 12.380102,2.15208984 12.380102,2.63671875 C12.380102,3.12210937 12.7741531,3.515625 13.2602041,3.515625 L15.9005102,3.515625 L15.9005102,4.453125 C15.9005102,4.93775391 15.5056964,5.33203125 15.0204082,5.33203125 L7.92091837,5.33203125 C7.4356301,5.33203125 7.04081633,4.93775391 7.04081633,4.453125 L7.04081633,3.515625 Z M21.2397959,27.3632812 C21.2397959,27.8479102 20.8449821,28.2421875 20.3596939,28.2421875 L2.64030612,28.2421875 C2.15501786,28.2421875 1.76020408,27.8479102 1.76020408,27.3632812 L1.76020408,6.2109375 C1.76020408,5.72630859 2.15501786,5.33203125 2.64030612,5.33203125 L5.4319898,5.33203125 C5.79529592,6.35501953 6.77355867,7.08984375 7.92091837,7.08984375 L15.0204082,7.08984375 C16.1677679,7.08984375 17.1460306,6.35501953 17.5093367,5.33203125 L20.3596939,5.33203125 C20.8449821,5.33203125 21.2397959,5.72630859 21.2397959,6.2109375 L21.2397959,27.3632812 Z" id="Shape" fill="#000000" fill-rule="nonzero"></path>
                    <path d="M9.75088388,15.2489745 C9.41488287,14.9208616 8.86541015,14.9164727 8.5237397,15.2392522 L5.60837559,17.9930448 L4.48137221,16.9107612 C4.14253648,16.585315 3.59306376,16.585315 3.25417018,16.9107612 C2.91527661,17.2362074 2.91527661,17.7638213 3.25417018,18.0892675 L4.98977043,19.7559431 C5.15910151,19.9185551 5.38119309,20 5.60334252,20 C5.82306218,20 6.0429554,19.9203329 6.21182368,19.7607765 L9.74075988,16.4274252 C10.0824303,16.1047013 10.0869427,15.5770873 9.75088388,15.2489745 Z" id="Path" fill="#000000" fill-rule="nonzero"></path>
                    <path d="M9.75088388,21.2489745 C9.41488287,20.9208616 8.86541015,20.9164727 8.5237397,21.2392522 L5.60837559,23.9930448 L4.48137221,22.9107612 C4.14253648,22.585315 3.59306376,22.585315 3.25417018,22.9107612 C2.91527661,23.2362074 2.91527661,23.7638213 3.25417018,24.0892675 L4.98977043,25.7559431 C5.15910151,25.9185551 5.38119309,26 5.60334252,26 C5.82306218,26 6.0429554,25.9203329 6.21182368,25.7607765 L9.74075988,22.4274252 C10.0824303,22.1047013 10.0869427,21.5770873 9.75088388,21.2489745 Z" id="Path" fill="#000000" fill-rule="nonzero"></path>
                    <path d="M8.75591938,12.5774316 L7.67848691,11.4999826 L8.75586382,10.4225893 C9.08130465,10.0971435 9.08130465,9.56953015 8.75586382,9.24408435 C8.43047855,8.91863855 7.90281775,8.91863855 7.57737692,9.24408435 L6.5,10.3214777 L5.42256753,9.24408435 C5.09718225,8.91863855 4.56952145,8.91863855 4.24408062,9.24408435 C3.91863979,9.56953015 3.91863979,10.0971435 4.24408062,10.4225893 L5.32151309,11.4999826 L4.24413618,12.577376 C3.91869535,12.9028218 3.91869535,13.4304907 4.24413618,13.7559365 C4.56952145,14.0813267 5.09718225,14.0813823 5.42262308,13.7559365 L6.5,12.6784875 L7.57743247,13.7559365 C7.90281775,14.0813267 8.43047855,14.0813823 8.75591938,13.7559365 C9.08136021,13.4304907 9.08136021,12.9028774 8.75591938,12.5774316 Z" id="Path" fill="#000000" fill-rule="nonzero"></path>
                    <path d="M18.1322314,10 L12.8677686,10 C12.3885289,10 12,10.4477333 12,11 C12,11.5522667 12.3885289,12 12.8677686,12 L18.1322314,12 C18.6114711,12 19,11.5522667 19,11 C19,10.4477333 18.6114711,10 18.1322314,10 Z" id="Path" fill="#000000" fill-rule="nonzero"></path>
                    <path d="M18.1322314,17 L12.8677686,17 C12.3885289,17 12,17.4477333 12,18 C12,18.5522667 12.3885289,19 12.8677686,19 L18.1322314,19 C18.6114711,19 19,18.5522667 19,18 C19,17.4477333 18.6114711,17 18.1322314,17 Z" id="Path" fill="#000000" fill-rule="nonzero"></path>
                    <path d="M18.1322314,23 L12.8677686,23 C12.3885289,23 12,23.4477333 12,24 C12,24.5522667 12.3885289,25 12.8677686,25 L18.1322314,25 C18.6114711,25 19,24.5522667 19,24 C19,23.4477333 18.6114711,23 18.1322314,23 Z" id="Path" fill="#000000" fill-rule="nonzero"></path>
                    <path d="M27.5,5 C26.1215,5 25,6.18747059 25,7.64705882 C25,8.20835294 25,21.1830588 25,21.7647059 C25,21.8596471 25.0160556,21.958 25.0418889,22.041 L26.7085556,27.3939412 C26.8211667,27.7555882 27.1402778,28 27.5,28 C27.8597222,28 28.1788333,27.7555882 28.2914444,27.3939412 L29.9581111,22.041 C29.9861111,21.9508824 30,21.8508824 30,21.7647059 C30,21.184 30,8.21064706 30,7.64705882 C30,6.18747059 28.8785,5 27.5,5 Z M27.5,24.2994706 L26.8117778,22.0891176 C27.0224444,21.9759412 27.2568889,21.9160588 27.5,21.9160588 C27.7431111,21.9160588 27.9775556,21.9759412 28.1882222,22.0891176 L27.5,24.2994706 Z M28.3333333,20.2681176 C28.0648889,20.1917059 27.7854444,20.1513529 27.5,20.1513529 C27.2145556,20.1513529 26.9351111,20.1916471 26.6666667,20.2681176 L26.6666667,12.0588235 L28.3333333,12.0588235 L28.3333333,20.2681176 Z M28.3333333,10.2941176 L26.6666667,10.2941176 L26.6666667,7.64705882 C26.6666667,7.16052941 27.0405,6.76470588 27.5,6.76470588 C27.9595,6.76470588 28.3333333,7.16052941 28.3333333,7.64705882 L28.3333333,10.2941176 Z" id="Shape" fill="#000000" fill-rule="nonzero"></path>
                </g>
            </g>
        </g>
    </g>
</svg>