<?xml version="1.0" encoding="utf-8"?>
<!-- Generator: Adobe Illustrator 23.0.6, SVG Export Plug-In . SVG Version: 6.00 Build 0)  -->
<svg version="1.1" id="圖層_1" xmlns="http://www.w3.org/2000/svg" xmlns:xlink="http://www.w3.org/1999/xlink" x="0px" y="0px"
	 viewBox="0 0 17 22" style="enable-background:new 0 0 17 22;" xml:space="preserve">
<style type="text/css">
	.st0{fill:#E5E5E5;}
</style>
<g>
	<path class="st0" d="M10.6,20.7c-0.2,0-0.4-0.1-0.5-0.2L0.6,11l9.5-9.5c0.3-0.3,0.8-0.3,1.1,0s0.3,0.8,0,1.1L2.7,11l8.4,8.4
		c0.3,0.3,0.3,0.8,0,1.1C11,20.6,10.8,20.7,10.6,20.7z"/>
	<path class="st0" d="M15.6,20.7c-0.2,0-0.4-0.1-0.5-0.2L5.6,11l9.5-9.5c0.3-0.3,0.8-0.3,1.1,0c0.3,0.3,0.3,0.8,0,1.1L7.8,11
		l8.4,8.4c0.3,0.3,0.3,0.8,0,1.1C16,20.6,15.8,20.7,15.6,20.7z"/>
</g>
</svg>
