<svg xmlns="http://www.w3.org/2000/svg" width="115.337" height="115" viewBox="0 0 115.337 115">
  <g id="discussion" transform="translate(0 0.001)">
    <path id="Path_33" data-name="Path 33" d="M163.859,469.582h3.372V478.8h-3.372Zm0,0" transform="translate(-126.947 -363.801)" fill="#304c77"/>
    <path id="Path_34" data-name="Path 34" d="M333.172,469.582h3.372V478.8h-3.372Zm0,0" transform="translate(-258.119 -363.801)" fill="#304c77"/>
    <path id="Path_35" data-name="Path 35" d="M104.5,232.614H99.318v-2.945a12.36,12.36,0,0,0,5.34-10.167v-6.408a12.365,12.365,0,1,0-24.731,0V219.5a12.358,12.358,0,0,0,5.34,10.167v2.944h-5.18a10.864,10.864,0,0,0-10.6,8.56H66.381v-4.687a15.734,15.734,0,0,0,7.026-13.1v-8.431a15.738,15.738,0,1,0-31.476,0v8.431a15.736,15.736,0,0,0,7.026,13.1v4.687H45.848a10.863,10.863,0,0,0-10.6-8.56H30.07v-2.944A12.358,12.358,0,0,0,35.41,219.5v-6.408a12.365,12.365,0,1,0-24.731,0V219.5a12.36,12.36,0,0,0,5.34,10.167v2.945H10.84A10.852,10.852,0,0,0,0,243.454v25.887H3.373V243.454a7.476,7.476,0,0,1,7.467-7.468h5.349a7.025,7.025,0,0,0,13.711,0h5.35a7.483,7.483,0,0,1,7.11,5.187h-.751A13.746,13.746,0,0,0,27.878,254.9v14.437h3.373V254.9a10.369,10.369,0,0,1,10.358-10.358h7.476a8.71,8.71,0,0,0,17.166,0h7.476A10.369,10.369,0,0,1,84.085,254.9v14.437h3.373V254.9a13.746,13.746,0,0,0-13.731-13.731h-.751a7.484,7.484,0,0,1,7.11-5.187h5.35a7.025,7.025,0,0,0,13.711,0H104.5a7.476,7.476,0,0,1,7.467,7.468v25.887h3.373V243.454a10.852,10.852,0,0,0-10.84-10.84ZM23.045,204.1a9,9,0,0,1,8.99,8.842,6.255,6.255,0,0,0-5.082-2.6H19.136a6.257,6.257,0,0,0-5.081,2.6,9,9,0,0,1,8.99-8.842ZM26.7,234.452a3.654,3.654,0,1,1-7.307,0v-3.136a12.392,12.392,0,0,0,7.307,0Zm-3.654-5.957a9,9,0,0,1-8.983-8.586l2.532-4.681a2.886,2.886,0,0,1,2.542-1.516h7.817a2.887,2.887,0,0,1,2.543,1.516l2.532,4.681a9,9,0,0,1-8.983,8.586ZM45.3,214.957a12.366,12.366,0,1,1,24.732,0v1.769l-.443-.818a7.7,7.7,0,0,0-6.78-4.042H52.526a7.7,7.7,0,0,0-6.781,4.042l-.443.818Zm17.705,28.1a5.34,5.34,0,1,1-10.679,0v-4.868a15.735,15.735,0,0,0,10.679,0Zm-5.34-7.306A12.379,12.379,0,0,1,45.313,223.8l3.4-6.285a4.33,4.33,0,0,1,3.814-2.274H62.811a4.331,4.331,0,0,1,3.814,2.274l3.4,6.285a12.379,12.379,0,0,1-12.355,11.958ZM92.292,204.1a9,9,0,0,1,8.99,8.842,6.255,6.255,0,0,0-5.081-2.6H88.384a6.257,6.257,0,0,0-5.082,2.6,9,9,0,0,1,8.99-8.842Zm3.654,30.351a3.654,3.654,0,1,1-7.307,0v-3.136a12.392,12.392,0,0,0,7.307,0Zm-3.654-5.957a9,9,0,0,1-8.983-8.586l2.532-4.681a2.888,2.888,0,0,1,2.543-1.516H96.2a2.886,2.886,0,0,1,2.542,1.516l2.532,4.681a9,9,0,0,1-8.983,8.586Zm0,0" transform="translate(0 -154.342)" fill="#304c77"/>
    <path id="Path_36" data-name="Path 36" d="M466.555,413.191h3.372v21.921h-3.372Zm0,0" transform="translate(-361.456 -320.113)" fill="#304c77"/>
    <path id="Path_37" data-name="Path 37" d="M30.477,413.191h3.372v21.921H30.477Zm0,0" transform="translate(-23.611 -320.113)" fill="#304c77"/>
    <path id="Path_38" data-name="Path 38" d="M16.176,36.859l5.488-9.88h9.687V0H1V26.979h9.686ZM4.372,3.373H27.98V23.607h-8.3l-3.5,6.307-3.5-6.307h-8.3Zm0,0" transform="translate(-0.775)" fill="#304c77"/>
    <path id="Path_39" data-name="Path 39" d="M377.262,0V26.979h9.687l5.489,9.88,5.488-9.88h9.687V0Zm26.979,23.607h-8.3l-3.5,6.307-3.5-6.307h-8.3V3.373h23.606Zm0,0" transform="translate(-292.277 0)" fill="#304c77"/>
    <path id="Path_40" data-name="Path 40" d="M173.764,36.859l5.488-9.88H197.82V0H149.707V26.979h18.568ZM153.08,3.373h41.368V23.607h-17.18l-3.5,6.307-3.5-6.307H153.08Zm0,0" transform="translate(-115.983)" fill="#304c77"/>
    <path id="Path_41" data-name="Path 41" d="M63.375,39.922h8.993v3.373H63.375Zm0,0" transform="translate(-49.099 -30.929)" fill="#304c77"/>
    <path id="Path_42" data-name="Path 42" d="M33.434,39.922h3.373v3.373H33.434Zm0,0" transform="translate(-25.902 -30.929)" fill="#304c77"/>
    <path id="Path_43" data-name="Path 43" d="M33.434,69.863h8.993v3.373H33.434Zm0,0" transform="translate(-25.902 -54.126)" fill="#304c77"/>
    <path id="Path_44" data-name="Path 44" d="M88.328,69.863H91.7v3.373H88.328Zm0,0" transform="translate(-68.431 -54.126)" fill="#304c77"/>
    <path id="Path_45" data-name="Path 45" d="M439.641,39.922h8.993v3.373h-8.993Zm0,0" transform="translate(-340.604 -30.929)" fill="#304c77"/>
    <path id="Path_46" data-name="Path 46" d="M409.7,39.922h3.373v3.373H409.7Zm0,0" transform="translate(-317.407 -30.929)" fill="#304c77"/>
    <path id="Path_47" data-name="Path 47" d="M409.7,69.863h8.993v3.373H409.7Zm0,0" transform="translate(-317.407 -54.126)" fill="#304c77"/>
    <path id="Path_48" data-name="Path 48" d="M464.594,69.863h3.372v3.373h-3.372Zm0,0" transform="translate(-359.936 -54.126)" fill="#304c77"/>
    <path id="Path_49" data-name="Path 49" d="M271.469,34.934h3.373v3.372h-3.373Zm0,0" transform="translate(-210.316 -27.065)" fill="#304c77"/>
    <path id="Path_50" data-name="Path 50" d="M301.41,34.934h5.621v3.372H301.41Zm0,0" transform="translate(-233.512 -27.065)" fill="#304c77"/>
    <path id="Path_51" data-name="Path 51" d="M186.637,34.934h15.738v3.372H186.637Zm0,0" transform="translate(-144.594 -27.065)" fill="#304c77"/>
    <path id="Path_52" data-name="Path 52" d="M311.391,65.871h3.373v3.373h-3.373Zm0,0" transform="translate(-241.245 -51.033)" fill="#304c77"/>
    <path id="Path_53" data-name="Path 53" d="M186.637,65.871h8.993v3.373h-8.993Zm0,0" transform="translate(-144.594 -51.033)" fill="#304c77"/>
    <path id="Path_54" data-name="Path 54" d="M241.527,65.871h12.366v3.373H241.527Zm0,0" transform="translate(-187.119 -51.033)" fill="#304c77"/>
  </g>
</svg>
