<?xml version="1.0" encoding="UTF-8"?>
<svg width="14px" height="17px" viewBox="0 0 14 17" version="1.1" xmlns="http://www.w3.org/2000/svg" xmlns:xlink="http://www.w3.org/1999/xlink">
    <title>Path</title>
    <g id="202008_新書快讀-優化2" stroke="none" stroke-width="1" fill="none" fill-rule="evenodd">
        <g id="3-1_FAQ" transform="translate(-357.000000, -412.000000)" fill="#FC5A5A" fill-rule="nonzero">
            <g id="item" transform="translate(357.000000, 407.000000)">
                <path d="M1.07037013,22 C0.499506063,22 0,21.5274241 0,20.9873373 L0,5.99992936 C0,5.59486428 0.214074027,5.25731005 0.570864072,5.12228836 C0.927654117,4.91975582 1.35580217,4.98726666 1.71259222,5.1897992 L13.5580217,13.0210574 C13.8434537,13.2235899 14.0575278,13.5611442 13.9861698,13.8986984 C13.9861698,14.2362526 13.7720957,14.5738069 13.4866637,14.7088286 L4.7809866,19.9746746 C4.28148054,20.244718 3.63925846,20.1096963 3.28246841,19.6371204 C2.99703638,19.1645444 3.1397524,18.5569468 3.63925846,18.2193926 L10.9891334,13.7636767 L2.14074027,7.95774391 L2.14074027,20.9873373 C2.14074027,21.5949349 1.64123421,22 1.07037013,22 Z" id="Path"></path>
            </g>
        </g>
    </g>
</svg>