<?xml version="1.0" encoding="utf-8"?>
<!-- Generator: Adobe Illustrator 23.0.6, SVG Export Plug-In . SVG Version: 6.00 Build 0)  -->
<svg version="1.1" id="圖層_1" xmlns="http://www.w3.org/2000/svg" xmlns:xlink="http://www.w3.org/1999/xlink" x="0px" y="0px"
	 viewBox="0 0 60 60" style="enable-background:new 0 0 60 60;" xml:space="preserve">
<style type="text/css">
	.st0{fill-rule:evenodd;clip-rule:evenodd;fill:#FAFAFA;}
</style>
<title>icon-creditCard</title>
<desc>Created with Sketch.</desc>
<g id="Desktop">
	<g transform="translate(-661.000000, -461.000000)">
		<g id="main" transform="translate(187.000000, 140.000000)">
			<g id="content" transform="translate(243.000000, 0.000000)">
				<g id="Group-3" transform="translate(50.000000, 305.000000)">
					<g id="Group-2" transform="translate(35.000000, 16.000000)">
						<g id="icon-creditCard" transform="translate(146.000000, 0.001289)">
							<path id="Shape" class="st0" d="M58.4,20.6l-19-19c-1-1-2.4-1.6-3.9-1.6c-1.5,0-2.8,0.6-3.9,1.6L1.6,31.7
								c-1,1-1.6,2.4-1.6,3.9c0,1.5,0.6,2.8,1.6,3.9l2.3,2.3c0,0,0,0,0,0c0,0,0,0,0,0l15.7,15.7h-2.2c-0.7,0-1.2,0.6-1.2,1.2
								c0,0.7,0.6,1.2,1.2,1.2h6.9c0,0,0,0,0,0c0,0,0,0,0,0l18.1,0c0.7,0,1.2-0.6,1.2-1.2c0-0.7-0.6-1.2-1.2-1.2l-13.3,0l29.2-29.2
								C60.5,26.2,60.5,22.7,58.4,20.6z M56.6,26.5L26.5,56.6c-0.6,0.6-1.3,0.9-2.1,0.9h0c-0.8,0-1.5-0.3-2.1-0.9L6.6,40.9
								l28.9-28.9c0.5-0.5,0.5-1.3,0-1.8c-0.5-0.5-1.3-0.5-1.8,0L4.8,39.1l-1.5-1.5c-0.6-0.6-0.9-1.3-0.9-2.1c0-0.8,0.3-1.5,0.9-2.1
								L33.5,3.4c0.6-0.6,1.3-0.9,2.1-0.9s1.5,0.3,2.1,0.9l6.8,6.8L15.5,39c-0.5,0.5-0.5,1.3,0,1.8c0.2,0.2,0.6,0.4,0.9,0.4
								s0.6-0.1,0.9-0.4l28.9-28.9l10.5,10.5C57.8,23.5,57.8,25.4,56.6,26.5z"/>
							<path id="Path" class="st0" d="M31.8,36.1c-0.5-0.5-1.3-0.5-1.8,0l-9.8,9.8c-0.5,0.5-0.5,1.3,0,1.8c0.2,0.2,0.6,0.4,0.9,0.4
								c0.3,0,0.6-0.1,0.9-0.4l9.8-9.8C32.3,37.4,32.3,36.6,31.8,36.1z"/>
							<path class="st0" d="M27.8,45.4l-4,4c-0.5,0.5-0.5,1.3,0,1.8c0.2,0.2,0.6,0.4,0.9,0.4c0.3,0,0.6-0.1,0.9-0.4l4-4
								c0.5-0.5,0.5-1.3,0-1.8C29,44.9,28.3,44.9,27.8,45.4z"/>
							<path class="st0" d="M31.5,41.7l-0.5,0.5c-0.5,0.5-0.5,1.3,0,1.8c0.2,0.2,0.6,0.4,0.9,0.4c0.3,0,0.6-0.1,0.9-0.4l0.5-0.5
								c0.5-0.5,0.5-1.3,0-1.8C32.8,41.2,32,41.2,31.5,41.7z"/>
							<path class="st0" d="M48.7,19.2c-0.2-0.2-0.6-0.4-0.9-0.4s-0.6,0.1-0.9,0.4l-5.3,5.3c-0.2,0.2-0.4,0.6-0.4,0.9
								c0,0.3,0.1,0.6,0.4,0.9l3.5,3.5c0.2,0.2,0.6,0.4,0.9,0.4c0.3,0,0.6-0.1,0.9-0.4l5.3-5.3c0.5-0.5,0.5-1.3,0-1.8L48.7,19.2z
								 M46.1,27.1l-1.8-1.8l3.5-3.5l1.8,1.8L46.1,27.1z"/>
							<path class="st0" d="M38.5,9.4c0.3,0,0.6-0.1,0.9-0.4L40,8.5c0.5-0.5,0.5-1.3,0-1.8c-0.5-0.5-1.3-0.5-1.8,0l-0.5,0.5
								c-0.5,0.5-0.5,1.3,0,1.8C37.9,9.3,38.2,9.4,38.5,9.4z"/>
							<path class="st0" d="M13.6,42L13,42.5c-0.5,0.5-0.5,1.3,0,1.8c0.2,0.2,0.6,0.4,0.9,0.4c0.3,0,0.6-0.1,0.9-0.4l0.5-0.5
								c0.5-0.5,0.5-1.3,0-1.8C14.8,41.5,14.1,41.5,13.6,42z"/>
						</g>
					</g>
				</g>
			</g>
		</g>
	</g>
</g>
</svg>
