<?xml version="1.0" encoding="utf-8"?>
<!-- Generator: Adobe Illustrator 23.0.6, SVG Export Plug-In . SVG Version: 6.00 Build 0)  -->
<svg version="1.1" id="圖層_1" xmlns="http://www.w3.org/2000/svg" xmlns:xlink="http://www.w3.org/1999/xlink" x="0px" y="0px"
	 viewBox="0 0 60 60" style="enable-background:new 0 0 60 60;" xml:space="preserve">
<style type="text/css">
	.st0{fill-rule:evenodd;clip-rule:evenodd;fill:#FAFAFA;}
</style>
<title>icon-ATM</title>
<desc>Created with Sketch.</desc>
<g id="Desktop">
	<g transform="translate(-515.000000, -464.000000)">
		<g id="main" transform="translate(187.000000, 140.000000)">
			<g id="content" transform="translate(243.000000, 0.000000)">
				<g id="Group-3" transform="translate(50.000000, 305.000000)">
					<g id="Group-2" transform="translate(35.000000, 16.000000)">
						<g id="icon-ATM" transform="translate(0.000000, 3.000000)">
							<path id="path-1_3_" class="st0" d="M45.2,23c0,2.6-2.1,4.8-4.8,4.8h-20c-2.6,0-4.8-2.1-4.8-4.8V12.6c0-2.6,2.1-4.8,4.8-4.8
								h20c2.6,0,4.8,2.1,4.8,4.8V23z M42.6,12.6c0-1.2-1-2.2-2.2-2.2h-20c-1.2,0-2.2,1-2.2,2.2V23c0,1.2,1,2.2,2.2,2.2h20
								c1.2,0,2.2-1,2.2-2.2V12.6z"/>
							<path id="path-2_3_" class="st0" d="M51.3,42.2c0,2.6-2.1,4.8-4.8,4.8H13.5c-2.6,0-4.8-2.1-4.8-4.8V7.4
								c0-2.6,2.1-4.8,4.8-4.8h33.1c2.6,0,4.8,2.1,4.8,4.8V42.2z M48.7,7.4c0-1.2-1-2.2-2.2-2.2H13.5c-1.2,0-2.2,1-2.2,2.2v34.8
								c0,1.2,1,2.2,2.2,2.2h33.1c1.2,0,2.2-1,2.2-2.2V7.4z"/>
							<path id="path-3_3_" class="st0" d="M22.8,40l-0.5-1.3h-4.1L17.7,40c-0.2,0.5-0.3,0.8-0.5,1c-0.1,0.2-0.3,0.3-0.6,0.3
								c-0.3,0-0.5-0.1-0.7-0.3c-0.2-0.2-0.3-0.4-0.3-0.6c0-0.1,0-0.3,0.1-0.4c0-0.1,0.1-0.3,0.2-0.6l2.6-6.5
								c0.1-0.2,0.2-0.4,0.3-0.7c0.1-0.3,0.2-0.5,0.3-0.7c0.1-0.2,0.3-0.3,0.5-0.4c0.2-0.1,0.4-0.2,0.7-0.2c0.3,0,0.5,0.1,0.7,0.2
								c0.2,0.1,0.3,0.2,0.5,0.4c0.1,0.2,0.2,0.4,0.3,0.5c0.1,0.2,0.2,0.5,0.3,0.8l2.6,6.5c0.2,0.5,0.3,0.8,0.3,1.1
								c0,0.2-0.1,0.4-0.3,0.6c-0.2,0.2-0.4,0.3-0.7,0.3c-0.2,0-0.3,0-0.4-0.1c-0.1-0.1-0.2-0.1-0.3-0.2c-0.1-0.1-0.2-0.2-0.2-0.5
								C22.9,40.3,22.8,40.1,22.8,40z M18.8,37.2h3l-1.5-4.1L18.8,37.2z"/>
							<path id="path-4_3_" class="st0" d="M31.7,32.8h-2.2V40c0,0.4-0.1,0.7-0.3,0.9c-0.2,0.2-0.4,0.3-0.7,0.3
								c-0.3,0-0.5-0.1-0.7-0.3c-0.2-0.2-0.3-0.5-0.3-0.9v-7.3h-2.2c-0.3,0-0.6-0.1-0.8-0.2c-0.2-0.2-0.3-0.4-0.3-0.6
								c0-0.3,0.1-0.5,0.3-0.6c0.2-0.2,0.4-0.2,0.8-0.2h6.4c0.4,0,0.6,0.1,0.8,0.2c0.2,0.2,0.3,0.4,0.3,0.6c0,0.2-0.1,0.5-0.3,0.6
								C32.3,32.7,32,32.8,31.7,32.8z"/>
							<path id="path-5_3_" class="st0" d="M37.3,39.6l-1.6-6.4v6.9c0,0.4-0.1,0.7-0.3,0.9c-0.2,0.2-0.4,0.3-0.7,0.3
								c-0.3,0-0.5-0.1-0.7-0.3c-0.2-0.2-0.3-0.5-0.3-0.9v-7.9c0-0.4,0.1-0.7,0.3-0.9c0.2-0.2,0.5-0.2,0.9-0.2h0.6
								c0.4,0,0.7,0,0.8,0.1c0.2,0.1,0.3,0.2,0.4,0.4c0.1,0.2,0.2,0.5,0.3,0.9l1.5,5.5l1.5-5.5c0.1-0.4,0.2-0.7,0.3-0.9
								c0.1-0.2,0.2-0.3,0.4-0.4c0.2-0.1,0.4-0.1,0.8-0.1h0.6c0.4,0,0.7,0.1,0.9,0.2c0.2,0.2,0.3,0.4,0.3,0.9v7.9
								c0,0.4-0.1,0.7-0.3,0.9c-0.2,0.2-0.4,0.3-0.7,0.3c-0.3,0-0.5-0.1-0.7-0.3c-0.2-0.2-0.3-0.5-0.3-0.9v-6.9L40,39.6
								c-0.1,0.4-0.2,0.7-0.3,0.9c-0.1,0.2-0.2,0.4-0.4,0.5c-0.2,0.2-0.4,0.2-0.7,0.2c-0.2,0-0.4-0.1-0.6-0.2
								c-0.2-0.1-0.3-0.2-0.4-0.4c-0.1-0.2-0.2-0.3-0.2-0.5C37.4,40,37.4,39.8,37.3,39.6z"/>
							<path id="path-6_2_" class="st0" d="M39.6,18.2h-4.4c-0.7,0-1.3-0.6-1.3-1.3c0-0.7,0.6-1.3,1.3-1.3h4.4
								c0.7,0,1.3,0.6,1.3,1.3C40.9,17.7,40.4,18.2,39.6,18.2z"/>
							<path id="path-7_2_" class="st0" d="M39.6,22.6h-4.4c-0.7,0-1.3-0.6-1.3-1.3s0.6-1.3,1.3-1.3h4.4c0.7,0,1.3,0.6,1.3,1.3
								S40.4,22.6,39.6,22.6z"/>
							<path id="path-8_2_" class="st0" d="M24.8,18.2h-4.4c-0.7,0-1.3-0.6-1.3-1.3c0-0.7,0.6-1.3,1.3-1.3h4.4
								c0.7,0,1.3,0.6,1.3,1.3C26.1,17.7,25.6,18.2,24.8,18.2z"/>
							<path id="path-9_1_" class="st0" d="M24.8,22.6h-4.4c-0.7,0-1.3-0.6-1.3-1.3s0.6-1.3,1.3-1.3h4.4c0.7,0,1.3,0.6,1.3,1.3
								S25.6,22.6,24.8,22.6z"/>
							<path id="path-10" class="st0" d="M56.6,52.6c0,2.6-2.1,4.8-4.8,4.8H8.2c-2.6,0-4.8-2.1-4.8-4.8v-3.5c0-2.6,2.1-4.8,4.8-4.8
								h43.5c2.6,0,4.8,2.1,4.8,4.8V52.6z M53.9,49.2c0-1.2-1-2.2-2.2-2.2H8.2c-1.2,0-2.2,1-2.2,2.2v3.5c0,1.2,1,2.2,2.2,2.2h43.5
								c1.2,0,2.2-1,2.2-2.2V49.2z"/>
						</g>
					</g>
				</g>
			</g>
		</g>
	</g>
</g>
</svg>
