<?xml version="1.0" encoding="UTF-8"?>
<svg width="48px" height="48px" viewBox="0 0 48 48" version="1.1" xmlns="http://www.w3.org/2000/svg" xmlns:xlink="http://www.w3.org/1999/xlink">
    <title>icon_info-menu copy</title>
    <g id="202102_優化" stroke="none" stroke-width="1" fill="none" fill-rule="evenodd">
        <g id="2-1-首頁調整" transform="translate(-240.000000, -3915.000000)">
            <g id="title/section-2" transform="translate(120.000000, 3550.000000)">
                <g id="Group-4" transform="translate(32.000000, 326.000000)">
                    <g id="icon_info-menu-copy" transform="translate(88.000000, 39.000000)">
                        <circle id="Oval" fill="#555555" opacity="0.85" cx="24" cy="24" r="24"></circle>
                        <path d="M19.0329709,34.6094306 C18.3805548,34.6094306 17.8096907,34.0534589 17.8096907,33.4180627 L17.8096907,15.7858181 C17.8096907,15.3092709 18.0543468,14.9121483 18.4621068,14.7532992 C18.8698669,14.5150257 19.3591789,14.5944502 19.766939,14.8327238 L33.3045727,24.0459687 C33.6307807,24.2842423 33.8754368,24.6813649 33.7938848,25.0784875 C33.7938848,25.4756102 33.5492287,25.8727328 33.2230207,26.0315818 L23.2736754,32.2266948 C22.7028114,32.5443929 21.9688433,32.3855439 21.5610832,31.8295722 C21.2348752,31.2736005 21.3979792,30.5587798 21.9688433,30.1616572 L30.3687003,24.9196385 L20.256251,18.0891293 L20.256251,33.4180627 C20.256251,34.1328834 19.685387,34.6094306 19.0329709,34.6094306 Z" id="Path" fill="#FFFFFF" fill-rule="nonzero"></path>
                    </g>
                </g>
            </g>
        </g>
    </g>
</svg>