<?xml version="1.0" encoding="utf-8"?>
<!-- Generator: Adobe Illustrator 23.0.6, SVG Export Plug-In . SVG Version: 6.00 Build 0)  -->
<svg version="1.1" id="圖層_1" xmlns="http://www.w3.org/2000/svg" xmlns:xlink="http://www.w3.org/1999/xlink" x="0px" y="0px"
	 viewBox="0 0 24 24" style="enable-background:new 0 0 24 24;" xml:space="preserve">
<style type="text/css">
	.st0{fill:#FF4940;}
</style>
<title>資產 2</title>
<g>
	<g>
		<path class="st0" d="M13.2,6.9c-0.3-0.2-0.7-0.2-1,0L7.9,9.8H6.4c-0.4,0-0.7,0.3-0.8,0.7H5.4c-0.8,0-1.4,0.6-1.4,1.4v1.5
			c0,0.8,0.6,1.4,1.4,1.4h0.2c0,0.4,0.4,0.7,0.8,0.7H8l4.2,2.8c0.4,0.3,1.1,0.2,1.4-0.3c0.1-0.2,0.2-0.4,0.2-0.5V7.8
			C13.7,7.4,13.5,7.1,13.2,6.9z M5.6,13.9H5.4c-0.3,0-0.6-0.3-0.6-0.6v-1.5c0-0.3,0.3-0.6,0.6-0.6h0.2V13.9z M7.7,14.6H6.4l0,0v-4.1
			l0,0h1.3V14.6z M12.8,17.6c-0.1,0-0.1,0-0.2,0l-4.1-2.7v-4.5l4.1-2.8c0.1,0,0.1,0,0.2,0c0.1,0,0.1,0.1,0.1,0.2v9.6
			C12.9,17.5,12.9,17.6,12.8,17.6z"/>
		<path class="st0" d="M15.3,10.7c-0.1,0.1-0.2,0.4,0,0.5c0.7,0.8,0.7,2,0,2.8c-0.1,0.1-0.1,0.2-0.1,0.2c0,0.2,0.2,0.4,0.4,0.4
			c0.1,0,0.2,0,0.3-0.1c0.9-1.1,0.9-2.7,0-3.7C15.6,10.6,15.4,10.6,15.3,10.7z"/>
		<path class="st0" d="M17.2,9.9c-0.1-0.1-0.4-0.2-0.5,0c-0.1,0.1-0.2,0.4,0,0.5c1.2,1.3,1.2,3.2,0,4.5c-0.1,0.1-0.1,0.2-0.1,0.2
			c0,0.2,0.2,0.4,0.4,0.4c0.1,0,0.2,0,0.3-0.1C18.6,13.8,18.6,11.4,17.2,9.9z"/>
		<path class="st0" d="M18.5,8.8c-0.1-0.1-0.4-0.2-0.5,0c-0.1,0.1-0.2,0.4,0,0.5c1.7,1.9,1.7,4.7,0.1,6.6C18,16,18,16.1,18,16.2
			c0,0.2,0.2,0.4,0.4,0.4c0.1,0,0.2,0,0.3-0.1C20.5,14.2,20.5,10.9,18.5,8.8z"/>
	</g>
</g>
</svg>
