<?xml version="1.0" encoding="UTF-8"?>
<svg width="24px" height="24px" viewBox="0 0 24 24" version="1.1" xmlns="http://www.w3.org/2000/svg" xmlns:xlink="http://www.w3.org/1999/xlink">
    <title>icon/system/eye-close</title>
    <g id="icon/system/eye-close" stroke="none" stroke-width="1" fill="none" fill-rule="evenodd">
        <rect id="Rectangle" fill="#FC5A5A" opacity="0" x="0" y="0" width="24" height="24"></rect>
        <path d="M20.1460312,3.146625 C20.3410312,2.951625 20.6580469,2.951625 20.8530469,3.146625 C21.0480469,3.341625 21.0480469,3.65864062 20.8530469,3.85364062 L20.8530469,3.85364062 L17.930092,6.7774775 C21.3489773,8.71937347 23.7741483,11.5499128 23.8810312,11.6766563 C24.0390469,11.8636406 24.0400313,12.1366406 23.8821094,12.3226875 C23.6511094,12.5956875 18.1611094,18.9997031 12.0000937,18.9997031 C10.1710781,18.9997031 8.3330625,18.5617031 6.53807813,17.6947031 L6.8619789,17.844375 L3.85307812,20.8536563 C3.78030469,20.9264297 3.69012891,20.9721768 3.59558276,20.990502 L3.5000625,20.9996719 C3.37204687,20.9996719 3.24407812,20.9506406 3.1460625,20.8536563 C2.9510625,20.6586562 2.9510625,20.3416406 3.1460625,20.1466406 L3.1460625,20.1466406 Z M17.1948253,7.51302312 L15.1606816,9.54715815 C15.7051389,10.2448624 16.0000312,11.0995772 16.0000312,11.9997187 C16.0000312,14.2057031 14.2060312,15.9997031 12.0000469,15.9997031 C11.0999447,15.9997031 10.2452362,15.7047776 9.54753296,15.1603098 L7.6216227,17.0870957 C9.07119459,17.693321 10.54055,17.9997187 12.0000469,17.9997187 C16.9450312,17.9997187 21.6360469,13.2907031 22.8280312,11.9997188 C22.0725422,11.1835993 19.9176101,9.00229132 17.1948253,7.51302312 Z M12.0000469,4.99964063 C13.0390781,4.99964063 14.1430781,5.192625 15.2810625,5.57564063 C15.5430469,5.66367188 15.6830625,5.94665625 15.5950312,6.20864063 C15.5080312,6.47165625 15.2240156,6.61664063 14.9620312,6.52265625 C13.9280625,6.1756875 12.9310312,5.99967188 12.0000469,5.99967188 C7.0190625,5.99967188 2.2970625,10.7766563 1.14604687,12.0266719 C1.6850625,12.7136719 3.1250625,14.4026719 5.22904687,15.8016563 C5.4590625,15.9536719 5.5220625,16.2646875 5.3690625,16.4936719 C5.2730625,16.6406719 5.1140625,16.7186719 4.95304687,16.7186719 C4.85704687,16.7186719 4.76203125,16.6916719 4.67704687,16.6346719 C1.81204687,14.7316406 0.159046875,12.3846563 0.090046875,12.2856563 C-0.039984375,12.0986719 -0.027984375,11.8486406 0.11803125,11.6766563 C0.34903125,11.4036563 5.83903125,4.99964063 12.0000469,4.99964063 Z M14.4459892,10.262056 L10.262431,14.4460027 C10.7661392,14.8058095 11.3678747,14.9996719 12.0000469,14.9996719 C13.6540312,14.9996719 15.0000469,13.6536562 15.0000469,11.9996719 C15.0000469,11.3674997 14.8055729,10.7657642 14.4459892,10.262056 Z M12.0000469,7.99964062 C12.2380312,7.99964062 12.4700156,8.02865625 12.6970312,8.06864063 C12.9680625,8.11664062 13.1500312,8.37665625 13.1020312,8.64764063 C13.0540312,8.918625 12.7890469,9.10664062 12.5230312,9.05264062 C12.3530625,9.02264063 12.1800469,8.999625 12.0000469,8.999625 C10.3460625,8.999625 9.00004687,10.3456406 9.00004687,11.999625 C9.00004687,12.179625 9.0230625,12.3525937 9.05404687,12.5226094 C9.10204687,12.7935937 8.92003125,13.0536094 8.64904687,13.1016094 C8.61904687,13.1076094 8.59007812,13.109625 8.5610625,13.109625 C8.3240625,13.109625 8.11303125,12.938625 8.07004687,12.6966094 C8.02907812,12.4696406 8.0000625,12.2376094 8.0000625,11.999625 C8.0000625,9.79364062 9.7940625,7.99964062 12.0000469,7.99964062 Z" id="Combined-Shape" fill="#FC5A5A"></path>
    </g>
</svg>