<?xml version="1.0" encoding="UTF-8"?>
<svg width="24px" height="24px" viewBox="0 0 24 24" version="1.1" xmlns="http://www.w3.org/2000/svg" xmlns:xlink="http://www.w3.org/1999/xlink">
    <title>icon/system/eye</title>
    <g id="icon/system/eye" stroke="none" stroke-width="1" fill="none" fill-rule="evenodd">
        <rect id="Rectangle" fill="#FC5A5A" opacity="0" x="0" y="0" width="24" height="24"></rect>
        <path d="M11.9997539,5 C19.1797383,5 23.7217383,11.441 23.9107383,11.7160156 C24.0397383,11.9020156 24.0267539,12.1510156 23.8817227,12.323 C23.6507227,12.596 18.1607695,19.0000156 11.9997539,19.0000156 C5.83873828,19.0000156 0.348738281,12.596 0.117738281,12.323 C-0.0392460937,12.1360156 -0.0392460937,11.8630156 0.117738281,11.6770156 C0.348738281,11.4040156 5.83873828,5 11.9997539,5 Z M11.9997539,6.00003125 C7.05378516,6.00003125 2.36276953,10.7090469 1.17176953,12.0000312 C2.36473828,13.2900313 7.06076953,18.0000312 11.9997539,18.0000312 C16.9807383,18.0000312 21.7037227,13.2220156 22.8537539,11.9730313 C21.8577539,10.7030469 17.7787383,6.00003125 11.9997539,6.00003125 Z M11.9997539,8 C14.2057383,8 15.9997383,9.794 15.9997383,11.9999844 C15.9997383,14.2059688 14.2057383,15.9999688 11.9997539,15.9999688 C9.79376953,15.9999688 7.99976953,14.2059688 7.99976953,11.9999844 C7.99976953,9.794 9.79376953,8 11.9997539,8 Z M11.9997539,9.00003125 C10.3457695,9.00003125 8.99975391,10.3460469 8.99975391,12.0000313 C8.99975391,13.6540156 10.3457695,15.0000313 11.9997539,15.0000313 C13.6537383,15.0000313 14.9997539,13.6540156 14.9997539,12.0000313 C14.9997539,10.3460469 13.6537383,9.00003125 11.9997539,9.00003125 Z" id="Combined-Shape" fill="#FC5A5A" fill-rule="nonzero"></path>
    </g>
</svg>