<?xml version="1.0" encoding="UTF-8"?>
<svg width="25px" height="20px" viewBox="0 0 25 20" version="1.1" xmlns="http://www.w3.org/2000/svg" xmlns:xlink="http://www.w3.org/1999/xlink">
    <title>Combined Shape 3</title>
    <g id="202008_新書快讀-優化2" stroke="none" stroke-width="1" fill="none" fill-rule="evenodd">
        <g id="2-1_單集影音" transform="translate(-1025.000000, -651.000000)" fill="#FC5A5A" fill-rule="nonzero">
            <g id="Group-10" transform="translate(972.000000, 210.000000)">
                <g id="Group-9" transform="translate(0.000000, 423.000000)">
                    <g id="Group-3" transform="translate(53.000000, 16.000000)">
                        <g id="Combined-Shape-3" transform="translate(0.000000, 2.000000)">
                            <path d="M24.0384442,11 C24.5695056,11 25,11.4029426 25,11.9000158 L25,11.9000158 L25,17.3000053 C25,18.7911723 23.7085168,20 22.1153889,20 L22.1153889,20 L2.88461105,20 C1.29148319,20 0,18.7911723 0,17.3000053 L0,17.3000053 L0,11.9000158 C0,11.4029426 0.430494395,11 0.961555797,11 C1.4926172,11 1.92311159,11.4029426 1.92311159,11.9000158 L1.92311159,11.9000158 L1.92311159,17.3000053 C1.92311159,17.7970785 2.35360599,18.2000211 2.88466739,18.2000211 L2.88466739,18.2000211 L22.1153326,18.2000211 C22.646394,18.2000211 23.0768884,17.7970785 23.0768884,17.3000053 L23.0768884,17.3000053 L23.0768884,11.9000158 C23.0768884,11.4029426 23.5073828,11 24.0384442,11 Z M11.9990177,0 C12.5523613,0 13.0009184,0.402500199 13.0009184,0.89902773 L13.0009184,0.89902773 L13.0009184,13.9300792 L16.3021363,10.9696668 C16.6903457,10.6332228 17.3058569,10.6332228 17.6941249,10.9696668 C18.0921379,11.3145918 18.1031742,11.8837073 17.7187219,12.2408532 L17.7187219,12.2408532 L12.7075159,16.7375194 C12.3157843,17.0881334 11.6814292,17.0873959 11.2906369,16.7358865 L11.2906369,16.7358865 L6.28125073,12.2408532 C5.90624976,11.8924516 5.90624976,11.3401398 6.28125073,10.9917382 C6.66564435,10.6346451 7.29988207,10.6247419 7.69789501,10.9696668 L7.69789501,10.9696668 L10.997117,13.9301319 L10.997117,0.89902773 C10.997117,0.402500199 11.445674,0 11.9990177,0 Z" id="Combined-Shape"></path>
                        </g>
                    </g>
                </g>
            </g>
        </g>
    </g>
</svg>