<?xml version="1.0" encoding="UTF-8"?>
<svg width="380px" height="380px" viewBox="0 0 380 380" version="1.1" xmlns="http://www.w3.org/2000/svg" xmlns:xlink="http://www.w3.org/1999/xlink">
    <!-- Generator: Sketch 62 (91390) - https://sketch.com -->
    <title>padlock</title>
    <desc>Created with Sketch.</desc>
    <g id="202001_新書快讀-優化" stroke="none" stroke-width="1" fill="none" fill-rule="evenodd">
        <g id="2B_文章Paywall" transform="translate(-695.000000, -886.000000)" fill="#FC5A5A">
            <g id="main" transform="translate(223.000000, 240.000000)">
                <g id="article" transform="translate(103.000000, 0.000000)">
                    <g id="content" transform="translate(0.000000, 370.000000)">
                        <g id="Group" transform="translate(0.000000, 258.000000)">
                            <g id="BG">
                                <g id="padlock" transform="translate(369.000000, 18.000000)">
                                    <path d="M99,50.7032535 L86.0357143,31 C79.0335268,35.6102074 72.3407143,40.6746514 66,46.1608867 L81.4628571,64 C87.0176116,59.1951198 92.8751116,54.7537764 99,50.7032535 Z" id="Path"></path>
                                    <path d="M65,79.6222778 L47.3382047,64 C41.7862171,70.279543 36.6619293,76.9228401 32,83.8871831 L51.5621103,97 C55.6503318,90.9163245 60.1397064,85.1109871 65,79.6222778 Z" id="Path"></path>
                                    <path d="M190.00055,0 L189.929301,0 C161.487274,-0.0743077381 133.399269,6.30478286 107.778288,18.656246 L118.062009,40.0312093 C140.478975,29.2405638 165.050505,23.6741671 189.929301,23.7506123 L190.00055,23.7506123 C281.817784,23.7506123 356.250069,98.1829843 356.250069,190.000327 C356.250069,281.817669 281.817784,356.250041 190.00055,356.250041 C98.1833162,356.250041 23.7510318,281.817669 23.7510318,190.000327 C23.679782,164.550761 29.5089058,139.430726 40.7797325,116.612953 L19.4047944,106.139221 C6.54346448,132.21816 -0.098352219,160.922955 0,190.000327 C0,294.934326 85.0666745,380 190.00055,380 C294.934426,380 380,294.934326 380,190.000327 C380,85.0663272 294.934426,0 190.00055,0 Z" id="Path"></path>
                                    <path d="M226.197865,285 L226.197865,201.736465 C252.48488,182.087231 257.812787,144.920457 238.097153,118.721973 C218.38152,92.5234884 181.08915,87.2135257 154.802135,106.86276 C128.51512,126.511993 123.187213,163.678767 142.902847,189.877251 C146.285219,194.371893 150.292305,198.365483 154.802135,201.736465 L154.802135,285 L226.197865,285 L226.197865,285 Z M190.5,118.971016 C210.215633,118.971016 226.197869,134.899422 226.197869,154.548656 C226.203815,167.208366 219.388497,178.89562 208.348932,185.157285 L202.399288,188.584597 L202.399288,261.281574 L178.600712,261.281574 L178.600712,188.584597 L172.651068,185.157285 C161.611503,178.89562 154.796185,167.208366 154.802131,154.548656 C154.802131,134.899422 170.78511,118.971016 190.5,118.971016 Z" id="Shape"></path>
                                </g>
                            </g>
                        </g>
                    </g>
                </g>
            </g>
        </g>
    </g>
</svg>