<?xml version="1.0" encoding="utf-8"?>
<!-- Generator: Adobe Illustrator 23.0.6, SVG Export Plug-In . SVG Version: 6.00 Build 0)  -->
<svg version="1.1" id="圖層_1" xmlns="http://www.w3.org/2000/svg" xmlns:xlink="http://www.w3.org/1999/xlink" x="0px" y="0px"
	 viewBox="0 0 24 24" style="enable-background:new 0 0 24 24;" xml:space="preserve">
<style type="text/css">
	.st0{fill:#FF4940;}
</style>
<title>資產 2</title>
<g>
	<path class="st0" d="M15.4,7.9c-0.3,0-0.5,0.2-0.5,0.5v3.9l-0.1-0.1L8.8,8C8.6,7.9,8.4,7.9,8.3,8C8.2,8,8.1,8.2,8.1,8.4v8
		c0,0.3,0.2,0.5,0.5,0.5s0.5-0.2,0.5-0.5v-7l4.6,3.2L9.9,15c-0.2,0.1-0.3,0.5-0.2,0.7s0.5,0.3,0.7,0.2l4.4-2.8
		c0.1,0,0.1-0.1,0.1-0.1v3.5c0,0.3,0.2,0.5,0.5,0.5s0.5-0.2,0.5-0.5v-8C15.9,8.1,15.7,7.9,15.4,7.9z"/>
</g>
</svg>
