<?xml version="1.0" encoding="utf-8"?>
<!-- Generator: Adobe Illustrator 23.0.6, SVG Export Plug-In . SVG Version: 6.00 Build 0)  -->
<svg version="1.1" id="圖層_1" xmlns="http://www.w3.org/2000/svg" xmlns:xlink="http://www.w3.org/1999/xlink" x="0px" y="0px"
	 viewBox="0 0 24 24" style="enable-background:new 0 0 24 24;" xml:space="preserve">
<style type="text/css">
	.st0{fill:#FF4940;}
</style>
<title>資產 2</title>
<g>
	<path class="st0" d="M17.7,15.4l-4-4.4V7.8c0-0.4-0.2-0.7-0.5-0.9c-0.3-0.2-0.7-0.2-1,0l-1.3,0.9L10.2,7C9.6,6.6,8.8,6.5,8.3,7
		s-0.5,1.2,0,1.8l0.5,0.5L7.9,9.8H6.4c-0.4,0-0.7,0.3-0.8,0.7H5.4c-0.8,0-1.4,0.6-1.4,1.4v1.5c0,0.8,0.6,1.4,1.4,1.4h0.2
		c0,0.4,0.4,0.7,0.8,0.7H8l4.2,2.8c0.4,0.3,1.1,0.2,1.4-0.3c0.1-0.2,0.2-0.4,0.2-0.5v-2.7l2.1,2.3c0.2,0.3,0.6,0.4,0.9,0.4
		s0.6-0.1,0.8-0.3C18.1,16.7,18.1,15.9,17.7,15.4z M5.6,13.9H5.4c-0.3,0-0.6-0.3-0.6-0.6v-1.5c0-0.3,0.3-0.6,0.6-0.6h0.2V13.9z
		 M7.7,14.6H6.4l0,0v-4.1l0,0h1.3V14.6z M12.6,7.6c0.1,0,0.1,0,0.2,0c0.1,0,0.1,0.1,0.1,0.2v2.4l-1.5-1.7L12.6,7.6z M12.9,17.4
		c0,0.1,0,0.1-0.1,0.2c-0.1,0-0.1,0-0.2,0l-4.1-2.7v-4.5l0.8-0.5l3.6,4V17.4z M17.1,16.6c-0.1,0.1-0.2,0.1-0.3,0.1
		c-0.1,0-0.3-0.1-0.4-0.2l-3.3-3.6l-0.2-0.2l0,0L8.8,8.2C8.6,8,8.6,7.7,8.8,7.5s0.5-0.2,0.7,0l0.6,0.7l0,0l0.5,0.6l0,0l2.4,2.6
		l0.6,0.6l0,0l3.4,3.8C17.3,16.1,17.3,16.4,17.1,16.6z"/>
</g>
</svg>
