<?xml version="1.0" encoding="UTF-8"?>
<svg width="60px" height="60px" viewBox="0 0 60 60" version="1.1" xmlns="http://www.w3.org/2000/svg" xmlns:xlink="http://www.w3.org/1999/xlink">
    <!-- Generator: Sketch 58 (84663) - https://sketch.com -->
    <title>Shape</title>
    <desc>Created with Sketch.</desc>
    <g id="Guidelines" stroke="none" stroke-width="1" fill="none" fill-rule="evenodd">
        <g id="Components/Alerts" transform="translate(-654.000000, -457.000000)" fill="#FC5A5A">
            <g id="box" transform="translate(536.000000, 407.000000)">
                <g id="content" transform="translate(100.000000, 50.000000)">
                    <path d="M48,0 C31.4324288,0 18,13.4324288 18,30 C18,46.5694589 31.4324288,60 48,60 C64.5694589,60 78,46.5713467 78,30 C78,13.4324288 64.5692492,0 48,0 Z M48.25,54.5 C34.8565645,54.5 24,43.6434355 24,30.25 C24,16.8565645 34.8565645,6 48.25,6 C61.6434355,6 72.5,16.8565645 72.5,30.25 C72.5,43.6434355 61.6434355,54.5 48.25,54.5 Z M48.25,13 C46.1152403,13 44.5,14.1225433 44.5,15.9357047 L44.5,32.5661851 C44.5,34.3812364 46.115032,35.5 48.25,35.5 C50.3326619,35.5 52,34.3344112 52,32.5661851 L52,15.9357047 C51.9997916,14.1655888 50.3326619,13 48.25,13 Z M48.2509455,39.5 C46.1830088,39.5 44.5,41.1826317 44.5,43.2517856 C44.5,45.3173683 46.1830088,47 48.2509455,47 C50.3188822,47 52,45.3173683 52,43.2517856 C51.9997899,41.1824216 50.3188822,39.5 48.2509455,39.5 Z" id="Shape"></path>
                </g>
            </g>
        </g>
    </g>
</svg>