<?xml version="1.0" encoding="UTF-8"?>
<svg width="20px" height="26px" viewBox="0 0 20 26" version="1.1" xmlns="http://www.w3.org/2000/svg" xmlns:xlink="http://www.w3.org/1999/xlink">
    <!-- Generator: Sketch 62 (91390) - https://sketch.com -->
    <title>icon_info-menu</title>
    <desc>Created with Sketch.</desc>
    <g id="202001_新書快讀-優化" stroke="none" stroke-width="1" fill="none" fill-rule="evenodd">
        <g id="2C_單集影音-分頁、分享按鈕" transform="translate(-1129.000000, -790.000000)" fill="#1A1A1A" fill-rule="nonzero">
            <g id="icon_info-menu" transform="translate(1129.000000, 790.000000)">
                <path d="M1.5,25.2 C0.7,25.2 0,24.5 0,23.7 L0,1.5 C0,0.9 0.3,0.4 0.8,0.2 C1.3,-0.1 1.9,1.94289029e-16 2.4,0.3 L19,11.9 C19.4,12.2 19.7,12.7 19.6,13.2 C19.6,13.7 19.3,14.2 18.9,14.4 L6.7,22.2 C6,22.6 5.1,22.4 4.6,21.7 C4.2,21 4.4,20.1 5.1,19.6 L15.4,13 L3,4.4 L3,23.7 C3,24.6 2.3,25.2 1.5,25.2 Z" id="Path"></path>
            </g>
        </g>
    </g>
</svg>