<?xml version="1.0" encoding="UTF-8"?>
<svg width="50px" height="50px" viewBox="0 0 50 50" version="1.1" xmlns="http://www.w3.org/2000/svg" xmlns:xlink="http://www.w3.org/1999/xlink">
    <title>icon_quick-nav--1</title>
    <g id="202008_新書快讀-優化2" stroke="none" stroke-width="1" fill="none" fill-rule="evenodd">
        <g id="1-1-新書快讀_首頁" transform="translate(-216.000000, -833.000000)" fill="#FFFFFF">
            <g id="Group-14" transform="translate(176.000000, 818.000000)">
                <path d="M65.1428571,15 L65.1428571,18.125 L49.4285714,18.125 L49.4285714,54.0625 L74.5714286,54.0625 L74.5714286,58.75 C74.5714286,60.4758789 75.9785446,61.875 77.7142857,61.875 C79.4500268,61.875 80.8571429,60.4758789 80.8571429,58.75 L80.8571429,58.75 L80.8571429,40 L84,40 L84,58.75 C84,62.2017578 81.1857679,65 77.7142857,65 L77.7142857,65 L46.2857143,65 C42.8142321,65 40,62.2017578 40,58.75 L40,58.75 L40,54.0625 L46.2857143,54.0625 L46.2857143,15 L65.1428571,15 Z M71.4285714,57.1875 L43.1428571,57.1875 L43.1428571,58.75 C43.1428571,60.4758789 44.5499732,61.875 46.2857143,61.875 L46.2857143,61.875 L72.2724286,61.875 C71.7180089,60.9258789 71.4269018,59.8475586 71.4285714,58.75 L71.4285714,58.75 L71.4285714,57.1875 Z M76.7139002,17.2880737 C79.7561512,14.2373088 84.679125,14.2373088 87.721376,17.2880737 C90.7595413,20.3446113 90.7595413,25.2992547 87.721376,28.3557923 L87.721376,28.3557923 L71.4327399,44.7382073 L62.6276931,44.7382073 L59.5147191,47.8691037 L71.3222293,47.8691037 L71.3222293,51 L52,51 L60.4268205,42.5246636 L60.4268205,33.6689233 Z M78,48 L78,51 L75,51 L75,48 L78,48 Z M57,40 L57,43 L52,43 L52,40 L57,40 Z M71.7004556,40.0418628 L67.297154,40.0418628 L65.740667,41.607311 L70.1439686,41.607311 L71.7004556,40.0418628 Z M69.7657423,28.7033218 L63.5397944,34.9651144 L63.5397944,39.3937673 L69.7657423,33.1319746 L69.7657423,28.7033218 Z M57,34 L57,37 L52,37 L52,34 L57,34 Z M81.0393775,30.6491738 L76.6360758,30.6491738 L70.4101279,36.9109665 L74.8134296,36.9109665 L81.0393775,30.6491738 Z M85.518947,19.500052 C83.6948415,17.6663251 80.7380027,17.66701 78.9147727,19.5016174 L78.9147727,19.5016174 L72.8787163,25.5724254 L72.8787163,30.0010783 L81.1172018,21.7151611 L83.3180744,23.9287048 L79.7490498,27.5182775 L84.1523514,27.5182775 L85.5205035,26.1422486 C87.3437334,24.3076411 87.3430524,21.3337788 85.518947,19.500052 Z M60,27 L60,30 L52,30 L52,27 L60,27 Z M65,21 L65,24 L52,24 L52,21 L65,21 Z M71,15 L71,18 L68,18 L68,15 L71,15 Z" id="icon_quick-nav--1"></path>
            </g>
        </g>
    </g>
</svg>