<?xml version="1.0" encoding="UTF-8"?>
<svg width="25px" height="26px" viewBox="0 0 25 26" version="1.1" xmlns="http://www.w3.org/2000/svg" xmlns:xlink="http://www.w3.org/1999/xlink">
    <title>icon-FACEBOOK</title>
    <g id="202008_新書快讀-優化2" stroke="none" stroke-width="1" fill="none" fill-rule="evenodd">
        <g id="2-1_單集影音" transform="translate(-1392.000000, -1239.000000)" fill="#FFFFFF" fill-rule="nonzero">
            <g id="Group-6" transform="translate(1380.000000, 1155.000000)">
                <g id="Group-8" transform="translate(0.000000, 73.000000)">
                    <g id="icon-FACEBOOK" transform="translate(12.000000, 11.000000)">
                        <path d="M21.3378907,0 L3.66210938,0 C1.64299013,0 0,1.70870974 0,3.80859375 L0,22.1914063 C0,24.2912902 1.64299013,26 3.66210938,26 L11.0351562,26 L11.0351562,16.8085937 L8.10546875,16.8085937 L8.10546875,12.2382813 L11.0351562,12.2382813 L11.0351562,9.140625 C11.0351562,6.62040712 13.0064011,4.5703125 15.4296875,4.5703125 L19.8730468,4.5703125 L19.8730468,9.140625 L15.4296875,9.140625 L15.4296875,12.2382813 L19.8730468,12.2382813 L19.140625,16.8085937 L15.4296875,16.8085937 L15.4296875,26 L21.3378907,26 C23.3570098,26 25,24.2912902 25,22.1914063 L25,3.80859375 C25,1.70870974 23.3570098,0 21.3378907,0 Z" id="Path"></path>
                    </g>
                </g>
            </g>
        </g>
    </g>
</svg>