<?xml version="1.0" encoding="UTF-8"?>
<svg width="25px" height="24px" viewBox="0 0 25 24" version="1.1" xmlns="http://www.w3.org/2000/svg" xmlns:xlink="http://www.w3.org/1999/xlink">
    <title>Combined Shape 2</title>
    <g id="202008_新書快讀-優化2" stroke="none" stroke-width="1" fill="none" fill-rule="evenodd">
        <g id="2-1_單集影音" transform="translate(-1187.000000, -649.000000)" fill="#FC5A5A" fill-rule="nonzero">
            <g id="Group-10" transform="translate(972.000000, 210.000000)">
                <g id="Group-9" transform="translate(0.000000, 423.000000)">
                    <g id="Combined-Shape-2" transform="translate(215.000000, 16.000000)">
                        <path d="M13.6466667,0.18785047 C13.8966667,-0.0195694493 14.2383333,-0.0572821618 14.5283333,0.0849976172 C14.8166667,0.22899161 15,0.528979096 15,0.858108224 L15,0.858108224 L15,23.1428929 C15,23.472022 14.8166667,23.7720095 14.5283333,23.9160035 C14.4133333,23.9725726 14.29,24 14.1666667,24 C13.9816667,24 13.7966667,23.9365741 13.645,23.8131507 L13.645,23.8131507 L5.54,17.1431432 L1.66666667,17.1431432 C0.748333333,17.1431432 0,16.373461 0,15.428929 L0,15.428929 L0,8.57207215 C0,7.62754012 0.748333333,6.85785794 1.66666667,6.85785794 L1.66666667,6.85785794 L5.54,6.85785794 Z M13.3333333,2.64260521 L6.66666667,8.12809067 L6.66666667,15.8729105 L13.3333333,21.3583959 L13.3333333,2.64260521 Z M20.248739,3.24674618 C20.5821005,2.91942982 21.1268201,2.91775984 21.4636184,3.24173624 C23.74388,5.43943181 25,8.37191922 25,11.4997945 C25,14.6276697 23.74388,17.5601571 21.4636184,19.7578527 C21.2952193,19.9198409 21.0769877,20 20.8587562,20 C20.637088,20 20.4171381,19.9181709 20.248739,19.7528427 C19.9153775,19.4255264 19.9170958,18.8961423 20.2538941,18.5721659 C22.2059492,16.6900968 23.2816416,14.1784447 23.2816416,11.4997945 C23.2816416,8.82114423 22.2059492,6.30949214 20.2538941,4.42742306 C19.9170958,4.10344666 19.9153775,3.57406254 20.248739,3.24674618 Z M18.2500139,5.26251502 C18.5844954,4.91634932 19.129321,4.91105086 19.4689749,5.25545042 C21.1017275,6.90856827 22,9.12508846 22,11.5005623 C22,13.8760361 21.1017275,16.0925563 19.4689749,17.743908 C19.30001,17.9152247 19.0810453,18 18.8620806,18 C18.6413918,18 18.4189788,17.9134586 18.2500139,17.7386096 C17.9138083,17.3906777 17.9172565,16.8325738 18.2569104,16.4899404 C19.5586297,15.1706252 20.2758685,13.3991752 20.2758685,11.5005623 C20.2758685,9.60194938 19.5586297,7.83049938 18.2569104,6.51118417 C17.9189807,6.16855077 17.9155324,5.61044688 18.2500139,5.26251502 Z M5,8.57207215 L1.66666667,8.57207215 L1.66666667,15.428929 L5,15.428929 L5,8.57207215 Z" id="Combined-Shape"></path>
                    </g>
                </g>
            </g>
        </g>
    </g>
</svg>