<?xml version="1.0" encoding="UTF-8"?>
<svg width="14px" height="17px" viewBox="0 0 14 17" version="1.1" xmlns="http://www.w3.org/2000/svg" xmlns:xlink="http://www.w3.org/1999/xlink">
    <title>icon_info-menu</title>
    <g id="202008_新書快讀-優化2" stroke="none" stroke-width="1" fill="none" fill-rule="evenodd">
        <g id="2-1_單集影音" transform="translate(-1007.000000, -473.000000)" fill="#C9C9C9" fill-rule="nonzero">
            <g id="Group-10" transform="translate(972.000000, 210.000000)">
                <g id="Group-Copy-2" transform="translate(16.000000, 224.000000)">
                    <g id="icon_info-menu" transform="translate(19.000000, 39.000000)">
                        <path d="M1.07037013,17 C0.499506063,17 0,16.5274241 0,15.9873373 L0,0.999929363 C0,0.594864284 0.214074027,0.257310051 0.570864072,0.122288358 C0.927654117,-0.0802441821 1.35580217,-0.0127333355 1.71259222,0.189799204 L13.5580217,8.02105741 C13.8434537,8.22358995 14.0575278,8.56114418 13.9861698,8.89869841 C13.9861698,9.23625264 13.7720957,9.57380688 13.4866637,9.70882857 L4.7809866,14.9746746 C4.28148054,15.244718 3.63925846,15.1096963 3.28246841,14.6371204 C2.99703638,14.1645444 3.1397524,13.5569468 3.63925846,13.2193926 L10.9891334,8.76367672 L2.14074027,2.95774391 L2.14074027,15.9873373 C2.14074027,16.5949349 1.64123421,17 1.07037013,17 Z" id="Path"></path>
                    </g>
                </g>
            </g>
        </g>
    </g>
</svg>