<?xml version="1.0" encoding="UTF-8"?>
<svg width="50px" height="49px" viewBox="0 0 50 49" version="1.1" xmlns="http://www.w3.org/2000/svg" xmlns:xlink="http://www.w3.org/1999/xlink">
    <title>icon_quick-nav--2</title>
    <g id="202008_新書快讀-優化2" stroke="none" stroke-width="1" fill="none" fill-rule="evenodd">
        <g id="1-1-新書快讀_首頁" transform="translate(-487.000000, -833.000000)" fill="#FFFFFF">
            <g id="Group-16" transform="translate(176.000000, 818.000000)">
                <g id="Group-13" transform="translate(270.000000, 0.000000)">
                    <path d="M66,15 C72.040625,15 76.9375,19.8721723 76.9375,25.8823249 L76.9375,25.8823249 L76.9375,34.2119674 L87.875,31.7012596 L87.875,40.4195565 C89.7767578,41.3170568 90.9919922,43.2208807 91,45.3150481 L91,45.3150481 L91,48.4242838 C90.9919922,50.5184512 89.7767578,52.4222751 87.875,53.3197754 L87.875,53.3197754 L87.875,59.8134141 L66,64 L60.009375,62.852692 L60.5984375,59.7994226 L64.4375,60.5332022 L64.4375,53.8654462 L67.5625,53.8654462 L67.5625,60.5332022 L84.75,57.2451854 L84.75,53.7861607 C82.0662109,53.4047935 80.0702148,51.1216429 80.0625,48.4242838 L80.0625,48.4242838 L80.0625,45.3150481 C80.0732422,42.6200209 82.068457,40.3403681 84.75,39.9593896 L84.75,39.9593896 L84.75,35.6157873 L67.5625,39.562962 L67.5625,44.5377391 L64.4375,44.5377391 L64.4375,39.562962 L47.25,35.6095688 L47.25,39.9531711 C49.9338867,40.3345383 51.9297852,42.6176889 51.9375,45.3150481 L51.9375,45.3150481 L51.9375,48.4242838 C51.9297852,51.1216429 49.9338867,53.4047935 47.25,53.7861607 L47.25,53.7861607 L47.25,57.2451854 L51.3921875,58.0380405 L50.803125,61.09131 L44.125,59.8134141 L44.125,53.3197754 C42.2232422,52.4222751 41.0080078,50.5184512 41,48.4242838 L41,48.4242838 L41,45.3150481 C41.0080078,43.2208807 42.2232422,41.3170568 44.125,40.4195565 L44.125,40.4195565 L44.125,31.7012596 L55.0625,34.2119674 L55.0625,25.8823249 C55.0625,19.8721723 59.959375,15 66,15 Z M54.4841344,59 L57,59.4841473 L56.5157855,62 L54,61.5158527 L54.4841344,59 Z M85.53125,42.9831213 C84.2368164,42.9831213 83.1875,44.0271443 83.1875,45.3150481 L83.1875,45.3150481 L83.1875,48.4242838 C83.1875,49.7121875 84.2368164,50.7562105 85.53125,50.7562105 C86.8256836,50.7562105 87.875,49.7121875 87.875,48.4242838 L87.875,48.4242838 L87.875,45.3150481 C87.875,44.0271443 86.8256836,42.9831213 85.53125,42.9831213 Z M46.46875,42.9831213 C45.1743164,42.9831213 44.125,44.0271443 44.125,45.3150481 L44.125,45.3150481 L44.125,48.4242838 C44.125,49.7121875 45.1743164,50.7562105 46.46875,50.7562105 C47.7631836,50.7562105 48.8125,49.7121875 48.8125,48.4242838 L48.8125,48.4242838 L48.8125,45.3150481 C48.8125,44.0271443 47.7631836,42.9831213 46.46875,42.9831213 Z M68,47 L68,50 L65,50 L65,47 L68,47 Z M68.94375,25.975602 L58.1875,28.6510993 L58.1875,34.9302008 L66,36.7242298 L73.8125,34.9302008 L73.8125,28.3976966 L68.94375,25.975602 Z M66,18.1092357 C61.8704102,18.1207982 58.4652344,21.3323472 58.2328125,25.434595 L58.2328125,25.434595 L69.30625,22.6798122 L73.709375,24.8702687 C73.2064453,21.0123874 69.9099609,18.1213812 66,18.1092357 Z" id="icon_quick-nav--2"></path>
                </g>
            </g>
        </g>
    </g>
</svg>