<?xml version="1.0" encoding="UTF-8"?>
<svg width="110px" height="91px" viewBox="0 0 110 91" version="1.1" xmlns="http://www.w3.org/2000/svg" xmlns:xlink="http://www.w3.org/1999/xlink">
    <!-- Generator: Sketch 61.2 (89653) - https://sketch.com -->
    <title>002-commerce-and-shopping</title>
    <desc>Created with Sketch.</desc>
    <g id="Desktop" stroke="none" stroke-width="1" fill="none" fill-rule="evenodd">
        <g id="20200112_新增付款成功" transform="translate(-665.000000, -263.000000)" fill="#888888">
            <g id="main" transform="translate(187.000000, 140.000000)">
                <g id="content">
                    <g transform="translate(389.000000, 118.000000)" id="info">
                        <g>
                            <g id="002-commerce-and-shopping" transform="translate(89.000000, 5.000000)">
                                <path d="M83.9458984,62.778507 L89.7245508,45.362839 C101.101172,44.1714486 110,34.4819045 110,22.7432553 C110,10.2025757 99.8441211,0 87.3608398,0 C75.971543,0 66.5214258,8.49318945 64.9519922,19.5057812 L24.8499023,19.5057812 L20.6505664,8.57391047 C20.1710352,7.32532464 18.9762891,6.50192707 17.644043,6.50192707 L3.22265625,6.50192707 C1.44289062,6.50192707 0,7.95145212 0,9.73940113 C0,11.5273501 1.44289062,12.9768752 3.22265625,12.9768752 L15.4333008,12.9768752 L36.4424414,73.3272766 C33.9745312,75.0945058 32.360625,77.9909659 32.360625,81.2605989 C32.360625,86.6309208 36.709707,91 42.0554492,91 C47.4011914,91 51.7502734,86.6309208 51.7502734,81.2605989 C51.7502734,80.115828 51.5511133,79.0172452 51.1882422,77.9961459 L65.2832813,77.9961459 C64.9204102,79.0172452 64.72125,80.115828 64.72125,81.2605989 C64.72125,86.6309208 69.070332,91 74.4160742,91 C79.7618164,91 84.1108984,86.6309208 84.1108984,81.2605989 C84.1108984,75.8902769 79.7618164,71.5211977 74.4160742,71.5211977 L42.6509961,71.5211977 L40.225625,64.9922917 L80.8886719,64.9922917 C82.275918,64.9922917 83.5071875,64.1004755 83.9458984,62.778507 Z M37.9063867,58.5173436 L33.5826563,45.4865105 L82.8897266,45.4865105 L78.5659961,58.5173436 L37.9063867,58.5173436 Z M87.3608398,6.47494812 C96.2901758,6.47494812 103.554688,13.7726463 103.554688,22.7432553 C103.554688,31.7138642 96.2901758,39.0115624 87.3608398,39.0115624 C78.4315039,39.0115624 71.1669922,31.7136484 71.1669922,22.7432553 C71.1669922,13.7728621 78.4315039,6.47494812 87.3608398,6.47494812 Z M71.557793,39.0115624 L31.4342187,39.0115624 L27.1104883,25.9807293 L64.952207,25.9807293 C65.6749414,31.0538512 68.0702344,35.5917106 71.557793,39.0115624 L71.557793,39.0115624 Z M45.3051758,81.2605989 C45.3051758,83.0606345 43.8474609,84.5250519 42.0556641,84.5250519 C40.2638672,84.5250519 38.8061523,83.0606345 38.8061523,81.2605989 C38.8061523,79.4605633 40.2638672,77.9961459 42.0556641,77.9961459 C43.8474609,77.9961459 45.3051758,79.4605633 45.3051758,81.2605989 Z M77.6660156,81.2605989 C77.6660156,83.0606345 76.2083008,84.5250519 74.4165039,84.5250519 C72.624707,84.5250519 71.1669922,83.0606345 71.1669922,81.2605989 C71.1669922,79.4605633 72.624707,77.9961459 74.4165039,77.9961459 C76.2083008,77.9961459 77.6660156,79.4605633 77.6660156,81.2605989 Z" id="Shape"></path>
                                <path d="M84,26.0521542 C84,27.6801512 85.5670667,29 87.5,29 C89.4329333,29 91,27.6801512 91,26.0521542 L91,18.9478458 C91,17.3198488 89.4329333,16 87.5,16 C85.5670667,16 84,17.3198488 84,18.9478458 L84,26.0521542 Z" id="Path"></path>
                            </g>
                        </g>
                    </g>
                </g>
            </g>
        </g>
    </g>
</svg>