<svg xmlns="http://www.w3.org/2000/svg" viewBox="0 0 24 24"><defs><style>.cls-1{fill:#fff;}</style></defs><title>資產 2</title><g id="圖層_2" data-name="圖層 2"><g id="圖層_1-2" data-name="圖層 1"><path class="cls-1" d="M12,0A12,12,0,1,0,24,12,12,12,0,0,0,12,0Zm0,23.5A11.5,11.5,0,1,1,23.5,12,11.51,11.51,0,0,1,12,23.5Z"/><path class="cls-1" d="M10.39,8a.49.49,0,0,0-.52,0,.48.48,0,0,0-.27.44v8a.5.5,0,0,0,1,0v-7l4.6,3.22L11.43,15a.5.5,0,0,0,.54.84l4.4-2.8a.49.49,0,0,0,.23-.41.53.53,0,0,0-.21-.42Z"/></g></g></svg>