<?xml version="1.0" encoding="UTF-8"?>
<svg width="28px" height="29px" viewBox="0 0 28 29" version="1.1" xmlns="http://www.w3.org/2000/svg" xmlns:xlink="http://www.w3.org/1999/xlink">
    <title>icon-LINE</title>
    <g id="202008_新書快讀-優化2" stroke="none" stroke-width="1" fill="none" fill-rule="evenodd">
        <g id="2-1_單集影音" transform="translate(-1390.000000, -1186.000000)" fill-rule="nonzero">
            <g id="Group-6" transform="translate(1380.000000, 1155.000000)">
                <g id="Group-7" transform="translate(0.000000, 21.000000)">
                    <g id="icon-LINE" transform="translate(10.000000, 10.000000)">
                        <rect id="Rectangle" fill="#D0021B" opacity="0" x="0" y="0" width="28" height="29"></rect>
                        <path d="M14,1 C6.2825,1 0,6.16299697 0,12.5081536 C0,18.1912068 4.98166667,22.9527156 11.7075,23.8578249 C12.1636667,23.9552621 12.7843333,24.1630498 12.9418333,24.5551465 C13.0818333,24.9108509 13.034,25.4602557 12.9861667,25.8312214 L12.7948333,27.0356859 C12.7423333,27.3913903 12.5148333,28.4361987 14.0186667,27.7975743 C15.5248333,27.1612977 22.0873333,22.9797163 25.0273333,19.5576753 C27.0386667,17.3271855 28,15.0415204 28,12.5081536 C28,6.16299697 21.7175,1 14,1 Z M8.52016669,16.2812032 L5.7365,16.2812032 C5.334,16.2812032 5.0015,15.9442818 5.0015,15.5380979 L5.0015,9.90200227 C5.0015,9.49464441 5.334,9.15772305 5.7365,9.15772305 C6.1425,9.15772305 6.4715,9.49464441 6.4715,9.90200227 L6.4715,14.7938187 L8.52016669,14.7938187 C8.92616669,14.7938187 9.254,15.1283921 9.254,15.5380979 C9.254,15.9442818 8.925,16.2812032 8.52016669,16.2812032 L8.52016669,16.2812032 Z M11.3971667,15.5380979 C11.3971667,15.9442818 11.0681667,16.2812032 10.661,16.2812032 C10.2585,16.2812032 9.9295,15.9442818 9.9295,15.5380979 L9.9295,9.90200227 C9.9295,9.49464441 10.2585,9.15772305 10.6645,9.15772305 C11.0681667,9.15772305 11.3971667,9.49464441 11.3971667,9.90200227 L11.3971667,15.5380979 Z M18.095,15.5380979 C18.095,15.8574101 17.892,16.1403301 17.591,16.2424631 C17.5163333,16.2671158 17.4358333,16.2788553 17.3588333,16.2788553 C17.1126667,16.2788553 16.9026667,16.1720266 16.7638333,15.9830219 L13.9136667,12.0644034 L13.9136667,15.536924 C13.9136667,15.9431078 13.5881667,16.2800292 13.1775,16.2800292 C12.7738333,16.2800292 12.4471667,15.9431078 12.4471667,15.536924 L12.4471667,9.90200227 C12.4471667,9.58269006 12.649,9.29977005 12.9488333,9.19881098 C13.0188333,9.1718103 13.1075,9.16007096 13.1751667,9.16007096 C13.4026667,9.16007096 13.6126667,9.28333482 13.7526667,9.46060011 L16.625,13.3944798 L16.625,9.90200227 C16.625,9.49464441 16.954,9.15772305 17.36,9.15772305 C17.7625,9.15772305 18.095,9.49464441 18.095,9.90200227 L18.095,15.5380979 Z M22.5925,11.9751839 C22.9996667,11.9751839 23.3275,12.3121052 23.3275,12.7206371 C23.3275,13.1279949 22.9996667,13.4649163 22.5925,13.4649163 L20.545,13.4649163 L20.545,14.7938187 L22.5925,14.7938187 C22.9996667,14.7938187 23.3275,15.1283921 23.3275,15.5380979 C23.3275,15.9442818 22.9996667,16.2812032 22.5925,16.2812032 L19.8088333,16.2812032 C19.4063333,16.2812032 19.0773333,15.9442818 19.0773333,15.5380979 L19.0773333,9.90200227 C19.0773333,9.49464441 19.4063333,9.15772305 19.8123333,9.15772305 L22.596,9.15772305 C22.9996667,9.15772305 23.3275,9.49464441 23.3275,9.90200227 C23.3275,10.3140559 22.9996667,10.6462815 22.5925,10.6462815 L20.545,10.6462815 L20.545,11.9751839 L22.5925,11.9751839 Z" id="Shape" fill="#FFFFFF"></path>
                    </g>
                </g>
            </g>
        </g>
    </g>
</svg>