<?xml version="1.0" encoding="utf-8"?>
<!-- Generator: Adobe Illustrator 23.0.6, SVG Export Plug-In . SVG Version: 6.00 Build 0)  -->
<svg version="1.1" id="圖層_1" xmlns="http://www.w3.org/2000/svg" xmlns:xlink="http://www.w3.org/1999/xlink" x="0px" y="0px"
	 viewBox="0 0 24 24" style="enable-background:new 0 0 24 24;" xml:space="preserve">
<style type="text/css">
	.st0{fill:#FFFFFF;}
</style>
<title>資產 2</title>
<g>
	<g>
		<path class="st0" d="M12,4.5c-0.1,0-0.2,0-0.2,0.1V3.4c0-0.2-0.1-0.4-0.3-0.4S11.2,2.9,11,3L8.5,4.6C8.3,4.7,8.3,4.8,8.3,5
			c0,0.2,0.1,0.3,0.2,0.4L11,7.2c0.1,0.1,0.2,0.1,0.3,0.1c0.1,0,0.2,0,0.2-0.1c0.2-0.1,0.3-0.3,0.3-0.4V5.5c0.1,0,0.1,0.1,0.2,0.1
			c3.6,0,6.5,2.9,6.5,6.5s-2.9,6.5-6.5,6.5S5.5,15.6,5.5,12c0-0.3-0.2-0.5-0.5-0.5S4.5,11.7,4.5,12c0,4.1,3.4,7.5,7.5,7.5
			c4.1,0,7.5-3.4,7.5-7.5C19.5,7.9,16.1,4.5,12,4.5z"/>
		<path class="st0" d="M10.7,14.5v-5h-0.4C10.2,9.7,10,10,9.8,10.2c-0.3,0.2-0.6,0.4-0.9,0.6v0.6c0.2-0.1,0.4-0.2,0.6-0.3
			s0.4-0.3,0.6-0.4v3.9H10.7z"/>
		<path class="st0" d="M13.6,14.1c-0.2,0-0.5-0.1-0.6-0.2c-0.2-0.2-0.3-0.4-0.3-0.7L12,13.2c0,0.4,0.2,0.8,0.5,1
			c0.3,0.3,0.7,0.4,1.1,0.4c0.6,0,1-0.2,1.3-0.6c0.3-0.3,0.4-0.7,0.4-1.2c0-0.5-0.2-0.9-0.5-1.2s-0.7-0.5-1.1-0.5
			c-0.3,0-0.6,0.1-0.9,0.3l0.3-1.3h2V9.6h-2.5l-0.5,2.6l0.6,0.1c0.1-0.1,0.2-0.3,0.4-0.4c0.2-0.1,0.3-0.1,0.5-0.1
			c0.3,0,0.6,0.1,0.8,0.3c0.2,0.2,0.3,0.5,0.3,0.8c0,0.4-0.1,0.7-0.3,0.9S13.9,14.1,13.6,14.1z"/>
	</g>
</g>
</svg>
