<?xml version="1.0" encoding="utf-8"?>
<!-- Generator: Adobe Illustrator 24.3.0, SVG Export Plug-In . SVG Version: 6.00 Build 0)  -->
<svg version="1.1" id="圖層_1" xmlns="http://www.w3.org/2000/svg" xmlns:xlink="http://www.w3.org/1999/xlink" x="0px" y="0px"
	 viewBox="0 0 23 24" style="enable-background:new 0 0 23 24;" xml:space="preserve">
<style type="text/css">
	.st0{fill:#FFFFFF;}
</style>
<g id="_x32_02008_x5F_新書快讀-優化2">
	<g id="M_1-1-新書快讀_首頁" transform="translate(-237.000000, -635.000000)">
		<g id="Group" transform="translate(0.000000, 627.000000)">
			<path id="icon_quick-nav--4_M" class="st0" d="M253.5,18c2,0,3.6,1.7,3.6,3.9c0,0.8-0.3,1.7-0.7,2.3l0,0h0c2,0,3.6,1.7,3.6,3.9
				l0,0V32h-1.4v-3.9c0-1.3-1-2.3-2.2-2.3l0,0h-12.2v1.6h7.2V32H237v-1.6h12.9v-1.6h-7.2v-4.7h7.9c-0.5-0.7-0.7-1.5-0.7-2.3
				C249.9,19.7,251.5,18,253.5,18z M257,29v3h-1v-3H257z M250,8v1.5h-11.6v18h2.9V29H237V8H250z M253.5,19.6c-1.2,0-2.2,1-2.2,2.3
				s1,2.3,2.2,2.3s2.2-1,2.2-2.3S254.7,19.6,253.5,19.6z M260,8v16h-1.5V9.5H257V8H260z M248,22v1h-8v-1H248z M249,17v1h-10v-1H249z
				 M258,13v1h-18v-1H258z M255,8v1h-1V8H255z M253,8v1h-1V8H253z"/>
		</g>
	</g>
</g>
</svg>
