<?xml version="1.0" encoding="utf-8"?>
<!-- Generator: Adobe Illustrator 24.3.0, SVG Export Plug-In . SVG Version: 6.00 Build 0)  -->
<svg version="1.1" id="圖層_1" xmlns="http://www.w3.org/2000/svg" xmlns:xlink="http://www.w3.org/1999/xlink" x="0px" y="0px"
	 viewBox="0 0 31 35" style="enable-background:new 0 0 31 35;" xml:space="preserve">
<style type="text/css">
	.st0{enable-background:new    ;}
	.st1{fill:#FFFFFF;}
	.st2{fill-rule:evenodd;clip-rule:evenodd;fill:#FFFFFF;}
</style>
<g id="_x32_02008_x5F_新書快讀-優化2">
	<g id="_x32_-2_x5F_單集影音-純聽版" transform="translate(-705.000000, -707.000000)">
		<g id="_x30_01-mouse" transform="translate(705.000000, 707.000000)">
			<g class="st0">
				<path class="st1" d="M0.8,31.2l0.5-0.6c0.4,0.4,1,0.7,1.6,0.7C3.6,31.3,4,31,4,30.5c0-0.5-0.4-0.7-0.9-0.9l-0.8-0.4
					C1.6,28.9,1,28.5,1,27.6C1,26.7,1.8,26,3,26c0.7,0,1.3,0.3,1.8,0.7l-0.5,0.6C3.9,27,3.5,26.8,3,26.8c-0.6,0-1,0.3-1,0.8
					c0,0.5,0.5,0.7,1,0.9l0.8,0.3c0.7,0.3,1.2,0.7,1.2,1.6c0,0.9-0.8,1.7-2.1,1.7C2,32.1,1.3,31.8,0.8,31.2z"/>
				<path class="st1" d="M5.7,29.1c0-1.9,1.2-3.1,2.7-3.1c0.7,0,1.3,0.4,1.7,0.7l-0.5,0.6c-0.3-0.3-0.7-0.5-1.2-0.5
					c-1,0-1.7,0.8-1.7,2.2c0,1.4,0.7,2.3,1.7,2.3c0.5,0,1-0.2,1.3-0.6l0.5,0.6c-0.5,0.5-1.1,0.8-1.8,0.8C6.8,32.1,5.7,31,5.7,29.1z"
					/>
				<path class="st1" d="M14.4,32l-1.3-2.4h-1V32h-0.9v-5.9h1.9c1.2,0,2.1,0.4,2.1,1.7c0,0.9-0.5,1.5-1.2,1.7l1.4,2.5H14.4z
					 M12.1,28.9H13c0.9,0,1.3-0.4,1.3-1.1s-0.5-1-1.3-1h-0.9V28.9z"/>
				<path class="st1" d="M16.1,29c0-1.9,1-3,2.6-3c1.5,0,2.6,1.1,2.6,3c0,1.9-1.1,3.1-2.6,3.1C17.2,32.1,16.1,30.9,16.1,29z
					 M20.3,29c0-1.4-0.6-2.2-1.6-2.2c-1,0-1.6,0.8-1.6,2.2c0,1.4,0.6,2.3,1.6,2.3C19.7,31.3,20.3,30.4,20.3,29z"/>
				<path class="st1" d="M22.5,26.1h0.9v5.1h2.5V32h-3.4V26.1z"/>
				<path class="st1" d="M26.9,26.1h0.9v5.1h2.5V32h-3.4V26.1z"/>
			</g>
			<g id="icons_close-W" transform="translate(4.000000, 2.000000)">
				<path id="Path_1" class="st2" d="M12,14.6L4.7,7.3c-0.4-0.4-1-0.4-1.4,0c-0.4,0.4-0.4,1,0,1.4l8,8c0.4,0.4,1,0.4,1.4,0l8-8
					c0.4-0.4,0.4-1,0-1.4c-0.4-0.4-1-0.4-1.4,0L12,14.6z"/>
			</g>
		</g>
	</g>
</g>
</svg>
