<?xml version="1.0" encoding="UTF-8"?>
<svg width="92px" height="92px" viewBox="0 0 92 92" version="1.1" xmlns="http://www.w3.org/2000/svg" xmlns:xlink="http://www.w3.org/1999/xlink">
    <!-- Generator: Sketch 54.1 (76490) - https://sketchapp.com -->
    <title>Group 2</title>
    <desc>Created with Sketch.</desc>
    <g id="Desktop" stroke="none" stroke-width="1" fill="none" fill-rule="evenodd">
        <g id="2.1.1-管理學程/列表/{空資料}" transform="translate(-468.000000, -444.000000)" fill="#888888">
            <g id="main" transform="translate(187.000000, 352.000000)">
                <g id="new">
                    <g id="info" transform="translate(0.000000, 88.000000)">
                        <g id="Group-2" transform="translate(277.000000, 0.000000)">
                            <g id="icon/system/defualt/message">
                                <path d="M4.16666667,41.6666667 C4.16666667,20.7259259 24.8657407,4.16666667 50,4.16666667 C75.1342593,4.16666667 95.8333333,20.7259259 95.8333333,41.6666667 C95.8333333,59.5471675 80.6173058,74.5481545 59.9664251,78.2804325 L35.9705699,95.1266928 C33.1131444,97.1327449 29.2035405,94.9457286 29.4176314,91.4610062 L30.3930387,75.5844648 C14.6719922,69.5138749 4.16666667,56.5005505 4.16666667,41.6666667 Z M55.9443443,70.9221994 C56.4592045,70.5607424 57.0492265,70.3205568 57.6701545,70.2196582 C75.0659845,67.3928963 87.5,55.3566064 87.5,41.6666667 C87.5,25.7884242 70.8894698,12.5 50,12.5 C29.1105302,12.5 12.5,25.7884242 12.5,41.6666667 C12.5,53.5135646 21.8131939,64.2545588 35.9965734,68.7209236 C37.8221171,69.2957897 39.0212589,71.040387 38.9038948,72.9507028 L38.2660225,83.3332432 L55.9443443,70.9221994 Z" id="system-icons/defualt/message"></path>
                            </g>
                            <path d="M52.7626953,48.6923828 L47.8408203,48.6923828 L47.1435547,28 L53.4599609,28 L52.7626953,48.6923828 Z M50.3017578,51.9326172 C51.2998097,51.9326172 52.1030243,52.2265596 52.7114258,52.8144531 C53.3198273,53.4023467 53.6240234,54.1542923 53.6240234,55.0703125 C53.6240234,55.9726608 53.3198273,56.7177705 52.7114258,57.3056641 C52.1030243,57.8935576 51.2998097,58.1875 50.3017578,58.1875 C49.3173779,58.1875 48.5209991,57.8935576 47.9125977,57.3056641 C47.3041962,56.7177705 47,55.9726608 47,55.0703125 C47,54.1679642 47.3041962,53.4194366 47.9125977,52.824707 C48.5209991,52.2299775 49.3173779,51.9326172 50.3017578,51.9326172 Z" id="!" fill-rule="nonzero"></path>
                        </g>
                    </g>
                </g>
            </g>
        </g>
    </g>
</svg>