<?xml version="1.0" encoding="utf-8"?>
<!-- Generator: Adobe Illustrator 23.0.6, SVG Export Plug-In . SVG Version: 6.00 Build 0)  -->
<svg version="1.1" id="圖層_1" xmlns="http://www.w3.org/2000/svg" xmlns:xlink="http://www.w3.org/1999/xlink" x="0px" y="0px"
	 viewBox="0 0 30 22" style="enable-background:new 0 0 30 22;" xml:space="preserve">
<style type="text/css">
	.st0{fill:#E5E5E5;}
</style>
<path id="Path_60" class="st0" d="M29.4,2h-2V1.4c0-0.3-0.2-0.5-0.4-0.6c-1.4-0.4-2.8-0.5-4.2-0.5c-2.9-0.1-5.7,0.9-7.8,2.9
	c-2.3-2.4-5.5-2.9-7.8-2.9C5.7,0.2,4.3,0.4,3,0.8C2.7,0.9,2.5,1.1,2.5,1.4V2h-2C0.3,2,0,2.3,0,2.6c0,0,0,0,0,0v18.6
	c0,0.3,0.3,0.6,0.6,0.6c0.1,0,0.2,0,0.3-0.1c4.4-2,9.3-2.4,14-1.2H15c0,0,0.1,0,0.1,0c8.1-2.1,14,1.1,14,1.2
	c0.3,0.2,0.6,0.1,0.8-0.2c0.1-0.1,0.1-0.2,0.1-0.3V2.6C30,2.3,29.7,2,29.4,2z M1.2,20.3V3.2h1.4v14.6c0,0.3,0.3,0.6,0.6,0.6
	c0,0,0.1,0,0.1,0c1.2-0.2,2.4-0.3,3.6-0.3c1.7,0,3.4,0.2,5,0.7C8.2,18.4,4.5,18.9,1.2,20.3z M6.9,16.9c-1.1,0-2.1,0.1-3.2,0.2V1.8
	C4.8,1.6,6,1.4,7.1,1.4c2.2,0,5.2,0.5,7.3,2.8l0,14.5C13.2,18,10.8,16.9,6.9,16.9z M15.6,4.3c1.9-1.9,4.5-3,7.3-2.8
	c1.2,0,2.3,0.1,3.4,0.4v15.3c-1-0.1-2.1-0.2-3.1-0.2c-4,0-6.3,1.1-7.6,1.9L15.6,4.3z M28.8,20.3c-3.4-1.4-7.1-1.9-10.7-1.4
	c1.6-0.5,3.3-0.8,5-0.7c1.2,0,2.4,0.1,3.7,0.3c0.3,0,0.6-0.2,0.7-0.5c0,0,0-0.1,0-0.1V3.2h1.4L28.8,20.3z"/>
</svg>
