<?xml version="1.0" encoding="utf-8"?>
<!-- Generator: Adobe Illustrator 23.0.6, SVG Export Plug-In . SVG Version: 6.00 Build 0)  -->
<svg version="1.1" id="圖層_1" xmlns="http://www.w3.org/2000/svg" xmlns:xlink="http://www.w3.org/1999/xlink" x="0px" y="0px"
	 viewBox="0 0 60 60" style="enable-background:new 0 0 60 60;" xml:space="preserve">
<style type="text/css">
	.st0{fill:#FAFAFA;}
	.st1{fill-rule:evenodd;clip-rule:evenodd;fill:#FAFAFA;}
</style>
<title>icon-webATM</title>
<desc>Created with Sketch.</desc>
<g id="Desktop">
	<g transform="translate(-814.000000, -465.000000)">
		<g id="main" transform="translate(187.000000, 140.000000)">
			<g id="content" transform="translate(243.000000, 0.000000)">
				<g id="Group-3" transform="translate(50.000000, 305.000000)">
					<g id="Group-2" transform="translate(35.000000, 16.000000)">
						<g id="icon-webATM" transform="translate(299.000000, 4.000000)">
							<path id="Shape" class="st0" d="M53.8,3.4H6.2c-2,0-3.7,1.6-3.7,3.7v30.2c0,0.5,0.4,0.9,0.9,0.9h53.2c0.5,0,0.9-0.4,0.9-0.9
								V7.1C57.5,5.1,55.9,3.4,53.8,3.4z M55.7,36.4H4.3V7.1c0-1,0.8-1.8,1.8-1.8h47.7c1,0,1.8,0.8,1.8,1.8V36.4z"/>
							<path class="st0" d="M56.6,36.4H3.4c-0.5,0-0.9,0.4-0.9,0.9v4.6c0,2,1.6,3.7,3.7,3.7h47.7c2,0,3.7-1.6,3.7-3.7v-4.6
								C57.5,36.8,57.1,36.4,56.6,36.4z M55.7,41.9c0,1-0.8,1.8-1.8,1.8H6.2c-1,0-1.8-0.8-1.8-1.8v-3.7h51.3V41.9L55.7,41.9z"/>
							<path id="Path" class="st0" d="M32.8,40.1h-5.5c-0.5,0-0.9,0.4-0.9,0.9s0.4,0.9,0.9,0.9h5.5c0.5,0,0.9-0.4,0.9-0.9
								S33.3,40.1,32.8,40.1z"/>
							<path class="st0" d="M52.9,7.1H7.1C6.6,7.1,6.2,7.5,6.2,8v29.3c0,0.5,0.4,0.9,0.9,0.9h45.8c0.5,0,0.9-0.4,0.9-0.9V8
								C53.8,7.5,53.4,7.1,52.9,7.1z M52,36.4H8V8.9h44V36.4z"/>
							<path class="st0" d="M41.9,51.1H18.1c-1.5,0-2.8,1.2-2.8,2.8c0,1.5,1.2,2.8,2.8,2.8h23.8c1.5,0,2.8-1.2,2.8-2.8
								C44.7,52.3,43.4,51.1,41.9,51.1z M41.9,54.8H18.1c-0.5,0-0.9-0.4-0.9-0.9c0-0.5,0.4-0.9,0.9-0.9h23.8c0.5,0,0.9,0.4,0.9,0.9
								C42.8,54.3,42.4,54.8,41.9,54.8z"/>
							<path class="st0" d="M40.1,51.1c-3,0-4.6-2.2-4.6-6.4c0-0.5-0.4-0.9-0.9-0.9h-9.2c-0.5,0-0.9,0.4-0.9,0.9
								c0,4.3-1.5,6.4-4.6,6.4c-0.5,0-0.9,0.4-0.9,0.9s0.4,0.9,0.9,0.9h20.2c0.5,0,0.9-0.4,0.9-0.9S40.6,51.1,40.1,51.1z M24.4,51.1
								c1.1-1.3,1.8-3.1,1.9-5.5h7.4c0.1,2.4,0.8,4.2,1.9,5.5H24.4z"/>
							<g id="Group-4" transform="translate(14.000000, 15.000000)">
								<path id="path-3_3_" class="st1" d="M9.6,12.4l-0.5-1.3H5.1l-0.5,1.3c-0.2,0.5-0.3,0.8-0.5,1c-0.1,0.2-0.3,0.3-0.6,0.3
									c-0.3,0-0.5-0.1-0.7-0.3c-0.2-0.2-0.3-0.4-0.3-0.6c0-0.1,0-0.3,0.1-0.4c0-0.1,0.1-0.3,0.2-0.6l2.6-6.5
									c0.1-0.2,0.2-0.4,0.3-0.7c0.1-0.3,0.2-0.5,0.3-0.7c0.1-0.2,0.3-0.3,0.5-0.4c0.2-0.1,0.4-0.2,0.7-0.2c0.3,0,0.5,0.1,0.7,0.2
									C8,3.6,8.1,3.8,8.3,3.9c0.1,0.2,0.2,0.4,0.3,0.5c0.1,0.2,0.2,0.5,0.3,0.8l2.6,6.5c0.2,0.5,0.3,0.8,0.3,1.1
									c0,0.2-0.1,0.4-0.3,0.6c-0.2,0.2-0.4,0.3-0.7,0.3c-0.2,0-0.3,0-0.4-0.1c-0.1-0.1-0.2-0.1-0.3-0.2c-0.1-0.1-0.2-0.2-0.2-0.5
									C9.8,12.7,9.7,12.6,9.6,12.4z M5.6,9.6h3L7.1,5.5L5.6,9.6z"/>
								<path id="path-4_3_" class="st1" d="M18.5,5.2h-2.2v7.3c0,0.4-0.1,0.7-0.3,0.9c-0.2,0.2-0.4,0.3-0.7,0.3
									c-0.3,0-0.5-0.1-0.7-0.3c-0.2-0.2-0.3-0.5-0.3-0.9V5.2h-2.2c-0.3,0-0.6-0.1-0.8-0.2c-0.2-0.2-0.3-0.4-0.3-0.6
									c0-0.3,0.1-0.5,0.3-0.6c0.2-0.2,0.4-0.2,0.8-0.2h6.4c0.4,0,0.6,0.1,0.8,0.2c0.2,0.2,0.3,0.4,0.3,0.6S19.5,4.8,19.3,5
									C19.1,5.1,18.9,5.2,18.5,5.2z"/>
								<path id="path-5_3_" class="st1" d="M24.2,12l-1.6-6.4v6.9c0,0.4-0.1,0.7-0.3,0.9c-0.2,0.2-0.4,0.3-0.7,0.3
									c-0.3,0-0.5-0.1-0.7-0.3c-0.2-0.2-0.3-0.5-0.3-0.9V4.6c0-0.4,0.1-0.7,0.3-0.9c0.2-0.2,0.5-0.2,0.9-0.2h0.6
									c0.4,0,0.7,0,0.8,0.1c0.2,0.1,0.3,0.2,0.4,0.4c0.1,0.2,0.2,0.5,0.3,0.9l1.5,5.5L27,4.9c0.1-0.4,0.2-0.7,0.3-0.9
									c0.1-0.2,0.2-0.3,0.4-0.4c0.2-0.1,0.4-0.1,0.8-0.1h0.6c0.4,0,0.7,0.1,0.9,0.2s0.3,0.4,0.3,0.9v7.9c0,0.4-0.1,0.7-0.3,0.9
									c-0.2,0.2-0.4,0.3-0.7,0.3c-0.3,0-0.5-0.1-0.7-0.3c-0.2-0.2-0.3-0.5-0.3-0.9V5.7L26.9,12c-0.1,0.4-0.2,0.7-0.3,0.9
									c-0.1,0.2-0.2,0.4-0.4,0.5c-0.2,0.2-0.4,0.2-0.7,0.2c-0.2,0-0.4-0.1-0.6-0.2c-0.2-0.1-0.3-0.2-0.4-0.4
									c-0.1-0.2-0.2-0.3-0.2-0.5C24.3,12.4,24.2,12.2,24.2,12z"/>
							</g>
							<path class="st1" d="M23.1,11.5H7.8c-0.6,0-1.1,0.5-1.1,1.1c0,0.6,0.5,1.1,1.1,1.1h15.3c0.6,0,1.1-0.5,1.1-1.1
								C24.2,12,23.7,11.5,23.1,11.5z"/>
							<path class="st1" d="M52.1,32.3h-3.3c-0.6,0-1.1,0.5-1.1,1.1c0,0.6,0.5,1.1,1.1,1.1h3.3c0.6,0,1.1-0.5,1.1-1.1
								C53.2,32.8,52.7,32.3,52.1,32.3L52.1,32.3z"/>
							<path class="st1" d="M40.1,32.3h-3.3c-0.6,0-1.1,0.5-1.1,1.1c0,0.6,0.5,1.1,1.1,1.1h3.3c0.6,0,1.1-0.5,1.1-1.1
								C41.2,32.8,40.7,32.3,40.1,32.3z"/>
							<path class="st1" d="M44.5,32.3c-0.6,0-1.1,0.5-1.1,1.1s0.5,1.1,1.1,1.1c0.6,0,1.1-0.5,1.1-1.1S45.1,32.3,44.5,32.3z"/>
						</g>
					</g>
				</g>
			</g>
		</g>
	</g>
</g>
</svg>
