<?xml version="1.0" encoding="UTF-8"?>
<svg width="47px" height="50px" viewBox="0 0 47 50" version="1.1" xmlns="http://www.w3.org/2000/svg" xmlns:xlink="http://www.w3.org/1999/xlink">
    <title>icon_quick-nav--3</title>
    <g id="202008_新書快讀-優化2" stroke="none" stroke-width="1" fill="none" fill-rule="evenodd">
        <g id="1-1-新書快讀_首頁" transform="translate(-760.000000, -833.000000)" fill="#FFFFFF">
            <g id="Group-16" transform="translate(176.000000, 818.000000)">
                <g id="Group-12" transform="translate(541.000000, 0.000000)">
                    <path d="M53.3267165,26.771798 C59.578037,19.6516767 70.3206836,19.0341583 77.3209769,25.3923985 C80.9313404,28.6735544 82.9966398,33.3635716 83,38.2880063 C83.0152748,43.4447959 80.7453765,48.3340728 76.8204387,51.5984356 L76.8204387,51.5984356 L76.8204387,65 L55.1922448,65 L55.1922448,51.5984356 C50.600502,47.7868698 48.3169896,41.8008298 49.1796069,35.836788 C49.6537858,32.4655773 51.0965022,29.3118925 53.3267165,26.771798 Z M73.7306967,57.1435313 L58.2819868,57.1435313 L58.2819868,61.8574125 L73.7306967,61.8574125 L73.7306967,57.1435313 Z M75.2632087,27.7367687 C72.3012082,25.0255014 68.3306001,23.7505929 64.374958,24.2406401 C58.1291411,25.0147969 53.1612222,29.9371692 52.2369066,36.2673225 C51.4985548,41.3829639 53.5833582,46.4975251 57.6640384,49.5808944 L57.6640384,49.5808944 L58.2819868,50.0522826 L58.2819868,54.0009438 L61.3717288,54.0009438 L61.3717288,40.9592056 L66.0063417,33.8883838 L70.6409547,40.9592056 L70.6409547,54.0009438 L73.7306967,54.0009438 L73.7306967,50.0538539 L74.3486451,49.5824657 C75.0875762,49.0127735 75.7720506,48.3736498 76.3888403,47.6699066 C81.4898112,41.8493435 80.9858936,32.9249843 75.2632087,27.7367687 Z M66.0063417,39.5450413 L64.4614707,41.9019819 L64.4614707,54.0009438 L67.5512127,54.0009438 L67.5512127,41.9019819 L66.0063417,39.5450413 Z M46,37 L46,40 L43,40 L43,37 L46,37 Z M90,37 L90,40 L87,40 L87,37 L90,37 Z M46.4639458,26 L49,27.4638878 L47.5360542,30 L45,28.5361122 L46.4639458,26 Z M86.5360542,26 L88,28.5360542 L85.4639458,30 L84,27.4639458 L86.5360542,26 Z M56.5361122,17 L58,19.5360542 L55.4638878,21 L54,18.4638543 L56.5361122,17 Z M76.4638543,17 L79,18.4638878 L77.5360542,21 L75,19.5361122 L76.4638543,17 Z M68,15 L68,18 L65,18 L65,15 L68,15 Z" id="icon_quick-nav--3"></path>
                </g>
            </g>
        </g>
    </g>
</svg>