<?xml version="1.0" encoding="utf-8"?>
<!-- Generator: Adobe Illustrator 24.3.0, SVG Export Plug-In . SVG Version: 6.00 Build 0)  -->
<svg version="1.1" id="圖層_1" xmlns="http://www.w3.org/2000/svg" xmlns:xlink="http://www.w3.org/1999/xlink" x="0px" y="0px"
	 viewBox="0 0 23 24" style="enable-background:new 0 0 23 24;" xml:space="preserve">
<style type="text/css">
	.st0{fill:#FFFFFF;}
</style>
<g id="_x32_02008_x5F_新書快讀-優化2">
	<g id="M_1-1-新書快讀_首頁" transform="translate(-51.000000, -635.000000)">
		<g id="Group" transform="translate(0.000000, 627.000000)">
			<path id="icon_quick-nav--2_M" class="st0" d="M62.5,8c2.8,0,5,2.4,5,5.3l0,0v4.1l5-1.2v4.3c0.9,0.4,1.4,1.4,1.4,2.4l0,0v1.5
				c0,1-0.6,2-1.4,2.4l0,0v3.2L62.5,32l-2.8-0.6l0.3-1.5l1.8,0.4V27h1.4v3.3l7.9-1.6V27c-1.2-0.2-2.2-1.3-2.2-2.6l0,0v-1.5
				c0-1.3,0.9-2.4,2.2-2.6l0,0v-2.1L63.2,20v2.4h-1.4V20l-7.9-1.9v2.1c1.2,0.2,2.2,1.3,2.2,2.6l0,0v1.5c0,1.3-0.9,2.4-2.2,2.6l0,0
				v1.7l1.9,0.4l-0.3,1.5l-3.1-0.6v-3.2c-0.9-0.4-1.4-1.4-1.4-2.4l0,0v-1.5c0-1,0.6-2,1.4-2.4l0,0v-4.3l5,1.2v-4.1
				C57.5,10.4,59.7,8,62.5,8z M57.2,30l0.8,0.2L57.8,31L57,30.8L57.2,30z M71.5,21.7c-0.6,0-1.1,0.5-1.1,1.1l0,0v1.5
				c0,0.6,0.5,1.1,1.1,1.1s1.1-0.5,1.1-1.1l0,0v-1.5C72.6,22.2,72.1,21.7,71.5,21.7z M53.5,21.7c-0.6,0-1.1,0.5-1.1,1.1l0,0v1.5
				c0,0.6,0.5,1.1,1.1,1.1s1.1-0.5,1.1-1.1l0,0v-1.5C54.6,22.2,54.1,21.7,53.5,21.7z M64,24v1h-1v-1H64z M63.9,13.4l-4.9,1.3v3.1
				l3.6,0.9l3.6-0.9v-3.2L63.9,13.4z M62.5,9.5c-1.9,0-3.5,1.6-3.6,3.6l0,0l5.1-1.3l2,1.1C65.8,10.9,64.3,9.5,62.5,9.5z"/>
		</g>
	</g>
</g>
</svg>
