<?xml version="1.0" encoding="UTF-8"?>
<svg width="109px" height="34px" viewBox="0 0 109 34" version="1.1" xmlns="http://www.w3.org/2000/svg" xmlns:xlink="http://www.w3.org/1999/xlink">
    <!-- Generator: Sketch 54.1 (76490) - https://sketchapp.com -->
    <title>經理人</title>
    <desc>Created with Sketch.</desc>
    <g id="Symbols" stroke="none" stroke-width="1" fill="none" fill-rule="evenodd">
        <g id="main-header" transform="translate(-120.000000, -23.000000)" fill="#D61F43">
            <g id="logos" transform="translate(120.000000, 23.000000)">
                <g id="LOGOS">
                    <path d="M14.5108527,28.7246727 L13.9565891,28.8177257 L12.3263566,29.0914565 L11.7813953,29.1829585 L10.427907,21.5510651 L10.9418605,21.4300962 L12.5627907,21.05013 L13.1372093,20.9152032 L13.2403101,21.4967842 L14.5108527,28.7246727 Z M25.6341085,30.1359759 L35.3147287,30.1359759 L35.3147287,32.9647858 L13.3829457,32.9647858 L13.3829457,30.1359759 L22.8596899,30.1359759 L22.8596899,22.6397847 L14.6085271,22.6397847 L14.6085271,19.9249646 L34.2418605,19.9249646 L34.2418605,22.6397847 L25.6341085,22.6397847 L25.6341085,30.1359759 Z M50.1124031,26.8876522 L49.651938,27.1334671 C47.5744186,28.24545 43.9751938,29.4644437 38.9534884,30.7578799 L38.4875969,30.8780733 L37.4209302,28.3594399 L38.0294574,28.1872919 L42.148062,27.0156001 L42.148062,16.4067874 L37.724031,16.4067874 L37.724031,13.6958445 L42.148062,13.6958445 L42.148062,5.17219359 L37.724031,5.17219359 L37.724031,2.46667883 L49.4364341,2.46667883 L49.4364341,5.17219359 L44.9333333,5.17219359 L44.9333333,13.6958445 L49.1829457,13.6958445 L49.1829457,16.4067874 L44.9333333,16.4067874 L44.9333333,26.0920494 L48.5255814,24.6660129 L49.020155,24.4690508 L49.2403101,24.954477 L50.1124031,26.8876522 Z M12.4604651,19.5985039 L12.0217054,18.2251973 L9.32015504,18.505907 L9.32015504,34 L6.55271318,34 L6.55271318,18.7563746 L1.61162791,19.2441272 L1.12868217,19.2922045 L0.48372093,16.6308899 L1.13255814,16.576609 L2.81085271,16.4362542 C3.88294574,15.2002007 4.90542636,13.9137436 5.91937984,12.5295808 C4.12015504,10.7654518 2.43255814,9.41928568 0.772868217,8.43680153 L0.279844961,8.1452356 L0.584496124,7.65903389 L1.7372093,5.82356429 L2.21317829,6.13606714 L3.46124031,6.95570862 C4.30465116,5.38854171 5.12868217,3.60580213 5.91550388,1.64393559 L6.13565891,1.09569858 L6.67054264,1.34616613 L8.14186047,2.03708434 L8.61705426,2.259636 L8.42403101,2.74738859 C7.79767442,4.3316152 6.83255814,6.30743968 5.56046512,8.61592848 L7.41395349,10.2699448 C8.42790698,8.56630023 9.17829457,6.97276833 9.69767442,5.41878393 L9.86589147,4.91474707 L10.3767442,5.05742827 L11.9511628,5.49787894 L12.4968992,5.65064088 L12.3364341,6.19422524 C11.424031,9.27815536 9.48837209,12.579209 6.58217054,16.0198422 L10.9906977,15.5801669 L9.91007752,13.0747161 L12.0387597,12.3302924 L12.5364341,12.1565935 L12.7387597,12.6435707 C14.0317829,15.7569676 14.7813953,17.7366693 15.0984496,18.8750171 L15.2511628,19.4232541 L14.7,19.5643844 L13.1310078,19.9691648 L12.6209302,20.1002144 L12.4604651,19.5985039 Z M108.449612,30.2964923 L109,30.7408201 L108.441085,31.172741 L106.64186,32.5638827 L106.282946,32.8414907 L105.937984,32.5460475 L101.066667,28.3757241 L101.050388,28.3625416 L101.035659,28.3478082 C96.1565891,23.5051772 93.0356589,19.0239018 91.355814,14.4247594 C90.4317829,17.5932126 89.0046512,20.5678055 86.9341085,23.6563883 C84.6697674,26.8387994 81.4604651,29.5551704 76.2023256,32.7399079 L75.7829457,32.9927017 L74.1596899,30.9625964 L73.7317829,30.4267664 L74.3426357,30.1165899 C77.024031,28.7510377 79.3976744,27.4661315 81.3007752,25.550016 C86.7310078,20.4468367 89.3705426,13.3701592 89.3705426,3.91830498 L89.3705426,0.756830726 L92.6937984,0.756830726 L92.6937984,1.31437303 C92.6937984,1.31437303 92.6937984,3.79888701 92.6930233,3.82292569 C92.6930233,3.82292569 92.6248062,5.41878393 92.6255814,5.39552069 C92.6255814,5.39552069 92.6255814,5.74912193 92.6248062,5.71577795 C92.751938,7.84824157 93.2139535,10.0737582 93.9976744,12.3310678 C95.9387597,18.2034849 100.530233,23.9091821 108.449612,30.2964923 Z M33.3542636,6.99370524 L33.1488372,7.49619121 C32.3930233,9.34872052 31.5930233,10.9352735 30.772093,12.2178534 C31.4860465,13.0274141 32.5387597,14.6480865 33.8294574,16.927884 L34.0945736,17.3954751 L33.6379845,17.6777357 L32.2232558,18.553209 L31.6937984,18.8804452 L31.4263566,18.3182502 C30.2806202,15.9128313 29.2217054,14.1804954 28.1992248,13.0312913 C27.7914729,12.5939424 27.7767442,12.0247685 28.1666667,11.4997947 C29.2612403,10.096246 30.051938,8.45153492 30.5860465,6.47415956 L30.7550388,5.84605209 L31.3503876,6.1089267 L32.8581395,6.77425535 L33.3542636,6.99370524 Z M3.26511628,21.0865757 L4.91085271,21.4269945 L5.41627907,21.5309036 L5.35193798,22.0426949 C5.02868217,24.6326689 4.21162791,27.7003147 2.85193798,31.4232085 L2.67596899,31.905533 L2.18139535,31.7713817 L0.580620155,31.33791 L-1.687539e-14,31.1804954 L0.2,30.6136478 C1.49224806,26.9465858 2.29922481,23.9014277 2.59922481,21.5634722 L2.6751938,20.9656069 L3.26511628,21.0865757 Z M33.9496124,5.15901108 L13.5054264,5.15901108 L13.5054264,2.46667883 L34.5077519,2.46667883 L34.5077519,5.15901108 L33.9496124,5.15901108 Z M21.6782946,13.6493181 C21.3108527,13.2057656 20.4511628,12.1682252 21.2085271,11.396661 L21.1844961,11.4222506 C22.3658915,10.0574739 23.3674419,8.3949277 24.2472868,6.34078365 L24.4953488,5.76152899 L25.0403101,6.0771336 L26.4565891,6.8991014 L26.9333333,7.17670939 L26.6627907,7.65670757 C25.448062,9.80855722 24.5023256,11.3144643 23.7713178,12.2636044 C24.6356589,13.2398851 25.7372093,14.8295398 27.055814,17.0093053 L27.3348837,17.469142 L25.5155039,18.6633216 L24.9976744,19.0045158 L24.7131783,18.4524016 C23.596124,16.2842677 22.5511628,14.627925 21.6782946,13.6493181 Z M19.9829457,7.05806687 L19.7488372,7.55512475 C18.7744186,9.62710395 17.8736434,11.2532044 17.0643411,12.4039593 C17.8875969,13.4554577 18.8534884,15.077681 20.0178295,17.3691101 L20.255814,17.8382521 L19.8023256,18.1050039 L18.375969,18.9401542 L17.8232558,19.2635132 L17.5782946,18.671076 C16.7643411,16.7061077 15.9294574,15.1218811 15.0348837,13.8431784 C14.7248062,13.4306436 13.9015504,12.334945 14.5193798,11.5920723 C15.5968992,10.2761483 16.5162791,8.53528258 17.251938,6.41910322 L17.4589147,5.82511518 L18.024031,6.10117228 L19.4883721,6.81612918 L19.9829457,7.05806687 Z M67.1682171,10.9880035 L67.1682171,10.8174064 L65.6139535,9.50691055 L64.3604651,10.9880035 L67.1682171,10.9880035 Z M67.1682171,17.1713725 L67.1682171,13.6392373 L62.0620155,13.6477672 L59.0806202,17.1713725 L67.1682171,17.1713725 Z M53.1837209,7.88081011 L58.3511628,11.7960133 L58.527907,11.9084523 L58.527907,5.39086804 L53.1837209,5.39086804 L53.1837209,7.88081011 Z M53.1837209,17.1713725 L57.4139535,17.1713725 L53.1837209,13.2833098 L53.1837209,17.1713725 Z M61.1488372,5.74214295 L61.1488372,9.05405282 L62.9945736,7.29845368 L61.1488372,5.74214295 Z M70.7829457,-1.77635684e-14 L72.5108527,1.35236966 L67.444186,7.34342928 L69.4976744,9.07498974 L70.0015504,9.49993158 L70.0015504,20.0056105 L61.296124,20.0056105 L61.296124,23.0213018 L70.5984496,23.0213018 L70.5984496,25.7423254 L61.296124,25.7423254 L61.296124,30.1359759 L71.8852713,30.1359759 L71.8852713,32.9647858 L48.0186047,32.9647858 L48.0186047,30.1359759 L58.5217054,30.1359759 L58.5217054,25.7423254 L49.7100775,25.7423254 L49.7100775,23.0213018 L58.5217054,23.0213018 L58.5217054,20.0056105 L50.3503876,20.0056105 L50.3503876,10.6793778 L49.1124031,9.54258085 L50.3503876,8.44920859 L50.3503876,2.55740546 L61.7674419,2.55740546 L65.075969,5.34666788 L70.7829457,-1.77635684e-14 Z" id="經理人"></path>
                </g>
            </g>
        </g>
    </g>
</svg>