<?xml version="1.0" encoding="UTF-8"?>
<svg width="161px" height="34px" viewBox="0 0 161 34" version="1.1" xmlns="http://www.w3.org/2000/svg" xmlns:xlink="http://www.w3.org/1999/xlink">
    <!-- Generator: Sketch 54.1 (76490) - https://sketchapp.com -->
    <title>IMG_logo-mschool</title>
    <desc>Created with Sketch.</desc>
    <g id="IMG_logo-mschool" stroke="none" stroke-width="1" fill="none" fill-rule="evenodd">
        <path d="M151.819161,15.155708 L155.172805,15.155708 L155.172805,13.9913648 L151.819161,13.9913648 L151.819161,15.155708 Z M145.781483,15.155708 L148.987302,15.155708 L148.987302,13.9913648 L145.781483,13.9913648 L145.781483,15.155708 Z M151.819161,12.3186236 L155.172805,12.3186236 L155.172805,11.1542804 L151.819161,11.1542804 L151.819161,12.3186236 Z M145.781483,12.3186236 L148.987302,12.3186236 L148.987302,11.1542804 L145.781483,11.1542804 L145.781483,12.3186236 Z M151.819161,18.1146796 L151.819161,16.9503363 L157.905582,16.9503363 L157.905582,9.36045396 L151.819161,9.36045396 L151.819161,8.26908261 L159.123345,8.26908261 L159.123345,6.08714178 L151.819161,6.08714178 L151.819161,5.26199768 C152.241063,5.16496907 152.440029,5.04388379 152.4648,4.82657178 L159.818525,4.82657178 L159.818525,2.27977132 L150.750821,2.27977132 L150.750821,0.897314142 C151.223064,0.799483646 151.39646,0.65434168 151.42203,0.412171107 L147.644885,0.218113893 L147.644885,2.27977132 L138.676265,2.27977132 L138.676265,9.38370875 C138.676265,12.9978239 138.526841,18.0906229 136.465273,21.582049 C137.110911,21.8723329 138.378216,22.6982789 138.87523,23.1818182 C141.136563,19.3752496 141.508124,13.3610798 141.508124,9.38370875 L141.508124,4.82657178 L148.987302,4.82657178 L148.987302,6.08714178 L142.453409,6.08714178 L142.453409,8.26908261 L148.987302,8.26908261 L148.987302,9.36045396 L143.172561,9.36045396 L143.172561,16.9503363 L148.987302,16.9503363 L148.987302,18.1146796 L141.409041,18.1146796 L141.409041,20.4658191 L148.987302,20.4658191 L148.987302,23.1096481 L151.819161,23.1096481 L151.819161,20.4658191 L159.967949,20.4658191 L159.967949,18.1146796 L151.819161,18.1146796 Z M113.459611,13.1918811 L119.744996,13.1918811 L119.744996,11.0091384 L113.459611,11.0091384 L113.459611,13.1918811 Z M113.459611,9.86965368 L119.744996,9.86965368 L119.744996,7.66285429 L113.459611,7.66285429 L113.459611,9.86965368 Z M115.645832,19.4722782 L117.484463,19.4722782 L117.484463,16.6592505 L115.645832,16.6592505 L115.645832,19.4722782 Z M113.385298,14.3802811 L113.385298,22.7455904 L115.645832,22.7455904 L115.645832,21.7512476 L119.820108,21.7512476 L119.820108,14.3802811 L113.385298,14.3802811 Z M112.466382,6.54742625 L120.341892,6.54742625 L120.341892,4.24359825 L112.466382,4.24359825 L112.466382,6.54742625 Z M113.583465,3.17628357 L119.720226,3.17628357 L119.720226,0.97028607 L113.583465,0.97028607 L113.583465,3.17628357 Z M123.371918,18.3079349 L125.832216,18.3079349 L125.832216,16.9984497 L123.371918,16.9984497 L123.371918,18.3079349 Z M123.371918,15.083538 L125.832216,15.083538 L125.832216,13.8470247 L123.371918,13.8470247 L123.371918,15.083538 Z M135.844405,10.7910245 L135.844405,8.51205507 L131.793983,8.51205507 C131.770011,6.83771018 131.793983,5.09199714 131.818754,2.95736779 C132.639386,4.2925135 133.359337,5.89308457 133.608643,7.03256928 L135.968259,6.08714178 C135.64544,4.82657178 134.750496,3.03114161 133.757267,1.69679779 L131.818754,2.40085661 L131.844324,0.897314142 C132.341337,0.799483646 132.515532,0.630285001 132.515532,0.363255859 L129.136318,0.242972462 C129.136318,3.15222689 129.136318,5.94119793 129.186659,8.51205507 L127.07475,8.51205507 C127.39677,7.66285429 127.694819,6.45039764 127.869013,5.62605543 C128.191832,5.62605543 128.416367,5.50416825 128.465909,5.35902629 L126.104694,4.80091132 L128.664874,4.80091132 L128.664874,2.6189705 L126.080723,2.6189705 L126.080723,0.824342215 C126.502625,0.776228856 126.676819,0.606228321 126.70159,0.387312539 L123.347147,0.218113893 L123.347147,2.6189705 L120.689482,2.6189705 L120.689482,4.80091132 L125.683591,4.80091132 C125.558938,5.82011264 125.310431,7.20176793 125.061125,8.17125211 L126.30366,8.51205507 L122.254836,8.51205507 L124.143008,8.07502539 C124.118238,7.22582461 123.820189,5.868226 123.422259,4.87388325 L121.435003,5.31011104 C121.782593,6.32931236 122.030301,7.63879761 122.030301,8.51205507 L120.142927,8.51205507 L120.142927,10.7910245 L129.260172,10.7910245 C129.335283,13.5310803 129.509478,15.9319369 129.881839,17.8957638 C129.359255,18.5019921 128.813499,19.0601071 128.242173,19.5933635 L128.242173,11.8094239 L121.136155,11.8094239 L121.136155,21.2420479 L123.371918,21.2420479 L123.371918,20.321479 L127.371999,20.321479 C126.825444,20.7577068 126.278889,21.1209626 125.708362,21.4609637 C126.254917,21.8723329 127.024409,22.6004484 127.371999,23.0615348 C128.49068,22.3823345 129.55822,21.5339356 130.577019,20.5395929 C131.223456,22.212334 132.167143,23.1337048 133.558302,23.1337048 C135.049343,23.1337048 135.917919,21.6061057 136.216766,18.9622766 C135.769294,18.6230774 135.049343,17.9919905 134.55153,17.3617055 C134.378135,18.8901066 134.130427,20.393649 133.807608,20.393649 C133.285024,20.393649 132.814379,19.5444483 132.515532,18.3079349 C133.633413,16.829251 134.5771,15.155708 135.247509,13.3851364 C135.546357,13.3851364 135.719752,13.3129664 135.794065,13.1181073 L133.235483,11.7845654 C132.887094,12.8037667 132.489962,13.7740527 132.017719,14.670565 C131.918636,13.5070236 131.869095,12.221595 131.818754,10.7910245 L135.844405,10.7910245 Z M103.74547,17.8717071 L107.521815,17.8717071 L107.521815,5.04388379 L103.74547,5.04388379 L103.74547,17.8717071 Z M100.864069,22.3823345 L103.74547,22.3823345 L103.74547,20.6117629 L107.521815,20.6117629 L107.521815,22.0182768 L110.57821,22.0182768 L110.57821,2.30302611 L100.864069,2.30302611 L100.864069,22.3823345 Z M99.5472219,5.98931129 L99.5472219,3.29817075 L92.8886765,3.29817075 C93.062871,2.6189705 93.2362664,1.93977025 93.3609194,1.28542857 C93.7085094,1.28542857 93.9074747,1.18839996 93.9825861,0.97028607 L90.7280252,0.218113893 C90.2549832,3.15222689 89.361637,6.25634043 88.1686443,8.05096871 C88.8142827,8.41422457 89.8330809,9.14234007 90.3300946,9.57856786 C91.0005038,8.60828179 91.5718298,7.34771179 92.0688435,5.98931129 L93.3113778,5.98931129 L93.3113778,9.23856679 C93.3113778,9.55451118 93.3113778,9.86965368 93.286607,10.1847962 L88.4171511,10.1847962 L88.4171511,12.9489086 L93.062871,12.9489086 C92.5914271,15.7378797 91.3976353,18.6711908 88.318068,20.8787921 C88.8638242,21.2661046 89.932164,22.3823345 90.3045248,22.9637043 C92.4915449,21.3879918 93.9074747,19.3271362 94.7768491,17.1684502 C95.9203003,18.5509074 97.2866885,20.2244504 98.03141,21.3390765 L99.9691242,18.9622766 C99.3490557,18.2590197 96.8631881,15.6167944 95.6462236,14.4043377 C95.7461058,13.9183928 95.8451889,13.4340517 95.9203003,12.9489086 L99.9691242,12.9489086 L99.9691242,10.1847962 L96.1432373,10.1847962 C96.1680081,9.86965368 96.1680081,9.57856786 96.1680081,9.28748204 L96.1680081,5.98931129 L99.5472219,5.98931129 Z M70.0572088,11.2761675 L72.6413605,11.2761675 L72.6413605,8.60828179 L70.0572088,8.60828179 L70.0572088,4.24359825 L72.8395267,4.24359825 L72.8395267,1.55245771 L64.2680378,1.55245771 L64.2680378,4.24359825 L67.1997795,4.24359825 L67.1997795,8.60828179 L64.4670031,8.60828179 L64.4670031,11.2761675 L67.1997795,11.2761675 L67.1997795,16.6592505 C65.9332735,16.9503363 64.7906213,17.2173655 63.8461355,17.4106208 L64.7402807,20.4417624 C64.9136762,20.393649 65.1126415,20.2725638 65.162183,20.0303932 C67.1750087,19.4722782 70.3304864,18.5749641 73.2861998,17.7257633 C72.9889505,15.3257086 72.9641797,15.2767933 72.9641797,15.2519348 L70.0572088,15.9808521 L70.0572088,11.2761675 Z M81.3111335,9.99073896 L83.9448268,9.99073896 L83.9448268,8.07502539 L81.3111335,8.07502539 L81.3111335,9.99073896 Z M76.0693168,9.99073896 L78.5535863,9.99073896 L78.5535863,8.07502539 L76.0693168,8.07502539 L76.0693168,9.99073896 Z M81.3111335,5.77119739 L83.9448268,5.77119739 L83.9448268,3.85548382 L81.3111335,3.85548382 L81.3111335,5.77119739 Z M76.0693168,5.77119739 L78.5535863,5.77119739 L78.5535863,3.85548382 L76.0693168,3.85548382 L76.0693168,5.77119739 Z M81.3111335,17.1443935 L86.8765684,17.1443935 L86.8765684,14.5735364 L81.3111335,14.5735364 L81.3111335,12.4637656 L86.703173,12.4637656 L86.703173,1.40651386 L73.4356236,1.40651386 L73.4356236,12.4637656 L78.5535863,12.4637656 L78.5535863,14.5735364 L73.3365404,14.5735364 L73.3365404,17.1443935 L78.5535863,17.1443935 L78.5535863,19.8114774 L71.7472152,19.8114774 L71.7472152,22.4312498 L87.6708315,22.4312498 L87.6708315,19.8114774 L81.3111335,19.8114774 L81.3111335,17.1443935 Z M47.5229905,20.2974223 L57.4616667,20.2974223 L57.4616667,18.9141633 L47.5229905,18.9141633 L47.5229905,20.2974223 Z M47.5229905,13.5799955 L55.573494,13.5799955 L55.573494,12.294567 L47.5229905,12.294567 L47.5229905,13.5799955 Z M55.7468895,1.91571357 C55.8963132,1.67274111 56.0201671,1.43057054 56.144021,1.18839996 C56.4428685,1.21245664 56.6658055,1.1402866 56.7656877,0.921370822 L53.5606684,0 C53.0388839,1.28542857 52.1695094,2.59411193 51.175482,3.63736993 L51.175482,1.91571357 L45.5852763,1.91571357 C45.7099292,1.69679779 45.8337831,1.47948578 45.9336653,1.26057 C46.2564845,1.28542857 46.4554498,1.16434328 46.5545329,1.01839943 L43.3990552,0 C42.6295629,1.86679832 41.2136331,3.85548382 39.7969043,5.01982711 C40.4425427,5.35902629 41.4861117,6.03742465 42.032667,6.498511 C42.7278469,5.868226 43.4238259,5.06794047 44.0702634,4.194683 L44.5177356,4.194683 C45.0147493,5.01982711 45.5109639,5.98931129 45.7099292,6.64365297 L48.392365,5.89308457 C48.2189695,5.43199821 47.8713795,4.80091132 47.4982197,4.194683 L50.6041559,4.194683 C50.3804198,4.38954211 50.1566838,4.55954264 49.9329477,4.7279394 C50.3061075,4.89793993 50.8031212,5.14091239 51.2753641,5.38308297 L50.0080591,5.31011104 L50.0080591,7.00771072 L40.7909317,7.00771072 L40.7909317,11.8575373 L43.5980205,11.8575373 L43.5980205,9.19045343 L59.5719773,9.19045343 L59.5719773,11.8575373 L62.4797473,11.8575373 L62.4797473,7.00771072 L52.8894601,7.00771072 L52.8894601,5.94119793 C53.3121615,5.89308457 53.486356,5.74714071 53.5111268,5.50416825 L52.9893423,5.48091346 C53.4112446,5.09199714 53.8091752,4.65576936 54.181536,4.194683 L55.7221187,4.194683 C56.3182155,4.99496854 56.9390831,5.96445272 57.2123608,6.5963415 L59.9699079,5.84416932 C59.7461719,5.38308297 59.3498394,4.77685464 58.9023672,4.194683 L63.0758441,4.194683 L63.0758441,1.91571357 L55.7468895,1.91571357 Z M58.5292074,15.6649078 L58.5292074,10.2088529 L44.6663602,10.2088529 L44.6663602,23.1096481 L47.5229905,23.1096481 L47.5229905,22.4553065 L57.4616667,22.4553065 L57.4616667,23.1096481 L60.4421509,23.1096481 L60.4421509,16.7803358 L47.5229905,16.7803358 L47.5229905,15.6649078 L58.5292074,15.6649078 L58.5292074,15.6649078 Z" id="Fill-9" fill="#000000"></path>
        <path d="M106.0818,25.6897794 L106.0818,26.9902597 L108.413175,26.9902597 L108.413175,33.0374933 L110.045936,33.0374933 L110.045936,26.9902597 L112.36773,26.9902597 L112.36773,25.6897794 L106.0818,25.6897794 Z M99.4565437,33.0374933 L100.967945,33.0374933 L100.967945,27.8242306 L104.126479,33.0374933 L105.747264,33.0374933 L105.747264,25.6897794 L104.236661,25.6897794 L104.236661,30.8130671 L101.15717,25.6897794 L99.4565437,25.6897794 L99.4565437,33.0374933 Z M98.568705,25.6897794 L92.8783938,25.6897794 L92.8783938,33.0374933 L98.7587281,33.0374933 L98.7587281,31.7158424 L94.4632496,31.7158424 L94.4632496,29.8271215 L98.2325719,29.8271215 L98.2325719,28.5508362 L94.4632496,28.5508362 L94.4632496,26.9902597 L98.568705,26.9902597 L98.568705,25.6897794 Z M88.1350039,31.4678438 L86.7226059,25.6897794 L84.3632865,25.6897794 L84.3632865,33.0374933 L85.8738896,33.0374933 L85.8738896,28.0676926 C85.8738896,27.9240349 85.8722928,27.7244263 85.8690992,27.4665985 C85.8659055,27.2095268 85.8635102,27.0099182 85.8635102,26.870797 L87.3230148,33.0374933 L88.8998865,33.0374933 L90.3697705,26.870797 C90.3697705,27.0099182 90.3681737,27.2095268 90.3641816,27.4665985 C90.3609879,27.7244263 90.3593911,27.9240349 90.3593911,28.0676926 L90.3593911,33.0374933 L91.8707927,33.0374933 L91.8707927,25.6897794 L89.5370225,25.6897794 L88.1350039,31.4678438 Z M83.4762462,25.6897794 L77.7851365,25.6897794 L77.7851365,33.0374933 L83.6654708,33.0374933 L83.6654708,31.7158424 L79.3699924,31.7158424 L79.3699924,29.8271215 L83.1385162,29.8271215 L83.1385162,28.5508362 L79.3699924,28.5508362 L79.3699924,26.9902597 L83.4762462,26.9902597 L83.4762462,25.6897794 Z M76.7032828,27.9830101 C76.615457,27.2753069 76.2729365,26.684042 75.6741245,26.2099715 C75.0753124,25.7366572 74.2824853,25.5 73.2972398,25.5 C72.1602954,25.5 71.246109,25.8583882 70.5538823,26.5766767 C69.8632524,27.2934531 69.5183366,28.2461306 69.5183366,29.4354652 C69.5183366,30.6111902 69.8592603,31.5381605 70.5443013,32.21562 C71.2005993,32.8900552 72.0429282,33.2272727 73.0712881,33.2272727 C73.6956495,33.2272727 74.2218056,33.1025173 74.6505551,32.8545188 C74.8996609,32.7123732 75.1799049,32.467399 75.492884,32.1203523 L75.6557609,33.0374933 L76.7296305,33.0374933 L76.7296305,29.0937111 L73.4976423,29.0937111 L73.4976423,30.3200943 L75.2924816,30.3200943 C75.2118416,30.7994574 74.9978661,31.1865771 74.6505551,31.4829657 C74.3032441,31.777842 73.8569295,31.9252802 73.3124097,31.9252802 C72.758309,31.9252802 72.2640895,31.7377691 71.8289527,31.3635029 C71.3938159,30.9884807 71.1766468,30.350338 71.1766468,29.4483188 C71.1766468,28.5523483 71.3770492,27.8816936 71.7786525,27.4355986 C72.1802558,26.9887476 72.6936373,26.7657001 73.3179987,26.7657001 C73.6453492,26.7657001 73.9415616,26.8208949 74.2082326,26.9305284 C74.684887,27.1308931 74.9850914,27.4817203 75.1080475,27.9830101 L76.7032828,27.9830101 Z M62.0938657,33.0374933 L63.7897014,33.0374933 L64.3158576,31.5275752 L67.1733886,31.5275752 L67.6859718,33.0374933 L69.4440839,33.0374933 L66.6983311,25.6897794 L64.863571,25.6897794 L62.0938657,33.0374933 Z M65.7633859,27.3698185 L66.7438408,30.2603629 L64.7573816,30.2603629 L65.7633859,27.3698185 Z M55.3720008,33.0374933 L56.882604,33.0374933 L56.882604,27.8242306 L60.041138,33.0374933 L61.662721,33.0374933 L61.662721,25.6897794 L60.1521178,25.6897794 L60.1521178,30.8130671 L57.072627,25.6897794 L55.3720008,25.6897794 L55.3720008,33.0374933 Z M47.6002189,33.0374933 L49.2960546,33.0374933 L49.8230092,31.5275752 L52.6805403,31.5275752 L53.192325,33.0374933 L54.9504372,33.0374933 L52.2054827,25.6897794 L50.3707226,25.6897794 L47.6002189,33.0374933 Z M51.2705375,27.3698185 L52.2509924,30.2603629 L50.2637349,30.2603629 L51.2705375,27.3698185 L51.2705375,27.3698185 Z" id="Fill-14" fill="#000000"></path>
        <path d="M154.445226,33.7768812 L159.967949,33.7768812 L159.967949,32.3323935 L156.074606,32.3323935 L156.074606,25.7454307 L154.445226,25.7454307 L154.445226,33.7768812 Z M153.744055,29.75 C153.744055,28.2790686 153.35095,27.1750437 152.564741,26.437099 C151.975885,25.8123663 151.124693,25.5 150.010361,25.5 C148.896029,25.5 148.044836,25.8123663 147.455179,26.437099 C146.664958,27.1750437 146.270249,28.2790686 146.270249,29.75 C146.270249,31.1920086 146.664958,32.2960334 147.455179,33.062901 C148.044836,33.6876337 148.896029,34 150.010361,34 C151.124693,34 151.975885,33.6876337 152.564741,33.062901 C153.35095,32.2960334 153.744055,31.1920086 153.744055,29.75 Z M150.010361,32.5778242 C149.364546,32.5778242 148.8503,32.3323935 148.46602,31.8423585 C148.080938,31.3514972 147.888397,30.6548707 147.888397,29.75 C147.888397,28.8451293 148.080938,28.1476765 148.46602,27.6576415 C148.8503,27.1676065 149.364546,26.9221758 150.010361,26.9221758 C150.655374,26.9221758 151.167213,27.1684328 151.546679,27.6601206 C151.926146,28.1526346 152.115478,28.8492611 152.115478,29.75 C152.115478,30.6548707 151.926146,31.3514972 151.546679,31.8423585 C151.167213,32.3323935 150.655374,32.5778242 150.010361,32.5778242 Z M145.859494,29.75 C145.859494,28.2790686 145.467191,27.1750437 144.680179,26.437099 C144.091324,25.8123663 143.23933,25.5 142.1258,25.5 C141.011468,25.5 140.160275,25.8123663 139.57142,26.437099 C138.781199,27.1750437 138.38649,28.2790686 138.38649,29.75 C138.38649,31.1920086 138.781199,32.2960334 139.57142,33.062901 C140.160275,33.6876337 141.011468,34 142.1258,34 C143.23933,34 144.091324,33.6876337 144.680179,33.062901 C145.467191,32.2960334 145.859494,31.1920086 145.859494,29.75 Z M142.1258,32.5778242 C141.479985,32.5778242 140.965739,32.3323935 140.580657,31.8423585 C140.196377,31.3514972 140.004638,30.6548707 140.004638,29.75 C140.004638,28.8451293 140.196377,28.1476765 140.580657,27.6576415 C140.965739,27.1676065 141.479985,26.9221758 142.1258,26.9221758 C142.770813,26.9221758 143.282651,27.1684328 143.662118,27.6601206 C144.040782,28.1526346 144.230917,28.8492611 144.230917,29.75 C144.230917,30.6548707 144.040782,31.3514972 143.662118,31.8423585 C143.282651,32.3323935 142.770813,32.5778242 142.1258,32.5778242 Z M133.004162,33.7768812 L133.004162,30.1912794 L136.034278,30.1912794 L136.034278,33.7768812 L137.653229,33.7768812 L137.653229,25.7454307 L136.034278,25.7454307 L136.034278,28.8071165 L133.004162,28.8071165 L133.004162,25.7454307 L131.385211,25.7454307 L131.385211,33.7768812 L133.004162,33.7768812 Z M123.775824,29.826852 C123.775824,31.1234202 124.092714,32.1431557 124.727298,32.8885378 C125.362684,33.6289617 126.234735,34 127.344253,34 C128.240372,34 128.97604,33.7256465 129.549652,33.1761132 C130.124067,32.6282325 130.48107,31.9159051 130.61986,31.0407836 L129.00091,31.0407836 C128.895012,31.4547929 128.760233,31.7655065 128.598178,31.9729244 C128.304553,32.3580109 127.878555,32.5497278 127.320988,32.5497278 C126.775455,32.5497278 126.32539,32.3257826 125.971595,31.8770659 C125.619405,31.4291756 125.442107,30.7540346 125.442107,29.8532957 C125.442107,28.9525569 125.609778,28.2559304 125.945121,27.7634163 C126.279661,27.2717286 126.736946,27.0254715 127.318581,27.0254715 C127.888182,27.0254715 128.318191,27.1998347 128.607805,27.5493875 C128.76986,27.7444099 128.903035,28.0352907 129.006526,28.4203772 L130.635103,28.4203772 C130.611035,27.9187731 130.433737,27.4196481 130.102406,26.9221758 C129.501517,26.0363115 128.553252,25.5933794 127.255203,25.5933794 C126.286079,25.5933794 125.487033,25.9230994 124.858065,26.5850185 C124.136838,27.3436224 123.775824,28.4236827 123.775824,29.826852 Z M117.049719,31.296957 C117.049719,32.1332394 117.343344,32.7893739 117.932199,33.2670134 C118.51945,33.7446529 119.32732,33.9834727 120.353404,33.9834727 C121.35863,33.9834727 122.136817,33.7405211 122.687164,33.2562707 C123.238313,32.7703675 123.513486,32.1621622 123.513486,31.4275228 C123.513486,30.7127163 123.280832,30.1656621 122.815525,29.7880128 C122.517086,29.5450612 122.067021,29.3500389 121.467736,29.2054248 L120.099892,28.8723994 C119.571206,28.7459654 119.227038,28.6352324 119.064181,28.5402003 C118.810668,28.3988917 118.684714,28.1848629 118.684714,27.8972876 C118.684714,27.5849213 118.812273,27.3419697 119.068994,27.1676065 C119.325716,26.9932432 119.669081,26.9056485 120.099892,26.9056485 C120.485776,26.9056485 120.809085,26.9734105 121.069818,27.1081081 C121.460516,27.3105678 121.670707,27.654336 121.698786,28.1377601 L123.263985,28.1377601 C123.236708,27.2832977 122.928642,26.6321213 122.341392,26.184231 C121.754141,25.7355143 121.043343,25.5115691 120.21301,25.5115691 C119.216609,25.5115691 118.461687,25.7487361 117.947442,26.2247229 C117.433196,26.7007097 117.176475,27.2981723 117.176475,28.0171106 C117.176475,28.8054637 117.439614,29.3847463 117.965091,29.7557846 C118.274762,29.9772506 118.844363,30.1821894 119.673894,30.3706008 L120.517866,30.5614913 C121.012858,30.6705717 121.373872,30.7953529 121.601713,30.9374878 C121.827949,31.0829283 121.942671,31.287867 121.942671,31.5531305 C121.942671,32.0068054 121.710017,32.3183453 121.245512,32.4844449 C121.000824,32.5720397 120.682329,32.6158371 120.290026,32.6158371 C119.634584,32.6158371 119.170881,32.4505639 118.901323,32.1200175 C118.753708,31.9373906 118.655031,31.6638635 118.604489,31.296957 L117.049719,31.296957 L117.049719,31.296957 Z" id="Fill-15" fill="#D61F43"></path>
        <path d="M42.9373193,31.5765403 L41.4682843,25.5 L39.0165729,25.5 L39.0165729,33.2272727 L40.5876933,33.2272727 L40.5876933,28.0007484 C40.5876933,27.8496698 40.5860334,27.63975 40.5818836,27.3686037 C40.5777338,27.0982525 40.5760738,26.8883328 40.5760738,26.7420251 L42.0940766,33.2272727 L43.7315941,33.2272727 L45.2603865,26.7420251 C45.2603865,26.8883328 45.2578966,27.0982525 45.2554067,27.3686037 C45.2512569,27.63975 45.2495969,27.8496698 45.2495969,28.0007484 L45.2495969,33.2272727 L46.8198874,33.2272727 L46.8198874,25.5 L44.3947348,25.5 L42.9373193,31.5765403" id="Fill-16" fill="#D61F43"></path>
        <polygon id="Fill-10" fill="#D61F43" points="0 34 34.3345841 34 34.3345841 0 0 0"></polygon>
        <path d="M10.2743642,15.1799199 L10.2743642,27.8181818 L5.4623202,27.8181818 L5.4623202,9.53766234 L5.4623202,4.99326061 L16.6704921,13.9585455 L34.3345841,0 L34.3345841,2.34002424 L29.3753738,7.94805195 L29.5225401,7.94805195 L29.5225401,27.8181818 L24.7104961,27.8181818 L24.7104961,13.2232393 L16.7240615,22.2545455 L10.2743642,15.1799199 Z" id="Combined-Shape" fill="#FFFFFE"></path>
    </g>
</svg>