<?xml version="1.0" encoding="UTF-8"?>
<svg width="24px" height="24px" viewBox="0 0 24 24" version="1.1" xmlns="http://www.w3.org/2000/svg" xmlns:xlink="http://www.w3.org/1999/xlink">
    <!-- Generator: Sketch 54.1 (76490) - https://sketchapp.com -->
    <title>icon/system/arrow-small_left</title>
    <desc>Created with Sketch.</desc>
    <g id="icon/system/arrow-small_left" stroke="none" stroke-width="1" fill="none" fill-rule="evenodd">
        <path d="M11.5303301,15.4696699 C11.8232233,15.7625631 11.8232233,16.2374369 11.5303301,16.5303301 C11.2374369,16.8232233 10.7625631,16.8232233 10.4696699,16.5303301 L6.46966991,12.5303301 C6.1767767,12.2374369 6.1767767,11.7625631 6.46966991,11.4696699 L10.4696699,7.46966991 C10.7625631,7.1767767 11.2374369,7.1767767 11.5303301,7.46966991 C11.8232233,7.76256313 11.8232233,8.23743687 11.5303301,8.53033009 L8.06066017,12 L11.5303301,15.4696699 Z M17.5303301,15.4696699 C17.8232233,15.7625631 17.8232233,16.2374369 17.5303301,16.5303301 C17.2374369,16.8232233 16.7625631,16.8232233 16.4696699,16.5303301 L12.4696699,12.5303301 C12.1767767,12.2374369 12.1767767,11.7625631 12.4696699,11.4696699 L16.4696699,7.46966991 C16.7625631,7.1767767 17.2374369,7.1767767 17.5303301,7.46966991 C17.8232233,7.76256313 17.8232233,8.23743687 17.5303301,8.53033009 L14.0606602,12 L17.5303301,15.4696699 Z" id="Combined-Shape" fill="#000000"></path>
    </g>
</svg>