<?xml version="1.0" encoding="UTF-8"?>
<svg width="24px" height="24px" viewBox="0 0 24 24" version="1.1" xmlns="http://www.w3.org/2000/svg" xmlns:xlink="http://www.w3.org/1999/xlink">
    <!-- Generator: Sketch 54.1 (76490) - https://sketchapp.com -->
    <title>icon/system/arrow-small_right</title>
    <desc>Created with Sketch.</desc>
    <g id="icon/system/arrow-small_right" stroke="none" stroke-width="1" fill="none" fill-rule="evenodd">
        <path d="M12.4696699,15.4696699 L15.9393398,12 L12.4696699,8.53033009 C12.1767767,8.23743687 12.1767767,7.76256313 12.4696699,7.46966991 C12.7625631,7.1767767 13.2374369,7.1767767 13.5303301,7.46966991 L17.5303301,11.4696699 C17.8232233,11.7625631 17.8232233,12.2374369 17.5303301,12.5303301 L13.5303301,16.5303301 C13.2374369,16.8232233 12.7625631,16.8232233 12.4696699,16.5303301 C12.1767767,16.2374369 12.1767767,15.7625631 12.4696699,15.4696699 Z M6.46966991,15.4696699 L9.93933983,12 L6.46966991,8.53033009 C6.1767767,8.23743687 6.1767767,7.76256313 6.46966991,7.46966991 C6.76256313,7.1767767 7.23743687,7.1767767 7.53033009,7.46966991 L11.5303301,11.4696699 C11.8232233,11.7625631 11.8232233,12.2374369 11.5303301,12.5303301 L7.53033009,16.5303301 C7.23743687,16.8232233 6.76256313,16.8232233 6.46966991,16.5303301 C6.1767767,16.2374369 6.1767767,15.7625631 6.46966991,15.4696699 Z" id="Combined-Shape" fill="#000000"></path>
    </g>
</svg>