<?xml version="1.0" encoding="UTF-8"?>
<svg width="24px" height="24px" viewBox="0 0 24 24" version="1.1" xmlns="http://www.w3.org/2000/svg" xmlns:xlink="http://www.w3.org/1999/xlink">
    <!-- Generator: Sketch 54.1 (76490) - https://sketchapp.com -->
    <title>icon/system/burger2</title>
    <desc>Created with Sketch.</desc>
    <g id="icon/system/burger2" stroke="none" stroke-width="1" fill="none" fill-rule="evenodd">
        <path d="M1.5,4 L22.5,4 C23.3284271,4 24,4.67157288 24,5.5 C24,6.32842712 23.3284271,7 22.5,7 L1.5,7 C0.671572875,7 1.01453063e-16,6.32842712 0,5.5 C-1.01453063e-16,4.67157288 0.671572875,4 1.5,4 Z M4.5,11 L19.5,11 C20.3284271,11 21,11.6715729 21,12.5 C21,13.3284271 20.3284271,14 19.5,14 L4.5,14 C3.67157288,14 3,13.3284271 3,12.5 C3,11.6715729 3.67157288,11 4.5,11 Z M7.5,18 L16.5,18 C17.3284271,18 18,18.6715729 18,19.5 C18,20.3284271 17.3284271,21 16.5,21 L7.5,21 C6.67157288,21 6,20.3284271 6,19.5 C6,18.6715729 6.67157288,18 7.5,18 Z" id="Combined-Shape" fill="#000000"></path>
    </g>
</svg>