<?xml version="1.0" encoding="UTF-8"?>
<svg width="24px" height="24px" viewBox="0 0 24 24" version="1.1" xmlns="http://www.w3.org/2000/svg" xmlns:xlink="http://www.w3.org/1999/xlink">
    <!-- Generator: Sketch 54.1 (76490) - https://sketchapp.com -->
    <title>icon/system/clock</title>
    <desc>Created with Sketch.</desc>
    <g id="icon/system/clock" stroke="none" stroke-width="1" fill="none" fill-rule="evenodd">
        <g id="icon/system/active/clock" fill="#000000">
            <path d="M13,11 L15.3837891,11 C15.9360738,11 16.3837891,11.4477153 16.3837891,12 C16.3837891,12.5522847 15.9360738,13 15.3837891,13 L12,13 C11.4477153,13 11,12.5522847 11,12 L11,6.5 C11,5.94771525 11.4477153,5.5 12,5.5 C12.5522847,5.5 13,5.94771525 13,6.5 L13,11 Z M12,23 C5.92486775,23 1,18.0751322 1,12 C1,5.92486775 5.92486775,1 12,1 C18.0751322,1 23,5.92486775 23,12 C23,18.0751322 18.0751322,23 12,23 Z M12,21 C16.9705627,21 21,16.9705627 21,12 C21,7.02943725 16.9705627,3 12,3 C7.02943725,3 3,7.02943725 3,12 C3,16.9705627 7.02943725,21 12,21 Z" id="Combined-Shape"></path>
        </g>
    </g>
</svg>