<?xml version="1.0" encoding="UTF-8"?>
<svg width="24px" height="24px" viewBox="0 0 24 24" version="1.1" xmlns="http://www.w3.org/2000/svg" xmlns:xlink="http://www.w3.org/1999/xlink">
    <!-- Generator: Sketch 54.1 (76490) - https://sketchapp.com -->
    <title>icon/system/close</title>
    <desc>Created with Sketch.</desc>
    <g id="icon/system/close" stroke="none" stroke-width="1" fill="none" fill-rule="evenodd">
        <path d="M12,11.0857864 L19.0710678,4.01471863 C19.4615921,3.62419433 20.0947571,3.62419433 20.4852814,4.01471863 C20.8758057,4.40524292 20.8758057,5.0384079 20.4852814,5.42893219 L13.4142136,12.5 L20.4852814,19.5710678 C20.8758057,19.9615921 20.8758057,20.5947571 20.4852814,20.9852814 C20.0947571,21.3758057 19.4615921,21.3758057 19.0710678,20.9852814 L12,13.9142136 L4.92893219,20.9852814 C4.5384079,21.3758057 3.90524292,21.3758057 3.51471863,20.9852814 C3.12419433,20.5947571 3.12419433,19.9615921 3.51471863,19.5710678 L10.5857864,12.5 L3.51471863,5.42893219 C3.12419433,5.0384079 3.12419433,4.40524292 3.51471863,4.01471863 C3.90524292,3.62419433 4.5384079,3.62419433 4.92893219,4.01471863 L12,11.0857864 Z" id="Combined-Shape" fill="#000000"></path>
    </g>
</svg>