<?xml version="1.0" encoding="UTF-8"?>
<svg width="24px" height="24px" viewBox="0 0 24 24" version="1.1" xmlns="http://www.w3.org/2000/svg" xmlns:xlink="http://www.w3.org/1999/xlink">
    <!-- Generator: Sketch 54.1 (76490) - https://sketchapp.com -->
    <title>icon/system/detele</title>
    <desc>Created with Sketch.</desc>
    <g id="icon/system/detele" stroke="none" stroke-width="1" fill="none" fill-rule="evenodd">
        <g fill="#000000" id="Combined-Shape">
            <path d="M20,10.6631844 L20,20 C20,22.209139 18.209139,24 16,24 L8,24 C5.790861,24 4,22.209139 4,20 L4,10.6631844 C2.81752633,10.1014525 2,8.89619798 2,7.5 C2,5.56700338 3.56700338,4 5.5,4 L7.03544443,4 C7.01208598,3.83669851 7,3.66976067 7,3.5 C7,1.56700338 8.56700338,-4.88498131e-15 10.5,-4.88498131e-15 L13.5,-4.88498131e-15 C15.4329966,-5.40308539e-15 17,1.56700338 17,3.5 C17,3.66976067 16.987914,3.83669851 16.9645556,4 L18.5,4 C20.4329966,4 22,5.56700338 22,7.5 C22,8.89619798 21.1824737,10.1014525 20,10.6631844 Z M6,11 L6,20 C6,21.1045695 6.8954305,22 8,22 L16,22 C17.1045695,22 18,21.1045695 18,20 L18,11 L6,11 Z M14.9146471,4 C14.9699229,3.84361054 15,3.67531771 15,3.5 C15,2.67157288 14.3284271,2 13.5,2 L10.5,2 C9.67157288,2 9,2.67157288 9,3.5 C9,3.67531771 9.03007711,3.84361054 9.08535285,4 L14.9146471,4 Z M5.5,6 C4.67157288,6 4,6.67157288 4,7.5 C4,8.32842712 4.67157288,9 5.5,9 L18.5,9 C19.3284271,9 20,8.32842712 20,7.5 C20,6.67157288 19.3284271,6 18.5,6 L5.5,6 Z M8.5,14.3571429 C8.5,13.8048581 8.94771525,13.3571429 9.5,13.3571429 C10.0522847,13.3571429 10.5,13.8048581 10.5,14.3571429 L10.5,18.4918387 C10.5,19.0441235 10.0522847,19.4918387 9.5,19.4918387 C8.94771525,19.4918387 8.5,19.0441235 8.5,18.4918387 L8.5,14.3571429 Z M13.5,14.3571429 C13.5,13.8048581 13.9477153,13.3571429 14.5,13.3571429 C15.0522847,13.3571429 15.5,13.8048581 15.5,14.3571429 L15.5,18.4918387 C15.5,19.0441235 15.0522847,19.4918387 14.5,19.4918387 C13.9477153,19.4918387 13.5,19.0441235 13.5,18.4918387 L13.5,14.3571429 Z"></path>
        </g>
    </g>
</svg>