<?xml version="1.0" encoding="UTF-8"?>
<svg width="24px" height="24px" viewBox="0 0 24 24" version="1.1" xmlns="http://www.w3.org/2000/svg" xmlns:xlink="http://www.w3.org/1999/xlink">
    <!-- Generator: Sketch 55.2 (78181) - https://sketchapp.com -->
    <title>system icons/home</title>
    <desc>Created with Sketch.</desc>
    <g id="system-icons/home" stroke="none" stroke-width="1" fill="none" fill-rule="evenodd">
        <path d="M8,22 L8,16 C8,13.790861 9.790861,12 12,12 C14.209139,12 16,13.790861 16,16 L16,22 L19,22 L19,15 C19,14.4477153 19.4477153,14 20,14 C20.5522847,14 21,14.4477153 21,15 L21,23 C21,23.5522847 20.5522847,24 20,24 L4,24 C3.44771525,24 3,23.5522847 3,23 L3,15 C3,14.4477153 3.44771525,14 4,14 C4.55228475,14 5,14.4477153 5,15 L5,22 L8,22 Z M14,22 L14,16 C14,14.8954305 13.1045695,14 12,14 C10.8954305,14 10,14.8954305 10,16 L10,22 L14,22 Z M12,3.41421356 L1.70710678,13.7071068 C1.31658249,14.0976311 0.683417511,14.0976311 0.292893219,13.7071068 C-0.0976310729,13.3165825 -0.0976310729,12.6834175 0.292893219,12.2928932 L11.2928932,1.29289322 C11.6834175,0.902368927 12.3165825,0.902368927 12.7071068,1.29289322 L23.7071068,12.2928932 C24.0976311,12.6834175 24.0976311,13.3165825 23.7071068,13.7071068 C23.3165825,14.0976311 22.6834175,14.0976311 22.2928932,13.7071068 L12,3.41421356 Z" id="Combined-Shape" fill="#888888"></path>
    </g>
</svg>