<?xml version="1.0" encoding="UTF-8"?>
<svg width="24px" height="24px" viewBox="0 0 24 24" version="1.1" xmlns="http://www.w3.org/2000/svg" xmlns:xlink="http://www.w3.org/1999/xlink">
    <!-- Generator: Sketch 54.1 (76490) - https://sketchapp.com -->
    <title>icon/system/loading</title>
    <desc>Created with Sketch.</desc>
    <g id="icon/system/loading" stroke="none" stroke-width="1" fill="none" fill-rule="evenodd">
        <path d="M5.99999274,12.0023809 C6.00100083,11.7368562 5.89692756,11.4819129 5.71088068,11.2941572 C5.52483381,11.1064014 5.27221095,11.0013722 5.00910286,11.0023896 L1.05922706,11.0023896 C0.689757629,10.9766135 0.336883738,11.1609193 0.144378745,11.4802141 C-0.0481262483,11.799509 -0.0481262483,12.200491 0.144378745,12.5197859 C0.336883738,12.8390807 0.689757629,13.0233865 1.05922706,12.9976104 L5.01382139,12.9976104 C5.55825315,12.9970854 5.9994725,12.5518134 5.99999274,12.0023809 L5.99999274,12.0023809 Z" id="XMLID_4_" fill="#000000" fill-rule="nonzero" opacity="0.9"></path>
        <path d="M19.0702396,11.0023896 C18.6969289,10.9766135 18.3403862,11.1609193 18.1458798,11.4802141 C17.9513734,11.799509 17.9513734,12.200491 18.1458798,12.5197859 C18.3403862,12.8390807 18.6969289,13.0233865 19.0702396,12.9976104 L23.0678558,12.9976104 C23.5927487,12.961368 24,12.5255148 24,12 C24,11.4744852 23.5927487,11.038632 23.0678558,11.0023896 L19.0702396,11.0023896 Z" id="XMLID_5_" fill="#000000" fill-rule="nonzero" opacity="0.5"></path>
        <path d="M11.9976191,5.99999274 C12.2631438,6.00100083 12.5180871,5.89692756 12.7058428,5.71088068 C12.8935986,5.52483381 12.9986278,5.27221095 12.9976104,5.00910286 L12.9976104,1.05922706 C13.0233865,0.689757629 12.8390807,0.336883738 12.5197859,0.144378745 C12.200491,-0.0481262483 11.799509,-0.0481262483 11.4802141,0.144378745 C11.1609193,0.336883738 10.9766135,0.689757629 11.0023896,1.05922706 L11.0023896,5.01382139 C11.0029146,5.55825315 11.4481866,5.9994725 11.9976191,5.99999274 Z" id="XMLID_6_" fill="#000000" fill-rule="nonzero"></path>
        <path d="M12.0023809,18.0000073 C11.7368562,17.999 11.4819129,18.1029914 11.2941572,18.2888921 C11.1064014,18.4747928 11.0013722,18.7272172 11.0023896,18.9901185 L11.0023896,22.9416053 C10.9766135,23.3107844 11.1609193,23.663381 11.4802141,23.8557347 C11.799509,24.0480884 12.200491,24.0480884 12.5197859,23.8557347 C12.8390807,23.663381 13.0233865,23.3107844 12.9976104,22.9416053 L12.9976104,18.9901185 C12.9986228,18.7280354 12.8942461,18.4763293 12.7075219,18.2905655 C12.5207978,18.1048016 12.2670811,18.0002559 12.0023809,18.0000073 Z" id="XMLID_7_" fill="#000000" fill-rule="nonzero" opacity="0.7"></path>
        <path d="M4.75695003,4.29215525 C4.35063466,3.89822497 3.7035273,3.90329445 3.30342892,4.30354223 C2.90333055,4.70379001 2.89826296,5.351139 3.29204619,5.7576061 L6.22927487,8.69593157 C6.42335617,8.89059578 6.68689334,9 6.96172679,9 C7.23656023,9 7.5000974,8.89059578 7.69417871,8.69593157 C7.88987308,8.50236635 8,8.23851032 8,7.96320615 C8,7.68790197 7.88987308,7.42404594 7.69417871,7.23048072 L4.75695003,4.29215525 Z" id="XMLID_8_" fill="#000000" fill-rule="nonzero"></path>
        <path d="M17.7593872,16.2925607 C17.3525082,15.8980837 16.7045032,15.9031603 16.3038498,16.3039635 C15.9031965,16.7047666 15.8981218,17.353014 16.2924513,17.7600451 L19.2268186,20.6955096 C19.4211691,20.890444 19.6850718,21 19.9602865,21 C20.2355012,21 20.4994039,20.890444 20.6937545,20.6955096 C20.8897203,20.5016758 21,20.2374536 21,19.9617674 C21,19.6860812 20.8897203,19.421859 20.6937545,19.2280252 L17.7593872,16.2925607 Z" id="XMLID_9_" fill="#000000" fill-rule="nonzero" opacity="0.6"></path>
        <path d="M17.7593872,4.29256067 C17.3525082,3.89808374 16.7045032,3.90316026 16.3038498,4.30396345 C15.9031965,4.70476665 15.8981218,5.35301397 16.2924513,5.76004512 L19.2268186,8.69550962 C19.4211691,8.89044396 19.6850718,9 19.9602865,9 C20.2355012,9 20.4994039,8.89044396 20.6937545,8.69550962 C20.8897203,8.50167579 21,8.23745361 21,7.9617674 C21,7.68608118 20.8897203,7.421859 20.6937545,7.22802517 L17.7593872,4.29256067 Z" id="XMLID_9_" fill="#000000" fill-rule="nonzero" opacity="0.4" transform="translate(18.500000, 6.500000) scale(1, -1) translate(-18.500000, -6.500000) "></path>
        <path d="M6.23169703,16.3005236 L3.30540296,19.2310226 C3.10997627,19.4245285 3,19.6883038 3,19.9635236 C3,20.2387435 3.10997627,20.5025187 3.30540296,20.6960247 C3.49921879,20.8906293 3.76239546,21 4.03685297,21 C4.31131047,21 4.57448714,20.8906293 4.76830297,20.6960247 L7.69459704,17.7655257 C7.89002373,17.5720198 8,17.3082445 8,17.0330247 C8,16.7578048 7.89002373,16.4940296 7.69459704,16.3005236 C7.28904308,15.8998255 6.63725099,15.8998255 6.23169703,16.3005236 L6.23169703,16.3005236 Z" id="XMLID_10_" fill="#000000" fill-rule="nonzero" opacity="0.8"></path>
    </g>
</svg>