<?xml version="1.0" encoding="UTF-8"?>
<svg width="24px" height="24px" viewBox="0 0 24 24" version="1.1" xmlns="http://www.w3.org/2000/svg" xmlns:xlink="http://www.w3.org/1999/xlink">
    <!-- Generator: Sketch 54.1 (76490) - https://sketchapp.com -->
    <title>icon/system/member</title>
    <desc>Created with Sketch.</desc>
    <g id="icon/system/member" stroke="none" stroke-width="1" fill="none" fill-rule="evenodd">
        <path d="M14.6444459,13.7142691 C16.5139361,14.1001214 18.3106977,14.8999495 19.8785295,16.1137826 C22.0466307,17.7965309 23.506476,20.1773328 23.9840186,22.8163096 L24,22.9943751 L24,23 C24,23.5522847 23.5522847,24 23,24 L1,24 C0.376742289,24 -0.0946692444,23.4360613 0.0158467257,22.8226801 C0.49168614,20.1816961 1.95115997,17.79855 4.12124427,16.1130448 C5.68882793,14.8994041 7.4854744,14.099723 9.35495978,13.7140308 C6.73743818,12.6645274 4.88888889,10.1036952 4.88888889,7.11111111 C4.88888889,3.18375289 8.07264178,4.4408921e-15 12,4.4408921e-15 C15.9273582,4.4408921e-15 19.1111111,3.18375289 19.1111111,7.11111111 C19.1111111,10.1039217 17.262282,12.664915 14.6444459,13.7142691 Z M12,12.2222222 C14.8227887,12.2222222 17.1111111,9.93389983 17.1111111,7.11111111 C17.1111111,4.28832239 14.8227887,2 12,2 C9.17721128,2 6.88888889,4.28832239 6.88888889,7.11111111 C6.88888889,9.93389983 9.17721128,12.2222222 12,12.2222222 Z M18.6532139,17.6944787 C14.7782428,14.694433 9.22057908,14.694433 5.34683678,17.6935259 C3.89645588,18.8200382 2.83610863,20.320448 2.28273238,22 L21.7180433,22 C21.1642518,20.3202971 20.1034287,18.820048 18.6532139,17.6944787 Z M22,23 L22.9689161,23 L23,22.9943751 L22,23 Z" id="Combined-Shape" fill="#000000"></path>
    </g>
</svg>