<?xml version="1.0" encoding="UTF-8"?>
<svg width="24px" height="24px" viewBox="0 0 24 24" version="1.1" xmlns="http://www.w3.org/2000/svg" xmlns:xlink="http://www.w3.org/1999/xlink">
    <!-- Generator: Sketch 54.1 (76490) - https://sketchapp.com -->
    <title>icon/system/defualt/message</title>
    <desc>Created with Sketch.</desc>
    <g id="icon/system/defualt/message" stroke="none" stroke-width="1" fill="none" fill-rule="evenodd">
        <path d="M1,10 C1,4.9742222 5.96777776,1 12,1 C18.0322222,1 23,4.9742222 23,10 C23,14.2913202 19.3481534,17.8915571 14.391942,18.7873038 L8.63293678,22.8304063 C7.94715465,23.3118588 7.00884971,22.7869749 7.06023154,21.9506415 L7.29432929,18.1402715 C3.52127813,16.68333 1,13.5601321 1,10 Z M13.4266426,17.0213278 C13.5502091,16.9345782 13.6918143,16.8769336 13.8408371,16.852718 C18.0158363,16.1742951 21,13.2855855 21,10 C21,6.1892218 17.0134728,3 12,3 C6.98652725,3 3,6.1892218 3,10 C3,12.8432555 5.23516652,15.4210941 8.63917762,16.4930217 C9.07730811,16.6309895 9.36510214,17.0496929 9.33693476,17.5081687 L9.18384541,19.9999784 L13.4266426,17.0213278 Z" id="system-icons/defualt/message" fill="#000000"></path>
    </g>
</svg>