<?xml version="1.0" encoding="UTF-8"?>
<svg width="24px" height="24px" viewBox="0 0 24 24" version="1.1" xmlns="http://www.w3.org/2000/svg" xmlns:xlink="http://www.w3.org/1999/xlink">
    <!-- Generator: Sketch 54.1 (76490) - https://sketchapp.com -->
    <title>icon/system/ok</title>
    <desc>Created with Sketch.</desc>
    <g id="icon/system/ok" stroke="none" stroke-width="1" fill="none" fill-rule="evenodd">
        <g id="icon/system/active/ok" fill="#000000">
            <path d="M12,23 C5.92486775,23 1,18.0751322 1,12 C1,5.92486775 5.92486775,1 12,1 C18.0751322,1 23,5.92486775 23,12 C23,18.0751322 18.0751322,23 12,23 Z M12,21 C16.9705627,21 21,16.9705627 21,12 C21,7.02943725 16.9705627,3 12,3 C7.02943725,3 3,7.02943725 3,12 C3,16.9705627 7.02943725,21 12,21 Z M7.15924885,11.5308534 L10.7509779,14.6288725 L16.1462557,7.86682678 C16.4938447,7.43764115 17.123545,7.37149404 17.5527306,7.71908308 C17.9819163,8.06667212 18.0480634,8.6963724 17.7004743,9.12555804 L11.6560156,16.6891801 C11.300784,17.1278023 10.6531641,17.1857005 10.2257609,16.817047 L5.85295818,13.0453185 C5.43475018,12.6845963 5.38814873,12.0531486 5.74887094,11.6349406 C6.10959315,11.2167326 6.74104085,11.1701312 7.15924885,11.5308534 Z" id="Combined-Shape"></path>
        </g>
    </g>
</svg>