<?xml version="1.0" encoding="utf-8"?>
<!-- Generator: Adobe Illustrator 23.0.4, SVG Export Plug-In . SVG Version: 6.00 Build 0)  -->
<svg version="1.1" id="圖層_1" xmlns="http://www.w3.org/2000/svg" xmlns:xlink="http://www.w3.org/1999/xlink" x="0px" y="0px"
	 viewBox="0 0 35 35" style="enable-background:new 0 0 35 35;" xml:space="preserve">
<style type="text/css">
	.st0{fill-rule:evenodd;clip-rule:evenodd;fill:#FFFFFF;fill-opacity:0;}
	.st1{fill-rule:evenodd;clip-rule:evenodd;fill:#FC5A5A;}
</style>
<title>icon/system/search</title>
<desc>Created with Sketch.</desc>
<g>
	<rect id="Rectangle" x="0" class="st0" width="35" height="35"/>
	<path id="Combined-Shape" class="st1" d="M20.4,23.8c-2.1,1.4-4.6,2.3-7.4,2.3c-7.2,0-13-5.8-13-13S5.8,0,13,0s13,5.8,13,13
		c0,3.4-1.3,6.5-3.4,8.8l11.9,10.6c0.6,0.5,0.7,1.5,0.1,2.1c-0.5,0.6-1.5,0.7-2.1,0.1L20.4,23.8z M13,23.2c5.6,0,10.1-4.5,10.1-10.1
		S18.6,2.9,13,2.9S2.9,7.5,2.9,13S7.5,23.2,13,23.2z"/>
</g>
</svg>
