<?xml version="1.0" encoding="UTF-8"?>
<svg width="24px" height="24px" viewBox="0 0 24 24" version="1.1" xmlns="http://www.w3.org/2000/svg" xmlns:xlink="http://www.w3.org/1999/xlink">
    <!-- Generator: Sketch 54.1 (76490) - https://sketchapp.com -->
    <title>icon/system/url</title>
    <desc>Created with Sketch.</desc>
    <g id="icon/system/url" stroke="none" stroke-width="1" fill="none" fill-rule="evenodd">
        <path d="M17.073008,9.07352457 C18.0573193,9.63530148 18.9121373,10.4501028 19.5301226,11.4896536 L21.0692007,14.0786303 C22.9102209,17.1755224 21.8709395,21.1903742 18.7479005,23.0460528 C18.676752,23.0879301 18.676752,23.0879301 18.6049183,23.1286208 C15.3575095,24.9503837 11.262325,23.871644 9.375315,20.6973898 L7.83623695,18.108413 C7.24205488,17.1089032 6.94789954,16.0137741 6.92699201,14.9264754 C5.94268068,14.3646985 5.08786273,13.5498972 4.46987735,12.5103464 L2.9307993,9.92136967 C1.08977905,6.82447757 2.12906055,2.80962578 5.25209949,0.953947206 C5.32324798,0.912069946 5.32324798,0.912069946 5.39508166,0.871379217 C8.64249048,-0.950383671 12.737675,0.128356048 14.624685,3.30261023 L16.163763,5.891587 C16.7579451,6.89109678 17.0521005,7.98622587 17.073008,9.07352457 Z M16.7222757,11.3161718 C16.2341613,12.7478806 15.2499206,14.0227121 13.8424629,14.8590095 C13.7713144,14.9008867 13.7713144,14.9008867 13.6994807,14.9415774 C12.2361609,15.7624848 10.6006997,15.9944429 9.07270725,15.7111059 C9.17142616,16.1746633 9.3462202,16.6299014 9.60158268,17.0594622 L11.1406607,19.6484389 C12.4631026,21.8729989 15.3330629,22.6289942 17.6088906,21.3522783 C17.6582987,21.3242907 17.6582987,21.3242907 17.7072355,21.295487 C19.855301,20.0191279 20.5701318,17.2576624 19.303855,15.1275811 L17.7647769,12.5386044 C17.4813371,12.0618129 17.1268078,11.6524839 16.7222757,11.3161718 Z M14.9272928,8.2888941 C14.8285738,7.82533668 14.6537798,7.37009856 14.3984173,6.94053781 L12.8593393,4.35156105 C11.5368974,2.12700112 8.66693707,1.37100585 6.39110939,2.64772173 C6.34170128,2.67570932 6.34170128,2.67570932 6.29276446,2.70451303 C4.14469904,3.98087206 3.42986817,6.74233756 4.69614503,8.87241885 L6.23522308,11.4613956 C6.51866295,11.9381871 6.87319216,12.3475161 7.27772434,12.6838282 C7.76583866,11.2521194 8.7500794,9.97728788 10.1575371,9.14099054 C10.2286856,9.09911328 10.2286856,9.09911328 10.3005193,9.05842255 C11.7638391,8.23751524 13.3993003,8.00555709 14.9272928,8.2888941 Z M14.8738538,10.3699556 C13.7103877,10.0673003 12.429807,10.1990179 11.296547,10.8347651 C11.2471389,10.8627527 11.2471389,10.8627527 11.1982021,10.8915564 C10.1322964,11.5249069 9.41929732,12.5239366 9.12614617,13.6300444 C10.2896123,13.9326997 11.570193,13.8009821 12.703453,13.1652349 C12.7528611,13.1372473 12.7528611,13.1372473 12.8017979,13.1084436 C13.8677036,12.4750931 14.5807027,11.4760634 14.8738538,10.3699556 Z" id="Combined-Shape" fill="#000000"></path>
    </g>
</svg>