<?xml version="1.0" encoding="UTF-8"?>
<svg width="24px" height="24px" viewBox="0 0 24 24" version="1.1" xmlns="http://www.w3.org/2000/svg" xmlns:xlink="http://www.w3.org/1999/xlink">
    <!-- Generator: Sketch 54.1 (76490) - https://sketchapp.com -->
    <title>icon/system/search</title>
    <desc>Created with Sketch.</desc>
    <g id="icon/system/search" stroke="none" stroke-width="1" fill="none" fill-rule="evenodd">
        <rect id="Rectangle" fill="#FFFFFF" opacity="0" x="0" y="0" width="24" height="24"></rect>
        <path d="M14.0041491,16.3212662 C12.565176,17.3101377 10.8223975,17.8888889 8.94444444,17.8888889 C4.00456418,17.8888889 -1.77635684e-15,13.8843247 -1.77635684e-15,8.94444444 C-1.77635684e-15,4.00456418 4.00456418,0 8.94444444,0 C13.8843247,0 17.8888889,4.00456418 17.8888889,8.94444444 C17.8888889,11.2801782 16.9935879,13.4068031 15.5274395,14.9998656 L23.6653832,22.253498 C24.0776649,22.620979 24.113983,23.2531015 23.746502,23.6653832 C23.379021,24.0776649 22.7468985,24.113983 22.3346168,23.746502 L14.0041491,16.3212662 Z M8.94444444,15.8888889 C12.7797552,15.8888889 15.8888889,12.7797552 15.8888889,8.94444444 C15.8888889,5.10913368 12.7797552,2 8.94444444,2 C5.10913368,2 2,5.10913368 2,8.94444444 C2,12.7797552 5.10913368,15.8888889 8.94444444,15.8888889 Z" id="Combined-Shape" fill="#FC5A5A"></path>
    </g>
</svg>