<?xml version="1.0" encoding="UTF-8"?>
<svg width="160px" height="160px" viewBox="0 0 160 160" version="1.1" xmlns="http://www.w3.org/2000/svg" xmlns:xlink="http://www.w3.org/1999/xlink">
    <!-- Generator: Sketch 54.1 (76490) - https://sketchapp.com -->
    <title>icon/item/B/1-領導帶人</title>
    <desc>Created with Sketch.</desc>
    <g id="icon/item/B/1-領導帶人" stroke="none" stroke-width="1" fill="none" fill-rule="evenodd">
        <path d="M64,160 L56,160 L48,160 L40,160 L32,160 L24,160 L16,160 L8,160 L0,160 L0,152 L0,144 L0,136 L0,128 L0,120 L0,112 L0,104 L0,96 L0,88 L8,88 L16,88 L24,88 L32,88 L40,88 L48,88 L56,88 L64,88 L70.5857864,88 L136,22.5857864 L136,16 L136,8 L136,0 L144,0 L152,0 L160,0 L160,8 L160,16 L160,24 L152,24 L144,24 L137.414214,24 L72,89.4142136 L72,96 L72,104 L72,112 L72,120 L72,128 L72,136 L72,144 L72,152 L72,160 L64,160 Z" id="Combined-Shape" fill="#FC5A5A"></path>
    </g>
</svg>