<?xml version="1.0" encoding="UTF-8"?>
<svg width="24px" height="24px" viewBox="0 0 24 24" version="1.1" xmlns="http://www.w3.org/2000/svg" xmlns:xlink="http://www.w3.org/1999/xlink">
    <!-- Generator: Sketch 55.2 (78181) - https://sketchapp.com -->
    <title>system icons/home</title>
    <desc>Created with Sketch.</desc>
    <g id="system-icons/home" stroke="none" stroke-width="1" fill="none" fill-rule="evenodd">
        <g fill="#000000" id="Combined-Shape">
            <path d="M9,19.0751953 L9,14 C9,13.4477153 9.44771525,13 10,13 L14,13 C14.5522847,13 15,13.4477153 15,14 L15,19.0751953 L17.0336914,19.0751953 L17.0336914,14.0751953 C17.0336914,13.5229106 17.4814067,13.0751953 18.0336914,13.0751953 C18.5859762,13.0751953 19.0336914,13.5229106 19.0336914,14.0751953 L19.0336914,20.0751953 C19.0336914,20.6274801 18.5859762,21.0751953 18.0336914,21.0751953 L6.07845052,21.0751953 C5.52616577,21.0751953 5.07845052,20.6274801 5.07845052,20.0751953 L5.07845052,14.0751953 C5.07845052,13.5229106 5.52616577,13.0751953 6.07845052,13.0751953 C6.63073527,13.0751953 7.07845052,13.5229106 7.07845052,14.0751953 L7.07845052,19.0751953 L9,19.0751953 Z M12,5.41421356 L4.70710678,12.7071068 C4.31658249,13.0976311 3.68341751,13.0976311 3.29289322,12.7071068 C2.90236893,12.3165825 2.90236893,11.6834175 3.29289322,11.2928932 L11.2928932,3.29289322 C11.6834175,2.90236893 12.3165825,2.90236893 12.7071068,3.29289322 L20.7071068,11.2928932 C21.0976311,11.6834175 21.0976311,12.3165825 20.7071068,12.7071068 C20.3165825,13.0976311 19.6834175,13.0976311 19.2928932,12.7071068 L12,5.41421356 Z M11,15 L11,19 L13,19 L13,15 L11,15 Z"></path>
        </g>
    </g>
</svg>